<?xml version="1.0" encoding="utf-8"?>
<!-- Generator: Adobe Illustrator 22.1.0, SVG Export Plug-In . SVG Version: 6.00 Build 0)  -->
<svg version="1.1" id="Camada_1" xmlns="http://www.w3.org/2000/svg" xmlns:xlink="http://www.w3.org/1999/xlink" x="0px" y="0px"
	 viewBox="0 0 1771.7 643.8" style="enable-background:new 0 0 1771.7 643.8;" xml:space="preserve">
<style type="text/css">
	.st0{fill:none;stroke:#FFFFFF;stroke-width:3;stroke-linejoin:round;}
	.st1{fill:none;stroke:#FEEE00;stroke-width:3;stroke-linejoin:round;}
	.st2{fill:none;stroke:#FFFFFF;stroke-width:3;stroke-miterlimit:10;}
	.st3{fill:#FFFFFF;}
	.st4{fill:none;stroke:#FFFFFF;stroke-width:3;stroke-miterlimit:10;stroke-dasharray:12.21,12.21;}
	.st5{fill:none;stroke:#FEEE00;stroke-width:3;stroke-miterlimit:10;}
	.st6{fill:#FEEE00;}
	.st7{fill:none;stroke:#FFFFFF;stroke-width:3;stroke-miterlimit:10;stroke-dasharray:12;}
</style>
<title>engine</title>
<g>
	<circle class="st0" cx="1183.5" cy="321.9" r="176.2"/>
	<circle class="st0" cx="1183.5" cy="321.9" r="127.5"/>
	<circle class="st1" cx="1183.5" cy="321.9" r="127.5"/>
	<circle class="st0" cx="1183.5" cy="321.9" r="92.3"/>
	<circle class="st0" cx="1183.5" cy="321.9" r="35.2"/>
	<path class="st2" d="M1358.7,341c1.4-12.7,1.4-25.5,0-38.1l-50.7-8.8c-3.2-14.3-8.9-28-16.7-40.4l29.7-42.1c-8-9.9-17.1-19-27-27
		l-42.1,29.6c-12.4-7.9-26.1-13.5-40.4-16.8l-8.8-50.7c-12.7-1.4-25.5-1.4-38.1,0l-8.8,50.7c-14.3,3.2-28,8.9-40.4,16.8l-42.1-29.6
		c-9.9,8-19,17.1-27,27l29.7,42.1c-7.9,12.4-13.6,26.1-16.8,40.4l-50.7,8.8c-1.4,12.7-1.4,25.5,0,38.1l50.7,8.8
		c3.2,14.3,8.9,28,16.8,40.4l-29.6,42.1c8,9.9,17.1,19,27,27l42.1-29.7c12.4,7.8,26.1,13.5,40.4,16.7l8.8,50.7
		c12.7,1.4,25.5,1.4,38.1,0l8.8-50.7c14.3-3.2,28-8.9,40.4-16.8l42.1,29.7c9.9-8,19-17.1,27-27l-29.7-42.1
		c7.9-12.4,13.5-26.1,16.7-40.4L1358.7,341z M1185.8,357.1c-19.4,1.3-36.2-13.5-37.5-32.9s13.5-36.2,32.9-37.5s36.2,13.5,37.5,32.9
		c0.1,1.5,0.1,3,0,4.6C1217.5,341.8,1203.5,355.9,1185.8,357.1L1185.8,357.1z"/>
	<path class="st3" d="M1669.6,359.9L1669.6,359.9c0.2-0.4,0.4-0.9,0.7-1.3l0.2-0.3l0.6-1.2l0.2-0.4c0.2-0.4,0.4-0.8,0.6-1.2
		c0.1-0.1,0.1-0.2,0.2-0.4l0.6-1.2c0.1-0.1,0.1-0.2,0.1-0.2c0.2-0.4,0.4-0.9,0.6-1.4l0,0c1.1-2.6,2-5.3,2.8-8c0-0.1,0-0.1,0-0.1
		c0.1-0.5,0.3-1,0.4-1.5c0-0.1,0-0.1,0.1-0.2c0.1-0.5,0.2-1,0.4-1.5l0.1-0.2c0.1-0.6,0.2-1.1,0.4-1.6l0,0l31.3-5.4
		c0.9-7.8,0.9-15.8,0-23.5l-31.3-5.4l0,0c-0.1-0.6-0.2-1.1-0.4-1.6l-0.1-0.1c-0.1-0.5-0.2-1.1-0.4-1.5c0-0.1,0-0.1-0.1-0.2
		c-0.1-0.5-0.3-1-0.4-1.5c0-0.1,0-0.1,0-0.1c-0.8-2.7-1.7-5.4-2.8-8l0,0c-0.2-0.5-0.4-0.9-0.6-1.4c-0.1-0.1-0.1-0.2-0.1-0.2
		l-0.6-1.2c-0.1-0.1-0.1-0.2-0.2-0.4c-0.2-0.4-0.4-0.8-0.6-1.2l-0.2-0.4l-0.6-1.2c-0.1-0.1-0.1-0.2-0.2-0.3
		c-0.2-0.4-0.4-0.9-0.7-1.2v0.2c-0.8-1.5-1.7-2.9-2.5-4.3l0,0l18.4-26c-4.9-6.1-10.6-11.7-16.7-16.7l-26,18.3
		c-1.4-0.9-2.8-1.7-4.3-2.5l0,0l-1.3-0.7l-0.2-0.1l-1.2-0.6l-0.4-0.2c-0.4-0.2-0.8-0.4-1.2-0.6l-0.3-0.2l-1.3-0.6l-0.2-0.1
		c-0.4-0.2-0.9-0.4-1.4-0.6l0,0c-2.6-1.1-5.3-2-8-2.8h-0.1l-1.5-0.4l-0.2-0.1c-0.5-0.1-1.1-0.2-1.5-0.4l-0.1-0.1
		c-0.6-0.1-1.1-0.2-1.6-0.4l-5.4-31.3c-7.8-0.9-15.8-0.9-23.5,0l-5.4,31.3c-0.6,0.1-1.1,0.2-1.6,0.4l-0.1,0.1
		c-0.5,0.1-1.1,0.2-1.5,0.4l-0.2,0.1c-0.5,0.1-1.1,0.3-1.5,0.4h-0.1c-2.7,0.8-5.4,1.7-8,2.8l0,0c-0.5,0.2-0.9,0.4-1.4,0.6l-0.2,0.1
		l-1.3,0.6l-0.3,0.2c-0.4,0.2-0.8,0.4-1.2,0.6l-0.4,0.2l-1.2,0.6l-0.2,0.1l-1.3,0.7l0,0c-1.5,0.8-2.9,1.7-4.3,2.5l-26-18.4
		c-6.1,4.9-11.7,10.6-16.7,16.7l18.4,26c-0.9,1.4-1.7,2.8-2.5,4.3l0,0c-0.2,0.4-0.4,0.9-0.7,1.3l-0.1,0.3c-0.2,0.4-0.4,0.8-0.6,1.2
		c-0.1,0.1-0.1,0.2-0.2,0.4c-0.2,0.4-0.4,0.8-0.6,1.2l-0.2,0.4c-0.2,0.4-0.4,0.9-0.6,1.2c-0.1,0.1-0.1,0.2-0.1,0.2
		c-0.2,0.4-0.4,0.9-0.6,1.4l0,0c-1.1,2.6-2,5.3-2.8,7.9c0,0.1,0,0.1-0.1,0.1c-0.1,0.5-0.3,1-0.4,1.5c0,0.1-0.1,0.1-0.1,0.2
		c-0.1,0.5-0.2,1-0.4,1.5l-0.1,0.2c-0.1,0.6-0.2,1.1-0.4,1.6l0,0l-31.3,5.4c-0.9,7.8-0.9,15.8,0,23.5l31.3,5.4l0,0
		c0.1,0.6,0.2,1.1,0.4,1.6l0.1,0.2c0.1,0.5,0.2,1,0.4,1.5c0,0.1,0.1,0.1,0.1,0.2c0.1,0.5,0.2,1,0.4,1.5c0,0.1,0,0.1,0.1,0.1
		c0.8,2.7,1.7,5.3,2.8,7.9v0.1c0.2,0.4,0.4,0.9,0.6,1.4c0.1,0.1,0.1,0.2,0.1,0.2c0.2,0.4,0.4,0.9,0.6,1.2l0.2,0.4
		c0.2,0.4,0.4,0.8,0.6,1.2l0.2,0.4c0.2,0.4,0.4,0.8,0.6,1.2l0.2,0.3c0.2,0.4,0.4,0.9,0.7,1.2l0.1,0.1c0.8,1.4,1.6,2.8,2.5,4.3v0.1
		l-18.4,26c4.9,6.1,10.6,11.7,16.7,16.7l26-18.3l0,0c1.4,0.9,2.8,1.7,4.3,2.5h0.1c0.4,0.2,0.9,0.4,1.2,0.7l0.3,0.1l1.2,0.6l0.4,0.2
		l1.2,0.6l0.4,0.2l1.2,0.6l0.2,0.1c0.4,0.2,0.9,0.4,1.4,0.6l0,0c2.6,1.1,5.3,2,7.9,2.8h0.1l1.5,0.4l0.2,0.1c0.5,0.1,1,0.2,1.5,0.4
		l0.1,0.1c0.5,0.1,1.1,0.2,1.6,0.4l0,0l5.4,31.3c7.8,0.9,15.8,0.9,23.5,0l5.4-31.3l0,0c0.6-0.1,1.1-0.2,1.6-0.4l0.2-0.1
		c0.5-0.1,1-0.2,1.5-0.4l0.2-0.1l1.5-0.4h0.1c2.7-0.8,5.3-1.7,7.9-2.8l0,0c0.4-0.2,0.9-0.4,1.4-0.6l0.2-0.1l1.3-0.6l0.4-0.2
		c0.4-0.2,0.8-0.4,1.2-0.6l0.4-0.2c0.4-0.2,0.8-0.4,1.2-0.6l0.3-0.1l1.3-0.7l0,0c1.5-0.8,2.9-1.7,4.3-2.5l26,18.4
		c6.1-4.9,11.7-10.6,16.7-16.7l-18.4-26l0,0C1667.9,362.8,1668.8,361.3,1669.6,359.9z M1600.5,343.7c-12.1,0-21.8-9.8-21.8-21.8
		c0-12.1,9.8-21.8,21.8-21.8c12.1,0,21.8,9.8,21.8,21.8l0,0C1622.2,334,1612.5,343.7,1600.5,343.7z"/>
	<path class="st3" d="M1674.3,478.3L1674.3,478.3c0.1-0.1,0.1-0.2,0.2-0.3l0-0.1l0.1-0.3l0-0.1c0-0.1,0.1-0.2,0.1-0.3
		c0,0,0-0.1,0-0.1l0.1-0.3c0,0,0,0,0-0.1c0-0.1,0.1-0.2,0.1-0.3l0,0c0.2-0.6,0.5-1.2,0.7-1.9c0,0,0,0,0,0c0-0.1,0.1-0.2,0.1-0.4
		c0,0,0,0,0,0c0-0.1,0.1-0.2,0.1-0.4l0,0c0-0.1,0.1-0.2,0.1-0.4l0,0l7.4-1.3c0.2-1.9,0.2-3.7,0-5.6l-7.4-1.3l0,0
		c0-0.1-0.1-0.2-0.1-0.4l0,0c0-0.1-0.1-0.2-0.1-0.4c0,0,0,0,0,0c0-0.1-0.1-0.2-0.1-0.4c0,0,0,0,0,0c-0.2-0.6-0.4-1.3-0.7-1.9l0,0
		c0-0.1-0.1-0.2-0.1-0.3c0,0,0,0,0-0.1l-0.1-0.3c0,0,0-0.1,0-0.1c0-0.1-0.1-0.2-0.1-0.3l0-0.1l-0.1-0.3c0,0,0,0,0-0.1
		c-0.1-0.1-0.1-0.2-0.2-0.3v0c-0.2-0.4-0.4-0.7-0.6-1l0,0l4.3-6.1c-1.2-1.4-2.5-2.8-3.9-3.9l-6.1,4.3c-0.3-0.2-0.7-0.4-1-0.6l0,0
		l-0.3-0.2l-0.1,0l-0.3-0.1l-0.1,0c-0.1,0-0.2-0.1-0.3-0.1l-0.1,0l-0.3-0.1l-0.1,0c-0.1,0-0.2-0.1-0.3-0.1l0,0
		c-0.6-0.2-1.2-0.5-1.9-0.7h0l-0.4-0.1l0,0c-0.1,0-0.2-0.1-0.4-0.1l0,0c-0.1,0-0.2-0.1-0.4-0.1l-1.3-7.4c-1.9-0.2-3.7-0.2-5.6,0
		l-1.3,7.4c-0.1,0-0.2,0.1-0.4,0.1l0,0c-0.1,0-0.2,0.1-0.4,0.1l0,0c-0.1,0-0.2,0.1-0.4,0.1h0c-0.6,0.2-1.3,0.4-1.9,0.7l0,0
		c-0.1,0-0.2,0.1-0.3,0.1l-0.1,0l-0.3,0.1l-0.1,0c-0.1,0-0.2,0.1-0.3,0.1l-0.1,0l-0.3,0.1l-0.1,0l-0.3,0.2l0,0
		c-0.4,0.2-0.7,0.4-1,0.6l-6.1-4.3c-1.4,1.2-2.8,2.5-3.9,3.9l4.3,6.1c-0.2,0.3-0.4,0.7-0.6,1l0,0c-0.1,0.1-0.1,0.2-0.2,0.3l0,0.1
		c0,0.1-0.1,0.2-0.1,0.3c0,0,0,0.1,0,0.1c0,0.1-0.1,0.2-0.1,0.3l0,0.1c0,0.1-0.1,0.2-0.1,0.3c0,0,0,0,0,0.1c0,0.1-0.1,0.2-0.1,0.3
		l0,0c-0.2,0.6-0.5,1.2-0.7,1.9c0,0,0,0,0,0c0,0.1-0.1,0.2-0.1,0.4c0,0,0,0,0,0c0,0.1-0.1,0.2-0.1,0.4l0,0c0,0.1-0.1,0.2-0.1,0.4
		l0,0l-7.4,1.3c-0.2,1.9-0.2,3.7,0,5.6l7.4,1.3l0,0c0,0.1,0.1,0.2,0.1,0.4l0,0c0,0.1,0.1,0.2,0.1,0.4c0,0,0,0,0,0
		c0,0.1,0.1,0.2,0.1,0.4c0,0,0,0,0,0c0.2,0.6,0.4,1.3,0.7,1.9v0c0,0.1,0.1,0.2,0.1,0.3c0,0,0,0,0,0.1c0,0.1,0.1,0.2,0.1,0.3l0,0.1
		c0,0.1,0.1,0.2,0.1,0.3l0,0.1c0,0.1,0.1,0.2,0.1,0.3l0,0.1c0,0.1,0.1,0.2,0.2,0.3l0,0c0.2,0.3,0.4,0.7,0.6,1v0l-4.3,6.1
		c1.2,1.4,2.5,2.8,3.9,3.9l6.1-4.3l0,0c0.3,0.2,0.7,0.4,1,0.6h0c0.1,0.1,0.2,0.1,0.3,0.2l0.1,0l0.3,0.1l0.1,0l0.3,0.1l0.1,0l0.3,0.1
		l0.1,0c0.1,0,0.2,0.1,0.3,0.1l0,0c0.6,0.2,1.2,0.5,1.9,0.7h0l0.4,0.1l0,0c0.1,0,0.2,0.1,0.4,0.1l0,0c0.1,0,0.2,0.1,0.4,0.1l0,0
		l1.3,7.4c1.9,0.2,3.7,0.2,5.6,0l1.3-7.4l0,0c0.1,0,0.2-0.1,0.4-0.1l0,0c0.1,0,0.2-0.1,0.4-0.1l0,0l0.4-0.1h0
		c0.6-0.2,1.3-0.4,1.9-0.7l0,0c0.1,0,0.2-0.1,0.3-0.1l0.1,0l0.3-0.1l0.1,0c0.1,0,0.2-0.1,0.3-0.1l0.1,0c0.1,0,0.2-0.1,0.3-0.1l0.1,0
		l0.3-0.2l0,0c0.4-0.2,0.7-0.4,1-0.6l6.1,4.3c1.4-1.2,2.8-2.5,3.9-3.9l-4.3-6.1l0,0C1673.9,479,1674.1,478.6,1674.3,478.3z
		 M1658,474.5c-2.8,0-5.1-2.3-5.2-5.1c0-2.8,2.3-5.1,5.1-5.2c2.8,0,5.1,2.3,5.2,5.1l0,0C1663.1,472.2,1660.8,474.5,1658,474.5z"/>
	<line class="st2" x1="657.7" y1="194.4" x2="651.7" y2="194.4"/>
	<line class="st4" x1="639.5" y1="194.4" x2="132.9" y2="194.4"/>
	<line class="st2" x1="126.8" y1="194.4" x2="120.8" y2="194.4"/>
	<line class="st2" x1="657.7" y1="449.4" x2="651.7" y2="449.4"/>
	<line class="st4" x1="639.5" y1="449.4" x2="132.9" y2="449.4"/>
	<line class="st2" x1="126.8" y1="449.4" x2="120.8" y2="449.4"/>
	<circle class="st0" cx="657.7" cy="321.9" r="176.2"/>
	<circle class="st0" cx="657.7" cy="321.9" r="127.5"/>
	<circle class="st1" cx="657.7" cy="321.9" r="127.5"/>
	<circle class="st0" cx="657.7" cy="321.9" r="92.3"/>
	<circle class="st0" cx="657.7" cy="321.9" r="35.2"/>
	<circle class="st0" cx="657.7" cy="321.9" r="285.1"/>
	<polygon class="st0" points="372.6,321.9 572.2,286.5 456.1,120.3 622.3,236.4 657.7,36.8 693.1,236.4 859.3,120.3 743.2,286.5 
		942.8,321.9 743.2,357.3 859.3,523.5 693.1,407.4 657.7,607 622.3,407.4 456.1,523.5 572.2,357.3 	"/>
	<line class="st5" x1="120.8" y1="194.6" x2="120.8" y2="449.4"/>
	<line class="st5" x1="62.3" y1="37.2" x2="62.3" y2="606.8"/>
	<line class="st5" x1="179.3" y1="414.2" x2="179.3" y2="229.8"/>
	<line class="st5" x1="237.8" y1="357.2" x2="237.8" y2="286.8"/>
	<path class="st6" d="M151.9,243.1h-3.6V219l-7.3,2.7v-3.3l10.4-3.9h0.6L151.9,243.1z"/>
	<path class="st3" d="M108,95.5H89.4v-2.6L99.2,82c1.1-1.2,2.1-2.6,3-4c0.5-1,0.8-2.1,0.8-3.2c0.1-1.4-0.4-2.7-1.4-3.7
		c-0.9-1-2.2-1.5-3.6-1.4c-1.5-0.1-3.1,0.5-4.2,1.5c-1.1,1.2-1.6,2.7-1.5,4.3h-3.6c-0.1-2.4,0.8-4.7,2.5-6.3
		c1.8-1.7,4.3-2.5,6.8-2.4c2.3-0.1,4.5,0.6,6.3,2.1c1.5,1.4,2.4,3.4,2.3,5.5c0,2.8-1.8,6.1-5.4,10l-7.6,8.3h14.3L108,95.5L108,95.5z
		"/>
	<path class="st3" d="M112.1,101.2l-2-1.4c1.2-1.5,1.8-3.4,1.9-5.3v-3.3h3.5V94c0,1.4-0.4,2.8-1,4
		C113.9,99.3,113.1,100.3,112.1,101.2z"/>
	<path class="st3" d="M138.3,95.5h-18.6v-2.6l9.8-10.9c1.1-1.2,2.1-2.6,3-4c0.5-1,0.8-2.1,0.8-3.2c0.1-1.4-0.4-2.7-1.4-3.7
		c-0.9-1-2.2-1.5-3.6-1.4c-1.5-0.1-3.1,0.5-4.2,1.5c-1.1,1.2-1.6,2.7-1.5,4.3H119c-0.1-2.4,0.8-4.7,2.5-6.3c1.9-1.7,4.4-2.6,6.9-2.4
		c2.3-0.1,4.5,0.6,6.3,2.1c1.5,1.4,2.4,3.4,2.3,5.5c0,2.8-1.8,6.1-5.4,10l-7.7,8.3h14.3L138.3,95.5L138.3,95.5z"/>
	<path class="st3" d="M147.4,79.6h2.7c1.5,0.1,2.9-0.4,4-1.3c1-0.9,1.5-2.2,1.5-3.5c0-3.3-1.7-5-5-5c-1.4-0.1-2.7,0.4-3.7,1.3
		c-0.9,0.9-1.4,2.2-1.4,3.5h-3.6c0-2.1,0.9-4.2,2.5-5.6c1.7-1.5,4-2.3,6.3-2.2c2.3-0.1,4.6,0.6,6.3,2.1c1.6,1.6,2.4,3.7,2.3,5.9
		c0,1.3-0.4,2.5-1.2,3.6c-0.8,1.2-1.9,2.1-3.3,2.6c3,0.8,5,3.6,4.9,6.7c0.1,2.3-0.8,4.5-2.5,6.1c-1.8,1.5-4.1,2.4-6.5,2.3
		c-2.4,0.1-4.7-0.7-6.5-2.2c-1.7-1.4-2.6-3.5-2.5-5.7h3.6c-0.1,1.4,0.5,2.7,1.5,3.6c1.1,0.9,2.5,1.4,3.9,1.4c1.5,0.1,2.9-0.4,4-1.4
		c1-1.1,1.5-2.5,1.4-3.9c0.1-1.4-0.5-2.8-1.5-3.8c-1.3-1-2.8-1.5-4.4-1.4h-2.7L147.4,79.6z"/>
	<path class="st3" d="M178.8,67.1v3.1h-0.7c-2.5-0.1-4.9,0.8-6.7,2.5c-1.8,1.8-2.8,4.3-2.9,6.8c1.6-1.7,3.8-2.7,6.1-2.6
		c2.3-0.1,4.5,0.9,5.9,2.6c1.5,1.9,2.3,4.3,2.2,6.8c0.1,2.6-0.7,5.1-2.4,7c-3.4,3.5-9,3.5-12.5,0.1c-0.2-0.2-0.4-0.4-0.5-0.6
		c-1.8-2.3-2.7-5.2-2.5-8.1v-1.4c0-5.2,1.1-9.2,3.4-12c2.2-2.8,5.6-4.2,10-4.3L178.8,67.1z M174.1,79.9c-2.5,0-4.7,1.6-5.6,3.9v1.3
		c-0.1,2,0.5,4,1.6,5.7c0.9,1.3,2.4,2.1,3.9,2.1c1.5,0.1,2.9-0.6,3.8-1.8c1.9-2.9,1.9-6.6,0-9.4C176.9,80.5,175.5,79.8,174.1,79.9z"
		/>
	<path class="st3" d="M214.8,259.6c0,3.5-0.6,6-1.8,7.7c-2.7,3.1-7.3,3.4-10.4,0.7c-0.2-0.2-0.4-0.4-0.6-0.6
		c-1.2-1.6-1.8-4.1-1.9-7.4v-3.9c0-3.4,0.6-5.9,1.8-7.6c2.8-3.1,7.5-3.3,10.6-0.6c0.2,0.2,0.3,0.3,0.5,0.5c1.2,1.6,1.8,4.1,1.8,7.4
		L214.8,259.6z M211.8,255.6c0.1-1.9-0.2-3.8-1-5.5c-0.7-1.1-2-1.8-3.3-1.7c-1.3-0.1-2.6,0.6-3.3,1.7c-0.8,1.6-1.2,3.4-1.1,5.3v4.7
		c-0.1,1.9,0.2,3.8,1.1,5.6c0.7,1.2,2,1.9,3.3,1.8c1.3,0.1,2.6-0.6,3.2-1.7c0.8-1.6,1.2-3.5,1.1-5.3V255.6z"/>
	<path class="st3" d="M218.8,274.1l-1.7-1.1c0.9-1.2,1.5-2.7,1.6-4.3V266h2.9v2.3c0,1.1-0.3,2.2-0.8,3.2S219.7,273.4,218.8,274.1z"
		/>
	<path class="st3" d="M236.6,246.2v2.5h-0.5c-2-0.1-4,0.6-5.5,2c-1.4,1.5-2.3,3.5-2.4,5.6c1.3-1.4,3.1-2.2,5-2.1
		c1.9-0.1,3.6,0.7,4.8,2.1c2.5,3.4,2.4,8-0.1,11.3c-1.3,1.5-3.3,2.2-5.2,2.1c-2.1,0.1-4.1-0.9-5.4-2.6c-1.4-1.9-2.2-4.2-2.1-6.6
		v-1.1c0-4.3,0.9-7.5,2.7-9.8c1.8-2.3,4.5-3.4,8.1-3.5L236.6,246.2z M232.7,256.7c-1,0-2,0.3-2.8,0.9s-1.4,1.4-1.8,2.3v1.1
		c-0.1,1.7,0.4,3.3,1.3,4.6c0.7,1.1,1.9,1.7,3.2,1.8c1.2,0.1,2.4-0.5,3.1-1.5c1.5-2.3,1.5-5.4,0-7.7
		C235.1,257.2,234,256.6,232.7,256.7L232.7,256.7z"/>
	<path class="st3" d="M253,269.5h-3v-19.6l-5.9,2.2v-2.7l8.4-3.2h0.5V269.5z"/>
	<path class="st3" d="M275.8,252.3c0,1.1-0.3,2.2-0.9,3.1s-1.5,1.6-2.5,2.1c1.2,0.5,2.2,1.3,2.9,2.3c0.7,1,1.1,2.2,1.1,3.4
		c0.1,1.8-0.6,3.6-2,4.8c-3.2,2.4-7.5,2.4-10.7,0c-1.3-1.2-2.1-3-2-4.8c0-1.2,0.3-2.4,1-3.4s1.7-1.8,2.9-2.3c-1-0.5-1.8-1.2-2.4-2.1
		s-0.9-2-0.9-3.1c-0.1-1.8,0.6-3.5,1.9-4.7c2.9-2.3,7-2.3,9.9,0C275.2,248.8,275.8,250.5,275.8,252.3z M273.4,263.1
		c0-1.2-0.4-2.3-1.2-3.2c-1.8-1.6-4.6-1.6-6.4,0c-0.8,0.9-1.3,2-1.2,3.2c-0.1,1.2,0.4,2.3,1.2,3.1c0.9,0.8,2.1,1.2,3.3,1.1
		c1.2,0.1,2.4-0.3,3.3-1.1C273,265.4,273.4,264.3,273.4,263.1L273.4,263.1z M268.9,248.4c-1,0-2.1,0.3-2.8,1.1
		c-1.4,1.7-1.4,4.1,0,5.8c1.6,1.5,4.1,1.5,5.7,0c1.4-1.6,1.4-4.1,0-5.8C271,248.7,270,248.3,268.9,248.4L268.9,248.4z"/>
	<path class="st3" d="M272.2,325.1c0,3.5-0.6,6-1.8,7.7c-2.7,3-7.3,3.4-10.4,0.7c-0.2-0.2-0.4-0.4-0.6-0.6c-1.2-1.6-1.8-4.1-1.9-7.4
		v-3.9c0-3.4,0.6-6,1.8-7.6c2.8-3.1,7.5-3.3,10.6-0.6c0.2,0.2,0.3,0.3,0.5,0.5c1.2,1.6,1.8,4.1,1.8,7.4V325.1z M269.2,321.1
		c0.1-1.9-0.2-3.8-1-5.5c-0.7-1.1-2-1.8-3.3-1.7c-1.4-0.1-2.6,0.6-3.3,1.7c-0.8,1.6-1.2,3.4-1.1,5.2v4.7c-0.1,1.9,0.3,3.8,1.1,5.6
		c0.7,1.2,2,1.9,3.3,1.8c1.3,0.1,2.6-0.6,3.2-1.7c0.8-1.6,1.2-3.5,1.1-5.3L269.2,321.1z"/>
	<path class="st3" d="M276.2,339.6l-1.7-1.2c0.9-1.2,1.5-2.7,1.6-4.3v-2.7h2.9v2.3c0,1.1-0.3,2.2-0.8,3.2
		C277.7,338,277,338.9,276.2,339.6z"/>
	<path class="st3" d="M297.6,335h-15.2v-2.1l8-8.9c0.9-1,1.8-2.1,2.5-3.3c0.4-0.8,0.7-1.7,0.7-2.6c0-1.1-0.3-2.2-1.1-3
		c-0.8-0.8-1.8-1.2-2.9-1.2c-1.3-0.1-2.5,0.4-3.4,1.3c-0.9,1-1.3,2.2-1.2,3.5h-3c-0.1-1.9,0.7-3.8,2.1-5.2c1.5-1.4,3.5-2.1,5.5-2
		c1.9-0.1,3.7,0.5,5.1,1.7c1.3,1.1,2,2.8,1.9,4.5c0,2.3-1.5,5-4.4,8.2l-6.2,6.7h11.6V335z"/>
	<path class="st3" d="M305,321.9h2.2c1.2,0,2.4-0.3,3.3-1.1c0.8-0.7,1.3-1.8,1.2-2.9c0-2.7-1.4-4.1-4.1-4.1
		c-1.1-0.1-2.2,0.3-3.1,1.1c-0.8,0.8-1.2,1.8-1.1,2.9h-3c0-1.7,0.7-3.4,2-4.6c1.4-1.2,3.2-1.9,5.1-1.8c1.9-0.1,3.7,0.5,5.1,1.7
		c1.3,1.3,2,3,1.9,4.8c0,1.1-0.4,2.1-1,2.9c-0.7,0.9-1.6,1.7-2.7,2.1c1.2,0.3,2.2,1,3,2c0.7,1,1,2.2,1,3.4c0.1,1.9-0.6,3.7-2,5
		c-1.5,1.3-3.4,1.9-5.3,1.8c-1.9,0.1-3.8-0.5-5.3-1.8c-1.4-1.2-2.1-2.9-2-4.7h3c0,1.1,0.4,2.2,1.2,2.9c0.9,0.8,2,1.2,3.2,1.1
		c1.2,0.1,2.4-0.3,3.3-1.1c0.8-0.9,1.2-2,1.1-3.2c0.1-1.2-0.4-2.3-1.2-3.1c-1-0.8-2.3-1.2-3.6-1.1H305V321.9z"/>
	<path class="st3" d="M330.6,311.7v2.5h-0.5c-2-0.1-4,0.6-5.5,2c-1.4,1.5-2.3,3.5-2.4,5.6c1.3-1.4,3.1-2.2,5-2.1
		c1.9-0.1,3.6,0.7,4.8,2.1c2.5,3.4,2.4,7.9-0.1,11.3c-1.3,1.5-3.3,2.2-5.2,2.2c-2.1,0.1-4.1-0.9-5.4-2.6c-1.4-1.9-2.2-4.2-2.1-6.6
		V325c0-4.3,0.9-7.5,2.7-9.8c1.8-2.3,4.5-3.4,8.1-3.5H330.6z M326.7,322.2c-2,0-3.8,1.3-4.6,3.2v1.1c-0.1,1.6,0.4,3.3,1.3,4.6
		c0.7,1.1,1.9,1.8,3.2,1.8c1.2,0.1,2.4-0.5,3.1-1.5c1.5-2.3,1.5-5.4,0-7.7C329.1,322.7,327.9,322.1,326.7,322.2z"/>
	<line class="st7" x1="179.3" y1="229.8" x2="657.7" y2="229.8"/>
	<line class="st7" x1="179.3" y1="414.1" x2="657.7" y2="414.1"/>
	<line class="st7" x1="237.8" y1="286.6" x2="657.7" y2="286.6"/>
	<line class="st7" x1="237.8" y1="357.2" x2="657.7" y2="357.2"/>
	<line class="st7" x1="62.3" y1="36.8" x2="657.7" y2="36.8"/>
	<line class="st7" x1="62.3" y1="606.8" x2="657.7" y2="606.8"/>
</g>
</svg>
