<svg id="Camada_1" data-name="Camada 1" xmlns="http://www.w3.org/2000/svg" viewBox="0 0 1142.8 250.15"><defs><style>.cls-1,.cls-12,.cls-13,.cls-2,.cls-3,.cls-4,.cls-5,.cls-7,.cls-8,.cls-9{fill:none;}.cls-1,.cls-10,.cls-7{stroke:#fff;}.cls-1,.cls-10,.cls-11,.cls-12,.cls-13,.cls-8,.cls-9{stroke-miterlimit:10;}.cls-1,.cls-10,.cls-11,.cls-12,.cls-13,.cls-2,.cls-3,.cls-4,.cls-5,.cls-8{stroke-width:2px;}.cls-12,.cls-13,.cls-2,.cls-3,.cls-4,.cls-5,.cls-8{stroke:#feee00;}.cls-12,.cls-13,.cls-2,.cls-3,.cls-4,.cls-5,.cls-7,.cls-8{stroke-linecap:round;}.cls-2,.cls-3,.cls-4,.cls-5,.cls-7{stroke-linejoin:round;}.cls-2,.cls-7{stroke-dasharray:12;}.cls-4,.cls-8{stroke-dasharray:9;}.cls-5{stroke-dasharray:6;}.cls-10,.cls-6{fill:#fff;}.cls-7,.cls-9{stroke-width:0.5px;}.cls-9{stroke:#444242;}.cls-11{stroke:#000;}.cls-13{stroke-dasharray:0 4;}.cls-14{fill:#feee00;}</style></defs><title>eye</title><circle class="cls-1" cx="134.07" cy="126.96" r="118.05"/><line class="cls-2" x1="134.07" y1="245" x2="134.07" y2="154.82"/><line class="cls-3" x1="1" y1="8.91" x2="1" y2="245"/><circle class="cls-1" cx="379.2" cy="81.87" r="72.96"/><circle class="cls-1" cx="379.2" cy="172.05" r="72.96"/><line class="cls-2" x1="379.2" y1="99.09" x2="379.2" y2="154.83"/><line class="cls-4" x1="592.17" y1="39.43" x2="592.17" y2="86.65"/><line class="cls-5" x1="592.17" y1="195.04" x2="592.17" y2="213.08"/><path class="cls-6" d="M192.91,258a7.91,7.91,0,0,1-1.1,4.56,3.73,3.73,0,0,1-3.25,1.56,3.78,3.78,0,0,1-3.24-1.53,7.65,7.65,0,0,1-1.15-4.45v-2.54a7.69,7.69,0,0,1,1.12-4.55,4.21,4.21,0,0,1,6.47-.05,7.42,7.42,0,0,1,1.15,4.39Zm-1.17-2.55a6.92,6.92,0,0,0-.8-3.69,2.94,2.94,0,0,0-4.79,0,6.79,6.79,0,0,0-.82,3.6v2.79a6.94,6.94,0,0,0,.83,3.73,2.69,2.69,0,0,0,2.4,1.28,2.61,2.61,0,0,0,2.36-1.26,7,7,0,0,0,.82-3.69Z" transform="translate(-33.33 -64.04)"/><path class="cls-6" d="M195.36,266.61l-.69-.51a4.24,4.24,0,0,0,.92-2.47v-1.51h1.14v1.22A4.21,4.21,0,0,1,195.36,266.61Z" transform="translate(-33.33 -64.04)"/><path class="cls-6" d="M201.85,256.21h1.21a4,4,0,0,0,1.76-.36,2.6,2.6,0,0,0,1.14-1,2.57,2.57,0,0,0,.4-1.43,2.91,2.91,0,0,0-.77-2.14,3,3,0,0,0-2.22-.77,3.2,3.2,0,0,0-2.24.8,2.77,2.77,0,0,0-.87,2.13h-1.18a3.82,3.82,0,0,1,.56-2,3.75,3.75,0,0,1,1.54-1.41,4.83,4.83,0,0,1,2.19-.5,4.23,4.23,0,0,1,3,1.06,3.78,3.78,0,0,1,1.11,2.89,3.11,3.11,0,0,1-.65,1.89,4,4,0,0,1-1.78,1.29,3.64,3.64,0,0,1,2,1.27,3.46,3.46,0,0,1,.68,2.16A3.82,3.82,0,0,1,206.6,263a4.46,4.46,0,0,1-3.18,1.11,5.3,5.3,0,0,1-2.33-.51,3.75,3.75,0,0,1-2.22-3.54H200a2.85,2.85,0,0,0,1,2.21,3.48,3.48,0,0,0,2.43.85,3.36,3.36,0,0,0,2.36-.77,2.92,2.92,0,0,0,.84-2.25,2.66,2.66,0,0,0-.91-2.18,4.17,4.17,0,0,0-2.69-.75h-1.17Z" transform="translate(-33.33 -64.04)"/><path class="cls-6" d="M218.71,253.4a3.28,3.28,0,0,1-.64,2,3.76,3.76,0,0,1-1.7,1.28,4.1,4.1,0,0,1,2,1.36,3.36,3.36,0,0,1,.74,2.17,3.61,3.61,0,0,1-1.24,2.89,5.6,5.6,0,0,1-6.57,0,3.62,3.62,0,0,1-1.24-2.9,3.52,3.52,0,0,1,.71-2.16,4,4,0,0,1,2-1.37,3.55,3.55,0,0,1-1.68-1.28,3.33,3.33,0,0,1-.63-2,3.61,3.61,0,0,1,1.14-2.81,4.85,4.85,0,0,1,6,0A3.62,3.62,0,0,1,218.71,253.4Zm-.8,6.8A2.79,2.79,0,0,0,217,258a3.87,3.87,0,0,0-4.83,0,2.83,2.83,0,0,0-.94,2.2,2.77,2.77,0,0,0,.91,2.16,3.57,3.57,0,0,0,2.46.8,3.53,3.53,0,0,0,2.43-.8A2.69,2.69,0,0,0,217.91,260.2Zm-.37-6.81a2.75,2.75,0,0,0-.84-2,3.32,3.32,0,0,0-4.31,0,2.75,2.75,0,0,0-.83,2.07,2.62,2.62,0,0,0,.83,2,3,3,0,0,0,2.16.76,3.08,3.08,0,0,0,2.16-.76A2.63,2.63,0,0,0,217.54,253.39Z" transform="translate(-33.33 -64.04)"/><path class="cls-6" d="M230.32,264h-8.9v-.9l4.87-5.53a12.36,12.36,0,0,0,1.68-2.31,3.84,3.84,0,0,0,.47-1.76,2.88,2.88,0,0,0-.79-2.14,3,3,0,0,0-2.18-.78,3,3,0,0,0-2.32.92,3.27,3.27,0,0,0-.88,2.38h-1.16a4.5,4.5,0,0,1,.54-2.19,3.89,3.89,0,0,1,1.54-1.55,4.64,4.64,0,0,1,2.28-.56,4.27,4.27,0,0,1,3.05,1,3.63,3.63,0,0,1,1.1,2.79,4.81,4.81,0,0,1-.62,2.18,16,16,0,0,1-2.18,3l-4,4.48h7.47Z" transform="translate(-33.33 -64.04)"/><path class="cls-6" d="M646.7,69.29a4.89,4.89,0,0,1-.68,2.82,2.59,2.59,0,0,1-4,0,4.7,4.7,0,0,1-.71-2.75V67.8A4.74,4.74,0,0,1,642,65a2.3,2.3,0,0,1,2-1,2.35,2.35,0,0,1,2,.92,4.65,4.65,0,0,1,.71,2.72ZM646,67.71a4.28,4.28,0,0,0-.5-2.28,1.64,1.64,0,0,0-1.48-.77,1.65,1.65,0,0,0-1.48.75,4.11,4.11,0,0,0-.5,2.23v1.73a4.29,4.29,0,0,0,.51,2.3,1.78,1.78,0,0,0,2.94,0A4.39,4.39,0,0,0,646,69.4Z" transform="translate(-33.33 -64.04)"/><path class="cls-6" d="M648.21,74.59l-.42-.31a2.64,2.64,0,0,0,.56-1.53v-.93h.71v.75A2.57,2.57,0,0,1,648.21,74.59Z" transform="translate(-33.33 -64.04)"/><path class="cls-6" d="M652.22,68.17H653a2.65,2.65,0,0,0,1.09-.22,1.7,1.7,0,0,0,.71-.61,1.61,1.61,0,0,0,.24-.88,1.77,1.77,0,0,0-.48-1.32,1.83,1.83,0,0,0-1.37-.48,2,2,0,0,0-1.38.5,1.7,1.7,0,0,0-.54,1.31h-.73a2.38,2.38,0,0,1,.35-1.25,2.42,2.42,0,0,1,.95-.87,3,3,0,0,1,1.35-.31,2.62,2.62,0,0,1,1.89.66,2.33,2.33,0,0,1,.69,1.78,1.92,1.92,0,0,1-.41,1.17,2.34,2.34,0,0,1-1.1.8,2.3,2.3,0,0,1,1.25.79,2.13,2.13,0,0,1,.42,1.33,2.39,2.39,0,0,1-.74,1.82,2.81,2.81,0,0,1-2,.68,3.3,3.3,0,0,1-1.44-.31,2.41,2.41,0,0,1-1-.88,2.38,2.38,0,0,1-.36-1.31h.73a1.77,1.77,0,0,0,.58,1.37,2.16,2.16,0,0,0,1.5.52,2.07,2.07,0,0,0,1.46-.48,1.78,1.78,0,0,0,.52-1.39,1.63,1.63,0,0,0-.56-1.34,2.57,2.57,0,0,0-1.66-.47h-.73Z" transform="translate(-33.33 -64.04)"/><path class="cls-6" d="M662.65,66.43a2,2,0,0,1-.4,1.22,2.37,2.37,0,0,1-1,.79,2.73,2.73,0,0,1,1.22.84,2.15,2.15,0,0,1,.45,1.34,2.23,2.23,0,0,1-.76,1.79,3,3,0,0,1-2,.66,3.06,3.06,0,0,1-2-.65,2.25,2.25,0,0,1-.76-1.8,2.17,2.17,0,0,1,.44-1.33,2.5,2.5,0,0,1,1.21-.85,2.23,2.23,0,0,1-1-.79,2,2,0,0,1-.39-1.22,2.25,2.25,0,0,1,.71-1.74,2.62,2.62,0,0,1,1.86-.65,2.65,2.65,0,0,1,1.87.66A2.24,2.24,0,0,1,662.65,66.43Zm-.5,4.2a1.7,1.7,0,0,0-.59-1.35,2.14,2.14,0,0,0-1.49-.53,2.12,2.12,0,0,0-1.49.52,1.73,1.73,0,0,0-.58,1.36,1.7,1.7,0,0,0,.56,1.34,2.57,2.57,0,0,0,3,0A1.69,1.69,0,0,0,662.15,70.63Zm-.23-4.21a1.68,1.68,0,0,0-.52-1.26,1.86,1.86,0,0,0-1.33-.5,1.82,1.82,0,0,0-1.33.49,1.67,1.67,0,0,0-.51,1.27,1.63,1.63,0,0,0,.51,1.25,1.89,1.89,0,0,0,1.33.47,1.86,1.86,0,0,0,1.33-.48A1.58,1.58,0,0,0,661.92,66.42Z" transform="translate(-33.33 -64.04)"/><path class="cls-6" d="M669.82,73h-5.5V72.4l3-3.42a8.19,8.19,0,0,0,1-1.42,2.44,2.44,0,0,0,.29-1.1,1.78,1.78,0,0,0-.49-1.31,1.82,1.82,0,0,0-1.35-.49,1.88,1.88,0,0,0-1.43.57,2,2,0,0,0-.55,1.47h-.72a2.76,2.76,0,0,1,.34-1.35,2.37,2.37,0,0,1,.95-1,2.86,2.86,0,0,1,1.41-.35,2.68,2.68,0,0,1,1.89.64,2.25,2.25,0,0,1,.68,1.72,2.92,2.92,0,0,1-.39,1.35,9.75,9.75,0,0,1-1.34,1.82l-2.46,2.77h4.62Z" transform="translate(-33.33 -64.04)"/><path class="cls-6" d="M675.53,66.91l-2-.65.19-.61,2,.75,0-2.24h.63l-.05,2.25,2-.76.2.61-2,.69,1.34,1.77-.51.38L676,67.26l-1.23,1.83-.51-.37Z" transform="translate(-33.33 -64.04)"/><path class="cls-6" d="M687.72,69.29a4.81,4.81,0,0,1-.68,2.82,2.3,2.3,0,0,1-2,1,2.34,2.34,0,0,1-2-.94,4.7,4.7,0,0,1-.71-2.75V67.8A4.74,4.74,0,0,1,683,65a2.6,2.6,0,0,1,4,0,4.57,4.57,0,0,1,.71,2.72ZM687,67.71a4.29,4.29,0,0,0-.49-2.28,1.66,1.66,0,0,0-1.49-.77,1.65,1.65,0,0,0-1.47.75,4.2,4.2,0,0,0-.51,2.23v1.73a4.29,4.29,0,0,0,.51,2.3,1.78,1.78,0,0,0,3,0,4.3,4.3,0,0,0,.5-2.29Z" transform="translate(-33.33 -64.04)"/><path class="cls-6" d="M689.24,74.59l-.43-.31a2.66,2.66,0,0,0,.57-1.53v-.93h.7v.75A2.6,2.6,0,0,1,689.24,74.59Z" transform="translate(-33.33 -64.04)"/><path class="cls-6" d="M692.13,68.45l.43-4.29H697v.67h-3.77l-.31,3a2.87,2.87,0,0,1,1.66-.48,2.45,2.45,0,0,1,1.89.77,3,3,0,0,1,.71,2.06,3.11,3.11,0,0,1-.69,2.16,2.48,2.48,0,0,1-1.94.76,2.68,2.68,0,0,1-1.86-.64,2.62,2.62,0,0,1-.81-1.79h.69a2.09,2.09,0,0,0,.61,1.36,2,2,0,0,0,1.37.46,1.73,1.73,0,0,0,1.42-.59,2.68,2.68,0,0,0,.48-1.71,2.33,2.33,0,0,0-.53-1.57A1.85,1.85,0,0,0,694.4,68a2.75,2.75,0,0,0-.9.13,2.48,2.48,0,0,0-.8.5Z" transform="translate(-33.33 -64.04)"/><path class="cls-6" d="M704,73h-5.51V72.4l3-3.42a7.68,7.68,0,0,0,1-1.42,2.44,2.44,0,0,0,.29-1.1,1.74,1.74,0,0,0-.49-1.31,1.78,1.78,0,0,0-1.34-.49,1.91,1.91,0,0,0-1.44.57A2.05,2.05,0,0,0,699,66.7h-.72a2.75,2.75,0,0,1,.33-1.35,2.4,2.4,0,0,1,1-1A2.83,2.83,0,0,1,701,64a2.66,2.66,0,0,1,1.88.64,2.25,2.25,0,0,1,.68,1.72,3,3,0,0,1-.38,1.35,10.38,10.38,0,0,1-1.35,1.82l-2.45,2.77H704Z" transform="translate(-33.33 -64.04)"/><path class="cls-6" d="M707,68.17h.75a2.6,2.6,0,0,0,1.08-.22,1.64,1.64,0,0,0,.71-.61,1.62,1.62,0,0,0,.25-.88,1.77,1.77,0,0,0-.48-1.32,1.86,1.86,0,0,0-1.37-.48,2,2,0,0,0-1.39.5,1.7,1.7,0,0,0-.54,1.31h-.72a2.31,2.31,0,0,1,1.3-2.12,3,3,0,0,1,1.35-.31,2.6,2.6,0,0,1,1.88.66,2.33,2.33,0,0,1,.69,1.78,1.9,1.9,0,0,1-.4,1.17,2.44,2.44,0,0,1-1.1.8,2.27,2.27,0,0,1,1.24.79,2.13,2.13,0,0,1,.42,1.33,2.38,2.38,0,0,1-.73,1.82,2.81,2.81,0,0,1-2,.68,3.3,3.3,0,0,1-1.44-.31,2.44,2.44,0,0,1-1-.88,2.47,2.47,0,0,1-.35-1.31h.72a1.78,1.78,0,0,0,.59,1.37,2.16,2.16,0,0,0,1.5.52,2.09,2.09,0,0,0,1.46-.48,1.82,1.82,0,0,0,.52-1.39,1.63,1.63,0,0,0-.57-1.34,2.55,2.55,0,0,0-1.66-.47H707Z" transform="translate(-33.33 -64.04)"/><path class="cls-6" d="M712.68,68.45l.43-4.29h4.39v.67h-3.77l-.31,3a2.89,2.89,0,0,1,1.66-.48,2.45,2.45,0,0,1,1.89.77,3,3,0,0,1,.71,2.06,3.11,3.11,0,0,1-.69,2.16,2.47,2.47,0,0,1-1.94.76,2.68,2.68,0,0,1-1.86-.64,2.62,2.62,0,0,1-.81-1.79h.69a2.09,2.09,0,0,0,.61,1.36,2,2,0,0,0,1.37.46,1.73,1.73,0,0,0,1.42-.59,2.68,2.68,0,0,0,.48-1.71,2.28,2.28,0,0,0-.53-1.57A1.85,1.85,0,0,0,715,68a2.65,2.65,0,0,0-.89.13,2.51,2.51,0,0,0-.81.5Z" transform="translate(-33.33 -64.04)"/><path class="cls-6" d="M650.49,126.57a7.81,7.81,0,0,1-1.11,4.56,4.17,4.17,0,0,1-6.48,0,7.5,7.5,0,0,1-1.15-4.45v-2.54a7.72,7.72,0,0,1,1.11-4.54,4.2,4.2,0,0,1,6.47-.06,7.42,7.42,0,0,1,1.16,4.39ZM649.31,124a6.93,6.93,0,0,0-.79-3.69,2.94,2.94,0,0,0-4.79,0,6.61,6.61,0,0,0-.82,3.6v2.8a6.93,6.93,0,0,0,.82,3.72,2.68,2.68,0,0,0,2.4,1.29,2.64,2.64,0,0,0,2.37-1.26,6.89,6.89,0,0,0,.81-3.7Z" transform="translate(-33.33 -64.04)"/><path class="cls-6" d="M652.94,135.15l-.7-.51a4.18,4.18,0,0,0,.92-2.47v-1.51h1.14v1.22A4.2,4.2,0,0,1,652.94,135.15Z" transform="translate(-33.33 -64.04)"/><path class="cls-6" d="M665.73,132.5h-8.91v-.9l4.88-5.53a13.76,13.76,0,0,0,1.68-2.3,3.89,3.89,0,0,0,.46-1.77,2.88,2.88,0,0,0-.79-2.14,2.94,2.94,0,0,0-2.17-.78,3,3,0,0,0-2.32.92,3.28,3.28,0,0,0-.89,2.38h-1.16a4.5,4.5,0,0,1,.54-2.19,3.92,3.92,0,0,1,1.55-1.55,4.59,4.59,0,0,1,2.28-.56,4.27,4.27,0,0,1,3,1,3.63,3.63,0,0,1,1.1,2.79,4.81,4.81,0,0,1-.62,2.18,16.19,16.19,0,0,1-2.19,3l-4,4.48h7.47Z" transform="translate(-33.33 -64.04)"/><path class="cls-6" d="M51.46,87.29H50.29V74.48l-3.87,1.43V74.82L51.27,73h.19Z" transform="translate(-33.33 -64.04)"/><path class="cls-7" d="M167.4,218.86c157.6,0,245.13-55.73,245.13-55.73" transform="translate(-33.33 -64.04)"/><path class="cls-7" d="M167.4,309.05c139.6,0,245.13-90.18,245.13-90.18" transform="translate(-33.33 -64.04)"/><circle class="cls-1" cx="592.17" cy="204.06" r="23.61"/><path class="cls-6" d="M625.5,173.18a118.44,118.44,0,0,1-93.59-45.48l-.49-.61.49-.62a119,119,0,0,1,187.19,0l.48.62-.48.61A118.46,118.46,0,0,1,625.5,173.18ZM534,127.09a117.05,117.05,0,0,0,183.06,0,117,117,0,0,0-183.06,0Z" transform="translate(-33.33 -64.04)"/><path class="cls-6" d="M625.5,314.2a118.44,118.44,0,0,1-93.59-45.48l-.49-.62.49-.61a119,119,0,0,1,187.19,0l.48.61-.48.62A118.46,118.46,0,0,1,625.5,314.2ZM534,268.1a117,117,0,0,0,183.06,0,117.05,117.05,0,0,0-183.06,0Z" transform="translate(-33.33 -64.04)"/><circle class="cls-1" cx="821.08" cy="62.78" r="9.02"/><path class="cls-6" d="M854.41,172.91a118.42,118.42,0,0,1-93.59-45.47l-.49-.62.49-.62a119.06,119.06,0,0,1,187.19,0l.48.62-.48.62A118.45,118.45,0,0,1,854.41,172.91Zm-91.53-46.09a117.05,117.05,0,0,0,183.06,0,117.05,117.05,0,0,0-183.06,0Z" transform="translate(-33.33 -64.04)"/><path class="cls-6" d="M843.24,92.25a4.22,4.22,0,0,1-.59,2.46,2.26,2.26,0,0,1-3.5,0,4.05,4.05,0,0,1-.62-2.41V91a4.16,4.16,0,0,1,.6-2.45,2,2,0,0,1,1.75-.84,2,2,0,0,1,1.74.81,4,4,0,0,1,.62,2.37Zm-.63-1.38a3.7,3.7,0,0,0-.43-2,1.43,1.43,0,0,0-1.3-.68,1.42,1.42,0,0,0-1.28.66,3.64,3.64,0,0,0-.45,2v1.5a3.69,3.69,0,0,0,.45,2,1.44,1.44,0,0,0,1.29.7,1.42,1.42,0,0,0,1.28-.68,3.74,3.74,0,0,0,.44-2Z" transform="translate(-33.33 -64.04)"/><path class="cls-6" d="M844.57,96.88l-.38-.27a2.32,2.32,0,0,0,.5-1.34v-.82h.62v.66A2.29,2.29,0,0,1,844.57,96.88Z" transform="translate(-33.33 -64.04)"/><path class="cls-6" d="M850.39,87.71v.55h-.08a2.87,2.87,0,0,0-2.16.81,3.39,3.39,0,0,0-.88,2.25,2.12,2.12,0,0,1,.81-.67,2.45,2.45,0,0,1,1.09-.24,2,2,0,0,1,1.62.69,2.77,2.77,0,0,1,.59,1.83,3.11,3.11,0,0,1-.28,1.35,2.11,2.11,0,0,1-2,1.27,2.27,2.27,0,0,1-1.79-.8,3,3,0,0,1-.69-2.06v-.63a4.87,4.87,0,0,1,.94-3.2,3.34,3.34,0,0,1,2.66-1.15ZM849.08,91a2,2,0,0,0-1.13.36,1.78,1.78,0,0,0-.69.9v.54a2.45,2.45,0,0,0,.52,1.63,1.63,1.63,0,0,0,1.33.63,1.46,1.46,0,0,0,1.2-.58,2.35,2.35,0,0,0,.45-1.48,2.22,2.22,0,0,0-.45-1.45A1.55,1.55,0,0,0,849.08,91Z" transform="translate(-33.33 -64.04)"/><path class="cls-6" d="M855.58,95.45H855V88.53l-2.08.77v-.59l2.61-1h.1Z" transform="translate(-33.33 -64.04)"/><path class="cls-6" d="M863.16,89.75a1.75,1.75,0,0,1-.35,1.06,2,2,0,0,1-.92.7,2.26,2.26,0,0,1,1.07.73,1.88,1.88,0,0,1,.4,1.17,2,2,0,0,1-.67,1.56,3,3,0,0,1-3.55,0,2,2,0,0,1-.67-1.57,1.9,1.9,0,0,1,.38-1.16,2.09,2.09,0,0,1,1.06-.74,2,2,0,0,1-.91-.7,1.81,1.81,0,0,1-.34-1.06,2,2,0,0,1,.62-1.52,2.29,2.29,0,0,1,1.62-.57,2.34,2.34,0,0,1,1.64.57A2,2,0,0,1,863.16,89.75Zm-.44,3.67a1.51,1.51,0,0,0-.51-1.18,1.85,1.85,0,0,0-1.31-.46,1.89,1.89,0,0,0-1.3.45,1.51,1.51,0,0,0-.5,1.19,1.47,1.47,0,0,0,.49,1.16,1.92,1.92,0,0,0,1.33.44,2,2,0,0,0,1.31-.43A1.48,1.48,0,0,0,862.72,93.42Zm-.2-3.68a1.49,1.49,0,0,0-.45-1.1,1.63,1.63,0,0,0-1.17-.44,1.6,1.6,0,0,0-1.16.43,1.48,1.48,0,0,0-.44,1.11,1.45,1.45,0,0,0,.44,1.09,1.69,1.69,0,0,0,1.17.41,1.64,1.64,0,0,0,1.16-.42A1.38,1.38,0,0,0,862.52,89.74Z" transform="translate(-33.33 -64.04)"/><polyline class="cls-8" points="728.27 17.68 842.99 17.68 842.99 107.87"/><circle class="cls-1" cx="821.08" cy="62.78" r="23.61"/><line class="cls-9" x1="607.24" y1="13.82" x2="607.24" y2="50.75"/><path class="cls-6" d="M664.7,211.06a4.89,4.89,0,0,1-.68,2.82,2.59,2.59,0,0,1-4,0,4.7,4.7,0,0,1-.71-2.75v-1.57a4.75,4.75,0,0,1,.69-2.81,2.3,2.3,0,0,1,2-1,2.33,2.33,0,0,1,2,.93,4.59,4.59,0,0,1,.71,2.71Zm-.72-1.58a4.28,4.28,0,0,0-.5-2.28,1.64,1.64,0,0,0-1.48-.77,1.65,1.65,0,0,0-1.48.75,4.11,4.11,0,0,0-.5,2.23v1.73a4.29,4.29,0,0,0,.51,2.3,1.78,1.78,0,0,0,2.94,0,4.39,4.39,0,0,0,.51-2.29Z" transform="translate(-33.33 -64.04)"/><path class="cls-6" d="M666.21,216.37l-.42-.32a2.64,2.64,0,0,0,.56-1.53v-.93h.71v.75A2.61,2.61,0,0,1,666.21,216.37Z" transform="translate(-33.33 -64.04)"/><path class="cls-6" d="M674.12,214.72h-5.5v-.55l3-3.42a8.19,8.19,0,0,0,1-1.42,2.44,2.44,0,0,0,.29-1.09,1.79,1.79,0,0,0-.49-1.32,1.82,1.82,0,0,0-1.35-.49,1.88,1.88,0,0,0-1.43.57,2,2,0,0,0-.55,1.47h-.72a2.82,2.82,0,0,1,.34-1.35,2.37,2.37,0,0,1,1-1,2.86,2.86,0,0,1,1.41-.35,2.68,2.68,0,0,1,1.89.64,2.25,2.25,0,0,1,.68,1.72,2.92,2.92,0,0,1-.39,1.35,9.43,9.43,0,0,1-1.34,1.82l-2.46,2.77h4.62Z" transform="translate(-33.33 -64.04)"/><path class="cls-6" d="M679.82,208.68l-2-.65.19-.61,2,.75,0-2.23h.63l0,2.24,2-.76.2.61-2,.69,1.34,1.78-.51.38L680.26,209,679,210.86l-.52-.36Z" transform="translate(-33.33 -64.04)"/><path class="cls-6" d="M692,211.06a4.89,4.89,0,0,1-.68,2.82,2.3,2.3,0,0,1-2,1,2.34,2.34,0,0,1-2-.94,4.7,4.7,0,0,1-.71-2.75v-1.57a4.75,4.75,0,0,1,.69-2.81,2.59,2.59,0,0,1,4,0,4.52,4.52,0,0,1,.71,2.71Zm-.72-1.58a4.39,4.39,0,0,0-.49-2.28,1.66,1.66,0,0,0-1.49-.77,1.65,1.65,0,0,0-1.47.75,4.2,4.2,0,0,0-.51,2.23v1.73a4.29,4.29,0,0,0,.51,2.3,1.78,1.78,0,0,0,2.94,0,4.29,4.29,0,0,0,.51-2.29Z" transform="translate(-33.33 -64.04)"/><path class="cls-6" d="M693.54,216.37l-.43-.32a2.66,2.66,0,0,0,.57-1.53v-.93h.7v.75A2.63,2.63,0,0,1,693.54,216.37Z" transform="translate(-33.33 -64.04)"/><path class="cls-6" d="M697.55,209.94h.74a2.61,2.61,0,0,0,1.09-.22,1.64,1.64,0,0,0,.71-.61,1.61,1.61,0,0,0,.24-.88,1.82,1.82,0,0,0-.47-1.32,1.86,1.86,0,0,0-1.37-.48,2,2,0,0,0-1.39.5,1.7,1.7,0,0,0-.54,1.31h-.72a2.31,2.31,0,0,1,.34-1.24,2.37,2.37,0,0,1,1-.88,3.06,3.06,0,0,1,1.36-.31,2.61,2.61,0,0,1,1.88.66,2.33,2.33,0,0,1,.69,1.78,1.93,1.93,0,0,1-.4,1.17,2.44,2.44,0,0,1-1.1.8,2.27,2.27,0,0,1,1.24.79,2.13,2.13,0,0,1,.42,1.33,2.38,2.38,0,0,1-.73,1.82,2.78,2.78,0,0,1-2,.68,3.24,3.24,0,0,1-1.44-.31,2.38,2.38,0,0,1-1-.88,2.36,2.36,0,0,1-.35-1.31h.72a1.77,1.77,0,0,0,.58,1.37,2.18,2.18,0,0,0,1.51.52,2,2,0,0,0,1.45-.48,1.79,1.79,0,0,0,.53-1.39,1.63,1.63,0,0,0-.57-1.34,2.55,2.55,0,0,0-1.66-.47h-.72Z" transform="translate(-33.33 -64.04)"/><path class="cls-6" d="M708,208.2a2,2,0,0,1-.4,1.22,2.3,2.3,0,0,1-1.05.79,2.68,2.68,0,0,1,1.22.84,2.15,2.15,0,0,1,.46,1.34,2.24,2.24,0,0,1-.77,1.79,3.47,3.47,0,0,1-4.06,0,2.26,2.26,0,0,1-.77-1.8,2.17,2.17,0,0,1,.44-1.33,2.54,2.54,0,0,1,1.21-.85,2.22,2.22,0,0,1-1-.79,2.1,2.1,0,0,1-.38-1.22,2.24,2.24,0,0,1,.7-1.74,3,3,0,0,1,3.73,0A2.24,2.24,0,0,1,708,208.2Zm-.5,4.2a1.73,1.73,0,0,0-.58-1.35,2.39,2.39,0,0,0-3,0,1.88,1.88,0,0,0,0,2.7,2.59,2.59,0,0,0,3,0A1.71,1.71,0,0,0,707.47,212.4Zm-.23-4.21a1.68,1.68,0,0,0-.52-1.26,1.86,1.86,0,0,0-1.33-.5,1.82,1.82,0,0,0-1.33.49,1.67,1.67,0,0,0-.51,1.27,1.63,1.63,0,0,0,.51,1.25,1.92,1.92,0,0,0,1.34.47,1.89,1.89,0,0,0,1.33-.48A1.61,1.61,0,0,0,707.24,208.19Z" transform="translate(-33.33 -64.04)"/><path class="cls-6" d="M668.49,268.34a7.81,7.81,0,0,1-1.11,4.56,4.17,4.17,0,0,1-6.48,0,7.47,7.47,0,0,1-1.15-4.44v-2.55a7.72,7.72,0,0,1,1.11-4.54,4.2,4.2,0,0,1,6.47-.06,7.42,7.42,0,0,1,1.16,4.39Zm-1.18-2.55a6.93,6.93,0,0,0-.79-3.69,2.94,2.94,0,0,0-4.79,0,6.61,6.61,0,0,0-.82,3.6v2.8a6.93,6.93,0,0,0,.82,3.72,2.68,2.68,0,0,0,2.4,1.29,2.64,2.64,0,0,0,2.37-1.26,6.89,6.89,0,0,0,.81-3.7Z" transform="translate(-33.33 -64.04)"/><path class="cls-6" d="M670.94,276.92l-.7-.5a4.23,4.23,0,0,0,.92-2.48v-1.51h1.14v1.22A4.18,4.18,0,0,1,670.94,276.92Z" transform="translate(-33.33 -64.04)"/><path class="cls-6" d="M683.4,268.34a7.81,7.81,0,0,1-1.11,4.56,3.72,3.72,0,0,1-3.25,1.56,3.77,3.77,0,0,1-3.23-1.53,7.54,7.54,0,0,1-1.15-4.44v-2.55a7.72,7.72,0,0,1,1.11-4.54,3.76,3.76,0,0,1,3.25-1.55,3.8,3.8,0,0,1,3.23,1.49,7.49,7.49,0,0,1,1.15,4.39Zm-1.17-2.55a6.92,6.92,0,0,0-.8-3.69,2.94,2.94,0,0,0-4.79,0,6.7,6.7,0,0,0-.82,3.6v2.8a6.93,6.93,0,0,0,.82,3.72,2.68,2.68,0,0,0,2.4,1.29,2.64,2.64,0,0,0,2.37-1.26,7,7,0,0,0,.82-3.7Z" transform="translate(-33.33 -64.04)"/><path class="cls-6" d="M694.67,260.72l-6.08,13.55h-1.22l6-13.23h-8.09v-1h9.35Z" transform="translate(-33.33 -64.04)"/><line class="cls-9" x1="625.24" y1="155.59" x2="625.24" y2="192.52"/><circle class="cls-10" cx="821.08" cy="204.2" r="23.61"/><circle class="cls-11" cx="821.08" cy="204.2" r="9.02"/><path class="cls-6" d="M876.32,311.31a115.8,115.8,0,0,1-16,2.09c-2.69.14-5.38.27-8.07.17l-4-.08c-1.35,0-2.69-.18-4-.26a114.05,114.05,0,0,1-31.51-6.83,120,120,0,0,1-28.51-15.18,123.47,123.47,0,0,1-23.32-22.41l-.45-.56.45-.57a118.07,118.07,0,0,1,145.36-33.17,117.41,117.41,0,0,1,41,33.73,119.91,119.91,0,0,0-41.46-32.72,117.06,117.06,0,0,0-25-8.65A121.85,121.85,0,0,0,854.41,224a117.13,117.13,0,0,0-51.16,11.88,118.54,118.54,0,0,0-40.93,32.91v-1.13a122.06,122.06,0,0,0,22.88,22.19,118.6,118.6,0,0,0,28,15.35c1.22.53,2.5.92,3.76,1.36l3.8,1.28,3.86,1.06c1.29.34,2.57.74,3.88,1,2.62.53,5.22,1.19,7.87,1.54l4,.62c1.33.16,2.66.27,4,.41s2.66.31,4,.34l4,.16c2.68.16,5.36.09,8,0A122.42,122.42,0,0,0,876.32,311.31Z" transform="translate(-33.33 -64.04)"/><circle class="cls-10" cx="1049.99" cy="126.96" r="23.61"/><circle class="cls-11" cx="1049.99" cy="126.96" r="9.02"/><path class="cls-6" d="M1105.23,234.06a108.73,108.73,0,0,1-32.21,3.32,113.37,113.37,0,0,1-32.22-6,118.25,118.25,0,0,1-29.46-15,123.4,123.4,0,0,1-24.24-22.71L985,191.07l2.12-2.76a119.09,119.09,0,0,1,96.22-46.44,116.38,116.38,0,0,1,52.74,13.54A111.79,111.79,0,0,1,1176.13,191a126.37,126.37,0,0,0-42.37-30.86A120.09,120.09,0,0,0,1083.32,150a117.23,117.23,0,0,0-89.4,43.74v-5.38a123.37,123.37,0,0,0,22,21.9,122.09,122.09,0,0,0,27,15.55c1.19.56,2.43,1,3.65,1.44l3.69,1.36,3.76,1.15c1.26.38,2.51.81,3.79,1.08,2.56.6,5.1,1.33,7.7,1.77l3.89.75c1.31.2,2.62.35,3.93.54s2.62.4,3.94.47l4,.3c2.65.27,5.31.32,8,.34A132.47,132.47,0,0,0,1105.23,234.06Z" transform="translate(-33.33 -64.04)"/><line class="cls-12" x1="856.92" y1="179.36" x2="856.92" y2="194.2"/><line class="cls-12" x1="821.08" y1="154.38" x2="821.08" y2="163.55"/><line class="cls-13" x1="821.08" y1="179.36" x2="856.92" y2="179.36"/><line class="cls-13" x1="821.08" y1="194.2" x2="856.92" y2="194.2"/><path class="cls-14" d="M899.3,255.24h-.73v-8l-2.4.89v-.67l3-1.12h.12Z" transform="translate(-33.33 -64.04)"/><path class="cls-14" d="M862.25,210.89a4.88,4.88,0,0,1-.69,2.84,2.33,2.33,0,0,1-2,1,2.36,2.36,0,0,1-2-.95,4.77,4.77,0,0,1-.71-2.77V209.4a4.81,4.81,0,0,1,.69-2.82,2.61,2.61,0,0,1,4,0,4.62,4.62,0,0,1,.72,2.72Zm-.73-1.58A4.28,4.28,0,0,0,861,207a1.82,1.82,0,0,0-3,0,4.19,4.19,0,0,0-.51,2.24V211a4.3,4.3,0,0,0,.51,2.31,1.65,1.65,0,0,0,1.49.8,1.63,1.63,0,0,0,1.47-.78,4.32,4.32,0,0,0,.51-2.29Z" transform="translate(-33.33 -64.04)"/><path class="cls-14" d="M863.77,216.22l-.43-.31a2.62,2.62,0,0,0,.57-1.54v-.94h.71v.76A2.63,2.63,0,0,1,863.77,216.22Z" transform="translate(-33.33 -64.04)"/><path class="cls-14" d="M870.47,205.68v.63h-.09a3.32,3.32,0,0,0-2.49.93,3.89,3.89,0,0,0-1,2.59,2.53,2.53,0,0,1,.93-.78,2.91,2.91,0,0,1,1.26-.27,2.29,2.29,0,0,1,1.85.8,3.13,3.13,0,0,1,.69,2.1,3.7,3.7,0,0,1-.32,1.55,2.44,2.44,0,0,1-.92,1.08,2.47,2.47,0,0,1-1.37.39,2.6,2.6,0,0,1-2.06-.92,3.53,3.53,0,0,1-.8-2.38v-.73a5.6,5.6,0,0,1,1.08-3.67,3.79,3.79,0,0,1,3.06-1.32ZM869,209.41a2.21,2.21,0,0,0-1.29.4,2,2,0,0,0-.8,1v.62a2.9,2.9,0,0,0,.59,1.88,1.91,1.91,0,0,0,1.54.73,1.66,1.66,0,0,0,1.37-.68,2.65,2.65,0,0,0,.53-1.69,2.51,2.51,0,0,0-.53-1.67A1.74,1.74,0,0,0,869,209.41Z" transform="translate(-33.33 -64.04)"/><path class="cls-14" d="M876.45,214.57h-.73v-7.95l-2.4.89v-.68l3-1.12h.12Z" transform="translate(-33.33 -64.04)"/><path class="cls-14" d="M885.16,208a2.1,2.1,0,0,1-.4,1.23,2.34,2.34,0,0,1-1.06.79,2.65,2.65,0,0,1,1.23.85,2.11,2.11,0,0,1,.46,1.34,2.26,2.26,0,0,1-.77,1.8,3.46,3.46,0,0,1-4.09,0,2.26,2.26,0,0,1-.77-1.8,2.17,2.17,0,0,1,.45-1.34,2.5,2.5,0,0,1,1.21-.85,2.23,2.23,0,0,1-1-.79A2.09,2.09,0,0,1,880,208a2.23,2.23,0,0,1,.71-1.75,3,3,0,0,1,3.74,0A2.22,2.22,0,0,1,885.16,208Zm-.5,4.22a1.77,1.77,0,0,0-.59-1.36,2.16,2.16,0,0,0-1.5-.53,2.21,2.21,0,0,0-1.5.52,1.75,1.75,0,0,0-.58,1.37,1.68,1.68,0,0,0,.56,1.34,2.58,2.58,0,0,0,3,0A1.72,1.72,0,0,0,884.66,212.24Zm-.23-4.23a1.7,1.7,0,0,0-.52-1.26,1.87,1.87,0,0,0-1.34-.51,1.84,1.84,0,0,0-1.34.49,1.68,1.68,0,0,0-.51,1.28,1.61,1.61,0,0,0,.51,1.25,2.15,2.15,0,0,0,2.68,0A1.62,1.62,0,0,0,884.43,208Z" transform="translate(-33.33 -64.04)"/></svg>