<?xml version="1.0" encoding="utf-8"?>
<!-- Generator: Adobe Illustrator 22.1.0, SVG Export Plug-In . SVG Version: 6.00 Build 0)  -->
<svg version="1.1" id="Camada_1" xmlns="http://www.w3.org/2000/svg" xmlns:xlink="http://www.w3.org/1999/xlink" x="0px" y="0px"
	 viewBox="0 0 1920 577.5" style="enable-background:new 0 0 1920 577.5;" xml:space="preserve">
<style type="text/css">
	.st0{fill:none;stroke:#BF0811;stroke-width:2;stroke-miterlimit:10;}
	.st1{fill:none;stroke:#FFFFFF;stroke-width:2;stroke-miterlimit:10;}
	.st2{fill:none;stroke:#BF0811;stroke-width:3;stroke-linecap:round;stroke-miterlimit:10;}
	.st3{fill:none;stroke:#FFFFFF;stroke-width:2;stroke-miterlimit:10;stroke-dasharray:12.05,12.05;}
	.st4{fill:none;stroke:#FFFFFF;stroke-width:2;stroke-miterlimit:10;stroke-dasharray:11.99,11.99;}
	.st5{fill:#BF0811;stroke:#BF0811;stroke-width:3;stroke-miterlimit:10;}
	.st6{fill:none;stroke:#FEEE00;stroke-width:2;stroke-miterlimit:10;}
	.st7{fill:#BF0811;}
	.st8{fill:#FEEE00;}
	.st9{fill:none;stroke:#FFFFFF;stroke-width:2;stroke-miterlimit:10;stroke-dasharray:11.6,11.6;}
	.st10{fill:none;stroke:#FFFFFF;stroke-width:2;stroke-miterlimit:10;stroke-dasharray:12.17,12.17;}
	.st11{fill:none;stroke:#FFFFFF;stroke-miterlimit:10;}
	.st12{fill:#FFFFFF;}
</style>
<title>fibonacci1</title>
<line class="st0" x1="283" y1="74.7" x2="308.6" y2="74.7"/>
<rect x="178.7" y="404.8" class="st1" width="151.8" height="151.8"/>
<rect x="178.7" y="310.9" class="st1" width="93.8" height="93.8"/>
<rect x="272.5" y="310.9" class="st1" width="58" height="58"/>
<rect x="294.6" y="368.9" class="st1" width="35.8" height="35.8"/>
<rect x="272.5" y="382.6" class="st1" width="22.2" height="22.1"/>
<path class="st1" d="M178.7,404.8L178.7,404.8L178.7,404.8h151.8l0,0v151.8l0,0l0,0C246.6,556.6,178.7,488.6,178.7,404.8z"/>
<path class="st1" d="M178.7,404.7L178.7,404.7c0-51.8,42-93.8,93.8-93.8l0,0l0,0l0,0v93.8l0,0H178.7L178.7,404.7z"/>
<path class="st1" d="M272.5,368.9v-58l0,0l0,0c32,0,58,26,58,58l0,0l0,0l0,0H272.5L272.5,368.9z"/>
<path class="st1" d="M294.6,404.7v-35.8l0,0h35.8l0,0l0,0C330.5,388.7,314.4,404.7,294.6,404.7L294.6,404.7L294.6,404.7L294.6,404.7
	z"/>
<path class="st1" d="M272.5,382.6L272.5,382.6L272.5,382.6h22.2l0,0v22.1l0,0l0,0C282.4,404.7,272.5,394.8,272.5,382.6L272.5,382.6z
	"/>
<rect x="564.3" y="404.8" class="st1" width="151.8" height="151.8"/>
<rect x="564.3" y="310.9" class="st1" width="93.8" height="93.8"/>
<rect x="658.1" y="310.9" class="st1" width="58" height="58"/>
<rect x="680.2" y="368.9" class="st1" width="35.8" height="35.8"/>
<rect x="658.1" y="382.6" class="st1" width="22.2" height="22.2"/>
<path class="st1" d="M564.3,404.8L564.3,404.8L564.3,404.8h151.8l0,0v151.8l0,0l0,0C632.2,556.6,564.3,488.6,564.3,404.8z"/>
<path class="st1" d="M564.3,404.7L564.3,404.7c0-51.8,42-93.8,93.8-93.8l0,0l0,0l0,0v93.8l0,0H564.3L564.3,404.7z"/>
<path class="st1" d="M658.1,368.9v-58l0,0l0,0c32,0,58,26,58,58l0,0l0,0l0,0H658.1L658.1,368.9z"/>
<path class="st1" d="M680.2,404.7v-35.8l0,0H716l0,0l0,0C716.1,388.7,700,404.7,680.2,404.7L680.2,404.7L680.2,404.7L680.2,404.7z"
	/>
<path class="st1" d="M658.1,382.6L658.1,382.6L658.1,382.6h22.2l0,0v22.1l0,0l0,0C668,404.7,658.1,394.8,658.1,382.6z"/>
<rect x="412.5" y="404.7" class="st1" width="151.8" height="151.8"/>
<rect x="470.5" y="310.9" class="st1" width="93.8" height="93.8"/>
<rect x="412.5" y="310.9" class="st1" width="58" height="58"/>
<rect x="412.5" y="368.9" class="st1" width="35.8" height="35.8"/>
<rect x="448.3" y="382.6" class="st1" width="22.2" height="22.1"/>
<path class="st1" d="M412.5,556.6V404.7l0,0h151.8l0,0l0,0C564.3,488.6,496.3,556.5,412.5,556.6L412.5,556.6L412.5,556.6
	L412.5,556.6z"/>
<path class="st1" d="M470.5,404.8V311l0,0l0,0c51.8,0,93.8,42,93.8,93.8l0,0l0,0l0,0H470.5L470.5,404.8z"/>
<path class="st1" d="M412.5,368.9L412.5,368.9c0-32,26-58,58-58l0,0l0,0l0,0v58l0,0H412.5L412.5,368.9z"/>
<path class="st1" d="M412.5,368.9L412.5,368.9L412.5,368.9h35.8l0,0v35.8l0,0l0,0C428.5,404.8,412.5,388.7,412.5,368.9L412.5,368.9z
	"/>
<path class="st1" d="M448.3,404.8v-22.1l0,0h22.2l0,0l0,0C470.4,394.8,460.5,404.8,448.3,404.8L448.3,404.8L448.3,404.8L448.3,404.8
	z"/>
<rect x="852.1" y="404.8" class="st1" width="151.8" height="151.8"/>
<rect x="852.1" y="310.9" class="st1" width="93.8" height="93.8"/>
<rect x="946" y="310.9" class="st1" width="58" height="58"/>
<rect x="968.1" y="368.9" class="st1" width="35.8" height="35.8"/>
<rect x="946" y="382.6" class="st1" width="22.2" height="22.2"/>
<path class="st1" d="M852.1,404.8L852.1,404.8L852.1,404.8h151.8l0,0v151.8l0,0l0,0C920.1,556.6,852.1,488.6,852.1,404.8z"/>
<path class="st1" d="M852.1,404.7L852.1,404.7c0-51.8,42-93.8,93.8-93.9l0,0l0,0l0,0v93.9l0,0H852.1L852.1,404.7z"/>
<path class="st1" d="M946,368.9v-58l0,0l0,0c32,0,58,26,58,58l0,0l0,0l0,0H946L946,368.9z"/>
<path class="st1" d="M968.1,404.7v-35.8l0,0h35.8l0,0l0,0C1003.9,388.7,987.9,404.7,968.1,404.7L968.1,404.7L968.1,404.7
	L968.1,404.7z"/>
<path class="st1" d="M946,382.6L946,382.6L946,382.6h22.2l0,0v22.1l0,0l0,0C955.9,404.7,946,394.8,946,382.6z"/>
<rect x="794.1" y="404.8" class="st1" width="151.8" height="151.8"/>
<rect x="852.1" y="310.9" class="st1" width="93.8" height="93.8"/>
<rect x="794.1" y="310.9" class="st1" width="58" height="58"/>
<rect x="794.1" y="368.9" class="st1" width="35.8" height="35.8"/>
<rect x="830" y="382.6" class="st1" width="22.2" height="22.2"/>
<path class="st1" d="M794.1,556.6V404.7l0,0h151.8l0,0l0,0C945.9,488.5,878,556.5,794.1,556.6L794.1,556.6L794.1,556.6z"/>
<path class="st1" d="M852.1,404.7v-93.9l0,0l0,0c51.8,0,93.8,42,93.8,93.8l0,0l0,0l0,0L852.1,404.7L852.1,404.7z"/>
<path class="st1" d="M794.1,368.9L794.1,368.9c0-32,26-58,58-58l0,0l0,0l0,0v58l0,0H794.1L794.1,368.9z"/>
<path class="st1" d="M794.1,368.9L794.1,368.9L794.1,368.9H830l0,0v35.9l0,0l0,0C810.2,404.8,794.1,388.7,794.1,368.9L794.1,368.9z"
	/>
<path class="st1" d="M830,404.7v-22.2l0,0h22.2l0,0l0,0C852.1,394.8,842.2,404.7,830,404.7L830,404.7L830,404.7L830,404.7z"/>
<rect x="1140" y="404.8" class="st1" width="151.8" height="151.8"/>
<rect x="1140" y="310.9" class="st1" width="93.8" height="93.8"/>
<rect x="1233.8" y="310.9" class="st1" width="58" height="58"/>
<rect x="1256" y="368.9" class="st1" width="35.8" height="35.8"/>
<rect x="1233.8" y="382.6" class="st1" width="22.2" height="22.2"/>
<path class="st1" d="M1140,404.8L1140,404.8L1140,404.8h151.8l0,0v151.8l0,0l0,0C1208,556.6,1140,488.6,1140,404.8z"/>
<path class="st1" d="M1140,404.7L1140,404.7c0-51.8,42-93.8,93.8-93.8l0,0l0,0v93.8l0,0H1140L1140,404.7z"/>
<path class="st1" d="M1233.8,368.9v-58l0,0l0,0c32,0,58,26,58,58l0,0l0,0l0,0H1233.8L1233.8,368.9z"/>
<path class="st1" d="M1256,404.7v-35.8l0,0h35.8l0,0l0,0C1291.8,388.7,1275.8,404.7,1256,404.7L1256,404.7L1256,404.7z"/>
<path class="st1" d="M1233.8,382.6L1233.8,382.6L1233.8,382.6h22.1l0,0v22.2l0,0l0,0C1243.7,404.7,1233.8,394.8,1233.8,382.6
	L1233.8,382.6z"/>
<rect x="1082" y="404.7" class="st1" width="151.8" height="151.8"/>
<rect x="1140" y="310.9" class="st1" width="93.8" height="93.8"/>
<rect x="1082" y="310.9" class="st1" width="58" height="58"/>
<rect x="1082" y="368.9" class="st1" width="35.8" height="35.8"/>
<rect x="1117.8" y="382.6" class="st1" width="22.2" height="22.2"/>
<path class="st1" d="M1082,556.6V404.8l0,0h151.8l0,0l0,0C1233.8,488.6,1165.8,556.6,1082,556.6L1082,556.6L1082,556.6L1082,556.6z"
	/>
<path class="st1" d="M1140,404.7v-93.8l0,0l0,0c51.8,0,93.8,42,93.8,93.8l0,0l0,0H1140L1140,404.7z"/>
<path class="st1" d="M1082,368.9L1082,368.9c0-32,26-58,58-58l0,0l0,0l0,0v58l0,0H1082L1082,368.9z"/>
<path class="st1" d="M1082,368.9L1082,368.9L1082,368.9h35.8l0,0v35.8l0,0l0,0C1098,404.8,1082,388.7,1082,368.9z"/>
<path class="st1" d="M1117.8,404.7v-22.2l0,0h22.1l0,0l0,0C1140,394.8,1130.1,404.7,1117.8,404.7L1117.8,404.7L1117.8,404.7
	L1117.8,404.7z"/>
<path class="st2" d="M1291.8,368.9c0,57.6-104.9,145.6-104.9,145.6S1082,426.9,1082,368.9"/>
<line class="st1" x1="1186.9" y1="310.9" x2="1192.9" y2="310.9"/>
<line class="st3" x1="1204.9" y1="310.9" x2="1415.8" y2="310.9"/>
<line class="st1" x1="1421.8" y1="310.9" x2="1427.8" y2="310.9"/>
<line class="st1" x1="1186.9" y1="514.5" x2="1192.9" y2="514.5"/>
<line class="st4" x1="1204.9" y1="514.5" x2="1462.8" y2="514.5"/>
<line class="st1" x1="1468.8" y1="514.5" x2="1474.8" y2="514.5"/>
<path class="st5" d="M1579.7,368.9c0,0.3,0,0.7,0,1c-0.2,10.8-4.1,22.7-10.2,34.8c-11.2,22.2-29.9,45.3-47.8,64.6
	c-14.8,15.9-30.4,30.9-46.8,45l-0.1,0.1l0,0l0,0c-16.5-14.1-32.1-29.1-46.9-45c-17.9-19.3-36.7-42.4-47.9-64.8
	c-6.1-12.1-9.9-24-10.1-34.8v-1c0-32,26-58,58-58c16.5,0,32.7,4.3,46.9,12.5c14.3-8.2,30.4-12.6,46.9-12.5
	C1553.8,310.9,1579.7,336.8,1579.7,368.9L1579.7,368.9z"/>
<circle class="st1" cx="254.6" cy="74.7" r="54"/>
<line class="st0" x1="553.4" y1="67.8" x2="579" y2="67.8"/>
<ellipse class="st1" cx="524.9" cy="67.8" rx="54" ry="54"/>
<circle class="st1" cx="607.5" cy="67.8" r="54"/>
<line class="st0" x1="687.7" y1="121.9" x2="687.7" y2="188.7"/>
<line class="st6" x1="687.7" y1="13.8" x2="687.7" y2="121.9"/>
<path class="st0" d="M661.5,67.8c0,72.5-95.3,120.8-95.3,120.8s-95.3-48.3-95.3-120.8"/>
<path class="st7" d="M989.3,72.6c0,0.5,0,0.9,0,1.4c-1.3,71.7-95.4,119.4-95.4,119.4S799.8,145.7,798.6,74c0-0.5,0-0.9,0-1.4
	c-0.1-29.8,24.1-54,53.9-54.1c16,0,31.1,7,41.4,19.2c19.2-22.8,53.3-25.8,76.1-6.6C982.3,41.4,989.3,56.6,989.3,72.6L989.3,72.6z"/>
<path class="st7" d="M235,66.1h-11.7v-1.6l6.2-6.8c0.7-0.8,1.3-1.6,1.9-2.5c0.3-0.6,0.5-1.3,0.5-2c0-0.8-0.3-1.7-0.8-2.3
	c-0.6-0.6-1.4-0.9-2.3-0.9c-1,0-1.9,0.3-2.6,1c-0.7,0.7-1,1.7-0.9,2.7H223c-0.1-1.5,0.5-3,1.6-4c1.2-1,2.7-1.6,4.2-1.5
	c1.4-0.1,2.8,0.4,3.9,1.3c1,0.9,1.5,2.2,1.4,3.5c0,1.8-1.1,3.8-3.3,6.3l-4.8,5.2h8.9L235,66.1z"/>
<path class="st7" d="M240.6,56.1h1.7c0.9,0,1.8-0.3,2.5-0.8c0.6-0.6,1-1.4,0.9-2.2c0-2.1-1-3.1-3.1-3.1c-0.9,0-1.7,0.3-2.3,0.8
	c-0.6,0.6-0.9,1.4-0.9,2.2h-2.3c0-1.3,0.5-2.6,1.5-3.5c2.3-1.8,5.5-1.9,7.9-0.1c1,1,1.5,2.3,1.4,3.7c0,0.8-0.3,1.6-0.8,2.3
	s-1.2,1.3-2,1.6c0.9,0.3,1.7,0.8,2.3,1.5c0.5,0.8,0.8,1.7,0.8,2.6c0.1,1.4-0.5,2.8-1.6,3.8s-2.6,1.5-4.1,1.4
	c-1.5,0.1-2.9-0.4-4.1-1.4c-1-0.9-1.6-2.2-1.6-3.6h2.3c0,0.8,0.3,1.7,0.9,2.3c0.7,0.6,1.6,0.9,2.5,0.8c0.9,0.1,1.8-0.2,2.5-0.9
	c0.6-0.7,0.9-1.6,0.9-2.5s-0.3-1.8-1-2.4c-0.8-0.6-1.8-0.9-2.7-0.8h-1.7L240.6,56.1z"/>
<path class="st7" d="M251.6,69.7l-1.3-0.9c0.7-1,1.1-2.1,1.2-3.3v-2h2.2v1.8c0,0.9-0.2,1.7-0.6,2.5
	C252.7,68.5,252.2,69.1,251.6,69.7z"/>
<path class="st7" d="M265.2,48.4v1.9h-0.4c-1.5,0-3.1,0.5-4.2,1.6c-1.1,1.1-1.8,2.7-1.8,4.3c1-1.1,2.4-1.7,3.8-1.6
	c1.4-0.1,2.8,0.6,3.7,1.6c1.9,2.6,1.8,6.1-0.1,8.6c-1,1.1-2.5,1.7-4,1.6c-1.6,0-3.2-0.7-4.1-2c-1.1-1.4-1.7-3.2-1.6-5v-0.9
	c0-3.3,0.7-5.8,2.1-7.5c1.6-1.8,3.9-2.8,6.2-2.7L265.2,48.4z M262.2,56.4c-0.8,0-1.5,0.2-2.1,0.7c-0.6,0.4-1.1,1-1.4,1.7v0.8
	c-0.1,1.3,0.3,2.5,1,3.5c0.5,0.8,1.5,1.3,2.5,1.4c0.9,0,1.8-0.4,2.4-1.1c1.2-1.8,1.2-4.1,0-5.9C264,56.7,263.1,56.3,262.2,56.4
	L262.2,56.4z"/>
<path class="st7" d="M270.1,51.8c0-1,0.3-1.9,1-2.6c1.5-1.4,3.8-1.4,5.3,0c0.7,0.7,1,1.7,1,2.7v0.9c0.1,1.9-1.4,3.6-3.3,3.6
	c-0.1,0-0.2,0-0.3,0c-1,0-1.9-0.3-2.6-1c-0.7-0.7-1.1-1.7-1-2.7L270.1,51.8z M271.8,52.7c0,0.6,0.2,1.1,0.5,1.6
	c0.4,0.4,0.9,0.6,1.4,0.6s1-0.2,1.4-0.6c0.4-0.5,0.6-1,0.5-1.6v-0.9c0-0.6-0.2-1.1-0.5-1.6c-0.7-0.8-2-0.8-2.7-0.1l-0.1,0.1
	c-0.4,0.5-0.6,1-0.5,1.6L271.8,52.7L271.8,52.7z M274.3,64.8L273,64l8.7-13.9l1.3,0.8L274.3,64.8z M278.8,61.8c0-1,0.3-1.9,1-2.6
	c1.5-1.4,3.8-1.4,5.3,0c0.7,0.7,1.1,1.7,1,2.7v0.9c0,1-0.3,1.9-1,2.6c-0.7,0.7-1.6,1-2.6,1s-1.9-0.3-2.6-1c-0.7-0.7-1.1-1.7-1-2.7
	L278.8,61.8z M280.5,62.8c0,0.6,0.2,1.1,0.5,1.6c0.8,0.8,2,0.8,2.8,0l0,0c0.4-0.5,0.6-1.1,0.5-1.6v-0.9c0-0.6-0.2-1.1-0.5-1.6
	c-0.4-0.4-0.9-0.6-1.4-0.6s-1.1,0.2-1.4,0.6c-0.4,0.5-0.6,1-0.5,1.6L280.5,62.8z"/>
<path class="st7" d="M703.2,153.3h1.7c0.9,0,1.8-0.3,2.5-0.8c0.6-0.6,1-1.4,0.9-2.2c0-2.1-1-3.1-3.1-3.1c-0.9,0-1.7,0.3-2.3,0.8
	c-0.6,0.6-0.9,1.4-0.9,2.2h-2.3c0-1.3,0.5-2.6,1.5-3.5c2.3-1.8,5.5-1.9,7.9-0.1c1,1,1.5,2.3,1.4,3.7c0,0.8-0.3,1.6-0.8,2.3
	c-0.5,0.7-1.2,1.3-2,1.6c0.9,0.3,1.7,0.8,2.3,1.5c0.5,0.8,0.8,1.7,0.8,2.6c0.1,1.4-0.5,2.8-1.6,3.8s-2.6,1.5-4.1,1.4
	c-1.5,0.1-2.9-0.4-4.1-1.4c-1-0.9-1.6-2.2-1.6-3.6h2.3c0,0.8,0.3,1.7,0.9,2.3c0.7,0.6,1.6,0.9,2.5,0.8c0.9,0.1,1.8-0.2,2.5-0.9
	c0.6-0.7,0.9-1.6,0.9-2.5s-0.3-1.8-1-2.4c-0.8-0.6-1.8-0.9-2.8-0.9H703L703.2,153.3z"/>
<path class="st7" d="M724.7,150.1c0,0.8-0.2,1.7-0.7,2.4c-0.5,0.7-1.1,1.3-1.9,1.6c0.9,0.4,1.6,1,2.2,1.7c0.5,0.8,0.8,1.7,0.8,2.6
	c0.1,1.4-0.5,2.8-1.6,3.7c-2.4,1.8-5.8,1.8-8.2,0c-1-0.9-1.6-2.3-1.5-3.7c0-0.9,0.3-1.8,0.8-2.6c0.5-0.8,1.3-1.4,2.2-1.8
	c-0.8-0.4-1.4-0.9-1.9-1.6s-0.7-1.5-0.7-2.4c-0.1-1.3,0.5-2.6,1.4-3.6c2.2-1.8,5.4-1.8,7.6,0C724.2,147.5,724.8,148.8,724.7,150.1z
	 M722.9,158.4c0-0.9-0.3-1.8-0.9-2.4c-0.7-0.6-1.6-1-2.5-0.9c-1.8-0.1-3.3,1.2-3.4,3c0,0.1,0,0.3,0,0.4c0,0.9,0.3,1.7,0.9,2.4
	c1.5,1.2,3.5,1.2,5,0C722.6,160.1,722.9,159.3,722.9,158.4z M719.5,147.1c-0.8,0-1.6,0.3-2.2,0.8c-0.6,0.6-0.9,1.4-0.8,2.2
	c0,0.8,0.3,1.6,0.8,2.2c1.2,1.1,3.1,1.1,4.3,0c0.6-0.6,0.8-1.4,0.8-2.2c0-0.8-0.3-1.6-0.8-2.2C721,147.4,720.3,147.1,719.5,147.1
	L719.5,147.1z"/>
<path class="st7" d="M728.1,166.8l-1.3-0.9c0.7-0.9,1.1-2.1,1.2-3.3v-2h2.2v1.8c0,0.9-0.2,1.7-0.6,2.5
	C729.3,165.6,728.8,166.3,728.1,166.8z"/>
<path class="st7" d="M744.5,163.3h-11.7v-1.6l6.2-6.8c0.7-0.8,1.3-1.6,1.9-2.5c0.3-0.6,0.5-1.3,0.5-2c0-0.8-0.3-1.7-0.8-2.3
	c-0.6-0.6-1.4-0.9-2.3-0.9c-1,0-1.9,0.3-2.6,1c-0.7,0.7-1,1.7-0.9,2.7h-2.3c-0.1-1.5,0.5-3,1.6-4c1.2-1,2.7-1.6,4.2-1.5
	c1.4-0.1,2.8,0.4,3.9,1.3c1,0.9,1.5,2.2,1.4,3.5c0,1.8-1.1,3.8-3.3,6.3l-4.8,5.1h8.9L744.5,163.3z"/>
<path class="st7" d="M746.7,148.9c0-1,0.3-1.9,1-2.6s1.6-1,2.6-1c1-0.1,1.9,0.3,2.6,1c0.7,0.7,1,1.7,1,2.7v0.9
	c0.1,1.9-1.4,3.6-3.3,3.6c-0.1,0-0.2,0-0.3,0c-1.9,0.1-3.6-1.4-3.7-3.4c0-0.1,0-0.2,0-0.4L746.7,148.9z M748.4,149.9
	c0,0.6,0.2,1.1,0.5,1.6c0.4,0.4,0.9,0.6,1.4,0.6s1-0.2,1.4-0.6c0.4-0.5,0.6-1,0.5-1.6V149c0-0.6-0.2-1.1-0.5-1.6
	c-0.4-0.4-0.9-0.6-1.4-0.6s-1.1,0.2-1.4,0.6c-0.4,0.5-0.6,1-0.5,1.6V149.9z M750.9,161.9l-1.3-0.8l8.7-13.9l1.3,0.8L750.9,161.9z
	 M755.4,158.9c0-1,0.3-1.9,1-2.6c1.5-1.4,3.8-1.4,5.2,0c0.7,0.7,1.1,1.7,1,2.7v0.9c0,1-0.3,1.9-1,2.6s-1.6,1-2.6,1s-1.9-0.3-2.6-1
	c-0.7-0.7-1.1-1.7-1-2.7L755.4,158.9z M757.1,159.9c0,0.6,0.2,1.1,0.5,1.6c0.8,0.8,2,0.8,2.8,0l0,0c0.4-0.5,0.6-1.1,0.5-1.6V159
	c0-0.6-0.2-1.1-0.5-1.6c-0.4-0.4-0.9-0.6-1.4-0.6s-1.1,0.2-1.4,0.6c-0.4,0.5-0.6,1-0.5,1.6L757.1,159.9z"/>
<path class="st8" d="M708.8,59.3v1.9h-0.4c-1.6-0.1-3.1,0.5-4.2,1.6c-1.1,1.1-1.7,2.7-1.8,4.3c1-1.1,2.4-1.7,3.8-1.6
	c1.4-0.1,2.8,0.5,3.7,1.6c1.9,2.6,1.8,6.1-0.1,8.6c-1,1.1-2.5,1.7-4,1.6c-1.6,0-3.1-0.7-4.1-2c-1.1-1.4-1.7-3.2-1.6-5.1v-0.8
	c0-3.3,0.7-5.8,2.1-7.5c1.6-1.8,3.9-2.8,6.2-2.7L708.8,59.3z M705.8,67.3c-0.8,0-1.5,0.2-2.1,0.7c-0.6,0.4-1.1,1-1.4,1.7v0.8
	c-0.1,1.3,0.3,2.5,1,3.5c0.5,0.8,1.5,1.3,2.5,1.4c0.9,0,1.8-0.4,2.4-1.1c1.2-1.8,1.2-4.1,0-5.9C707.6,67.7,706.7,67.3,705.8,67.3
	L705.8,67.3z"/>
<path class="st8" d="M721.3,77.1H719V62l-4.5,1.7v-2l6.5-2.5h0.3V77.1z"/>
<path class="st8" d="M728.1,80.6l-1.3-0.9c0.7-1,1.1-2.1,1.2-3.3v-2h2.2v1.8c0,0.9-0.2,1.7-0.6,2.5
	C729.3,79.4,728.7,80.1,728.1,80.6z"/>
<path class="st8" d="M743.7,63.9c0,0.8-0.2,1.7-0.7,2.4c-0.5,0.7-1.1,1.3-1.9,1.6c0.9,0.4,1.6,1,2.2,1.7c0.5,0.8,0.8,1.7,0.8,2.6
	c0.1,1.4-0.5,2.8-1.6,3.7c-2.4,1.8-5.8,1.8-8.2,0c-1-0.9-1.6-2.3-1.5-3.7c0-0.9,0.3-1.8,0.8-2.6c0.5-0.8,1.3-1.4,2.2-1.8
	c-0.8-0.4-1.4-0.9-1.9-1.6s-0.7-1.5-0.7-2.4c-0.1-1.3,0.5-2.6,1.4-3.6c2.2-1.8,5.4-1.8,7.6,0C743.2,61.3,743.7,62.6,743.7,63.9z
	 M741.8,72.2c0-0.9-0.3-1.8-1-2.4s-1.6-1-2.5-0.9c-0.9,0-1.8,0.3-2.5,0.9c-0.6,0.7-1,1.5-0.9,2.4c0,0.9,0.3,1.7,0.9,2.4
	c1.5,1.2,3.5,1.2,5,0C741.5,74,741.9,73.1,741.8,72.2z M738.4,60.9c-0.8,0-1.6,0.3-2.2,0.8c-0.6,0.6-0.9,1.4-0.8,2.2
	c0,0.8,0.3,1.6,0.8,2.2c1.2,1.1,3.1,1.1,4.3,0c0.6-0.6,0.8-1.4,0.8-2.2c0-0.8-0.3-1.6-0.8-2.2C740,61.2,739.2,60.9,738.4,60.9z"/>
<path class="st8" d="M746.7,62.7c0-1,0.3-1.9,1-2.6s1.6-1,2.6-1c1-0.1,1.9,0.3,2.6,1c0.7,0.7,1,1.7,1,2.7v0.9c0,1-0.3,1.9-1,2.6
	s-1.6,1-2.6,1c-1.9,0.1-3.6-1.4-3.7-3.3c0-0.1,0-0.3,0-0.4v-0.9H746.7z M748.4,63.6c0,0.6,0.2,1.1,0.5,1.6c0.4,0.4,0.9,0.6,1.4,0.6
	s1-0.2,1.4-0.6c0.4-0.5,0.6-1,0.5-1.6v-0.9c0-0.6-0.2-1.1-0.5-1.6c-0.4-0.4-0.9-0.6-1.4-0.6s-1.1,0.2-1.4,0.6
	c-0.4,0.5-0.6,1-0.5,1.6V63.6z M750.9,75.7l-1.3-0.8l8.7-13.9l1.3,0.8L750.9,75.7z M755.4,72.7c0-1,0.3-1.9,1-2.6
	c1.5-1.4,3.8-1.4,5.2,0c0.7,0.7,1.1,1.7,1,2.7v0.9c0,1-0.3,1.9-1,2.6s-1.6,1-2.6,1s-1.9-0.3-2.6-1c-0.7-0.7-1.1-1.7-1-2.7
	L755.4,72.7z M757.1,73.7c0,0.6,0.2,1.1,0.5,1.6c0.8,0.8,2,0.8,2.8,0l0,0c0.4-0.5,0.6-1.1,0.5-1.6v-0.9c0-0.6-0.2-1.1-0.5-1.6
	c-0.4-0.4-0.9-0.6-1.4-0.6s-1.1,0.2-1.4,0.6c-0.4,0.5-0.6,1-0.5,1.6L757.1,73.7z"/>
<line class="st1" x1="687.7" y1="121.9" x2="681.7" y2="121.9"/>
<line class="st9" x1="670.1" y1="121.9" x2="536.7" y2="121.9"/>
<line class="st1" x1="530.9" y1="121.9" x2="524.9" y2="121.9"/>
<line class="st1" x1="687.7" y1="188.7" x2="681.7" y2="188.7"/>
<line class="st10" x1="669.5" y1="188.7" x2="578.3" y2="188.7"/>
<line class="st1" x1="572.2" y1="188.7" x2="566.2" y2="188.7"/>
<line class="st11" x1="470.9" y1="136.3" x2="470.9" y2="17.8"/>
<path class="st12" d="M474.6,136.1c0,2.1-1.7,3.8-3.8,3.8c-2.1,0-3.8-1.7-3.8-3.8c0-2.1,1.7-3.8,3.8-3.8
	C473,132.3,474.6,134,474.6,136.1L474.6,136.1z"/>
<path class="st12" d="M475.1,136.1c0-2.4-1.9-4.3-4.3-4.3s-4.3,1.9-4.3,4.3s1.9,4.3,4.3,4.3S475.1,138.4,475.1,136.1L475.1,136.1z
	 M467.6,136.1c0-1.8,1.5-3.3,3.3-3.3s3.3,1.5,3.3,3.3s-1.5,3.3-3.3,3.3S467.6,137.9,467.6,136.1L467.6,136.1z"/>
<path class="st12" d="M474.6,18c0-2.1-1.7-3.8-3.8-3.8c-2.1,0-3.8,1.7-3.8,3.8c0,2.1,1.7,3.8,3.8,3.8C473,21.8,474.6,20.1,474.6,18
	L474.6,18z"/>
<path class="st12" d="M475.1,18c0,2.4-1.9,4.3-4.3,4.3s-4.3-1.9-4.3-4.3s1.9-4.3,4.3-4.3S475.1,15.7,475.1,18L475.1,18z M467.6,18
	c0,1.8,1.5,3.3,3.3,3.3s3.3-1.5,3.3-3.3s-1.5-3.3-3.3-3.3S467.6,16.2,467.6,18L467.6,18z"/>
<line class="st11" x1="661.5" y1="136.3" x2="661.5" y2="17.8"/>
<path class="st12" d="M665.3,136.1c0,2.1-1.7,3.8-3.8,3.8s-3.8-1.7-3.8-3.8c0-2.1,1.7-3.8,3.8-3.8S665.3,134,665.3,136.1
	L665.3,136.1z"/>
<path class="st12" d="M665.8,136.1c0-2.4-1.9-4.3-4.3-4.3c-2.4,0-4.3,1.9-4.3,4.3s1.9,4.3,4.3,4.3S665.8,138.4,665.8,136.1
	L665.8,136.1z M658.3,136.1c0-1.8,1.5-3.3,3.3-3.3s3.3,1.5,3.3,3.3s-1.5,3.3-3.3,3.3C659.7,139.3,658.3,137.9,658.3,136.1
	L658.3,136.1z"/>
<path class="st12" d="M665.3,18c0-2.1-1.7-3.8-3.8-3.8s-3.8,1.7-3.8,3.8c0,2.1,1.7,3.8,3.8,3.8S665.3,20.1,665.3,18L665.3,18z"/>
<path class="st12" d="M665.8,18c0,2.4-1.9,4.3-4.3,4.3c-2.4,0-4.3-1.9-4.3-4.3s1.9-4.3,4.3-4.3S665.8,15.7,665.8,18L665.8,18z
	 M658.3,18c0,1.8,1.5,3.3,3.3,3.3s3.3-1.5,3.3-3.3s-1.5-3.3-3.3-3.3C659.7,14.8,658.3,16.2,658.3,18L658.3,18z"/>
</svg>
