<?xml version="1.0" encoding="utf-8"?>
<!-- Generator: Adobe Illustrator 22.1.0, SVG Export Plug-In . SVG Version: 6.00 Build 0)  -->
<svg version="1.1" id="Camada_1" xmlns="http://www.w3.org/2000/svg" xmlns:xlink="http://www.w3.org/1999/xlink" x="0px" y="0px"
	 viewBox="0 0 901.7 292.6" style="enable-background:new 0 0 901.7 292.6;" xml:space="preserve">
<style type="text/css">
	.st0{fill:none;stroke:#FFFFFF;stroke-linecap:round;stroke-linejoin:round;}
	.st1{fill:none;stroke:#FEEE00;stroke-linecap:round;stroke-linejoin:round;stroke-dasharray:13;}
	.st2{fill:#FEEE00;}
	.st3{fill:none;stroke:#FEEE00;stroke-linecap:round;stroke-linejoin:round;stroke-dasharray:12;}
	.st4{fill:none;stroke:#727176;stroke-linecap:round;stroke-linejoin:round;stroke-dasharray:12;}
</style>
<title>icon2</title>
<rect x="44.4" y="148.6" class="st0" width="71" height="71"/>
<rect x="0.5" y="33.8" class="st0" width="114.9" height="114.9"/>
<rect x="0.5" y="148.8" class="st0" width="27.1" height="27.1"/>
<rect x="0.5" y="176" class="st0" width="43.9" height="43.9"/>
<rect x="27.6" y="148.8" class="st0" width="16.8" height="16.8"/>
<rect x="34" y="165.8" class="st0" width="10.4" height="10.1"/>
<polyline class="st0" points="0.5,33.8 115.4,148.6 44.4,219.8 0.5,176 27.6,148.8 44.4,165.8 34,176 27.6,169.8 "/>
<line class="st1" x1="0.5" y1="21.2" x2="115.4" y2="21.2"/>
<path class="st2" d="M59,12.3h-1V1.3l-3.3,1.2v-1L58.9,0H59L59,12.3z"/>
<rect x="158.2" y="103.8" class="st0" width="87.8" height="185.9"/>
<line class="st3" x1="245.9" y1="103.8" x2="300.1" y2="103.8"/>
<path class="st2" d="M251,93.6c0.1,0.9-0.2,1.7-0.6,2.5c-0.4,0.6-1.1,0.9-1.8,0.8c-0.7,0-1.3-0.3-1.8-0.8c-0.4-0.7-0.7-1.6-0.6-2.4
	v-1.4c-0.1-0.9,0.2-1.7,0.6-2.4c0.8-1,2.3-1.1,3.2-0.3c0.1,0.1,0.2,0.2,0.3,0.3c0.4,0.7,0.7,1.5,0.6,2.4V93.6z M250.3,92.2
	c0-0.7-0.1-1.4-0.4-2c-0.5-0.7-1.5-0.9-2.2-0.4c-0.1,0.1-0.3,0.2-0.4,0.4c-0.3,0.6-0.5,1.3-0.4,1.9v1.5c0,0.7,0.1,1.4,0.4,2
	c0.3,0.5,0.8,0.7,1.3,0.7c0.5,0,1-0.2,1.3-0.7c0.3-0.6,0.5-1.3,0.4-2V92.2z"/>
<path class="st2" d="M252.4,96.4c0-0.1,0-0.2,0.1-0.3c0.1-0.1,0.2-0.1,0.3-0.1c0.1,0,0.2,0,0.3,0.1c0.1,0.1,0.1,0.2,0.1,0.3
	c0,0.1,0,0.2-0.1,0.3c-0.1,0.1-0.2,0.1-0.3,0.1C252.6,96.8,252.4,96.7,252.4,96.4C252.3,96.4,252.3,96.4,252.4,96.4L252.4,96.4z"/>
<path class="st2" d="M259.7,96.8h-4.8v-0.5l2.6-3c0.3-0.4,0.6-0.8,0.9-1.2c0.2-0.3,0.3-0.7,0.3-1c0-0.4-0.1-0.8-0.4-1.1
	c-0.3-0.3-0.7-0.4-1.2-0.4c-0.5,0-1,0.2-1.3,0.6c-0.3,0.3-0.5,0.8-0.5,1.3h-0.6c0-0.4,0.1-0.8,0.3-1.2c0.2-0.4,0.5-0.6,0.8-0.8
	c0.4-0.2,0.8-0.3,1.2-0.3c0.6,0,1.2,0.2,1.6,0.6c0.4,0.4,0.6,0.9,0.6,1.5c0,0.4-0.1,0.8-0.3,1.2c-0.3,0.6-0.7,1.1-1.2,1.6l-2.1,2.4
	h4L259.7,96.8z"/>
<path class="st2" d="M262.3,92.6h0.7c0.3,0,0.7-0.1,1-0.2c0.3-0.1,0.5-0.3,0.6-0.5c0.1-0.2,0.2-0.5,0.2-0.8c0-0.4-0.1-0.8-0.4-1.2
	c-0.3-0.3-0.8-0.4-1.2-0.4c-0.4,0-0.9,0.1-1.2,0.4c-0.3,0.3-0.5,0.7-0.5,1.1h-0.6c0-0.4,0.1-0.8,0.3-1.1c0.2-0.3,0.5-0.6,0.8-0.8
	c0.4-0.2,0.8-0.3,1.2-0.3c0.6,0,1.2,0.2,1.6,0.6c0.4,0.4,0.6,1,0.6,1.6c0,0.4-0.1,0.7-0.4,1c-0.3,0.3-0.6,0.6-1,0.7
	c0.4,0.1,0.8,0.3,1.1,0.7c0.2,0.3,0.4,0.7,0.4,1.2c0,0.6-0.2,1.2-0.6,1.6c-0.5,0.4-1.1,0.6-1.7,0.6c-0.4,0-0.9-0.1-1.3-0.3
	c-0.4-0.2-0.7-0.4-0.9-0.8c-0.2-0.3-0.3-0.7-0.3-1.1h0.6c0,0.5,0.2,0.9,0.5,1.2c0.4,0.3,0.8,0.5,1.3,0.5c0.5,0,0.9-0.1,1.3-0.4
	c0.3-0.3,0.5-0.8,0.5-1.2c0-0.4-0.2-0.9-0.5-1.2c-0.4-0.3-0.9-0.4-1.5-0.4h-0.6L262.3,92.6z"/>
<path class="st2" d="M270.6,89.1v0.5h-0.1c-0.8,0-1.6,0.3-2.2,0.8c-0.6,0.6-0.9,1.4-0.9,2.3c0.2-0.3,0.5-0.5,0.8-0.7
	c0.3-0.2,0.7-0.2,1.1-0.2c0.6,0,1.2,0.2,1.6,0.7c0.4,0.5,0.6,1.2,0.6,1.8c0,0.5-0.1,0.9-0.3,1.4c-0.2,0.4-0.5,0.7-0.8,0.9
	c-0.4,0.2-0.8,0.3-1.2,0.3c-0.7,0-1.3-0.3-1.8-0.8c-0.5-0.6-0.7-1.3-0.7-2v-0.6c-0.1-1.1,0.3-2.3,0.9-3.2c0.7-0.8,1.6-1.2,2.7-1.1
	L270.6,89.1z M269.3,92.3c-0.4,0-0.8,0.1-1.1,0.4c-0.3,0.2-0.6,0.5-0.7,0.9v0.5c0,0.6,0.2,1.2,0.5,1.6c0.3,0.4,0.8,0.6,1.3,0.6
	c0.5,0,0.9-0.2,1.2-0.6c0.3-0.4,0.5-1,0.5-1.5c0-0.5-0.1-1-0.5-1.4C270.2,92.5,269.7,92.3,269.3,92.3L269.3,92.3z"/>
<path class="st2" d="M285.6,122.8c0.1,0.9-0.2,1.7-0.6,2.5c-0.4,0.6-1.1,0.9-1.8,0.8c-0.7,0-1.3-0.3-1.8-0.8
	c-0.4-0.7-0.7-1.6-0.6-2.4v-1.4c-0.1-0.9,0.2-1.7,0.6-2.5c0.4-0.6,1.1-0.9,1.8-0.8c0.7,0,1.3,0.3,1.8,0.8c0.4,0.7,0.7,1.5,0.6,2.4
	V122.8z M284.9,121.5c0-0.7-0.1-1.4-0.4-2c-0.5-0.7-1.5-0.9-2.2-0.4c-0.1,0.1-0.3,0.2-0.4,0.4c-0.3,0.6-0.5,1.3-0.4,1.9v1.5
	c0,0.7,0.1,1.4,0.4,2c0.3,0.5,0.8,0.7,1.3,0.7c0.5,0,1-0.2,1.3-0.7c0.3-0.6,0.5-1.3,0.4-2V121.5z"/>
<path class="st2" d="M287,125.7c0-0.2,0.2-0.4,0.4-0.4c0,0,0,0,0,0c0.1,0,0.2,0,0.3,0.1c0.1,0.1,0.1,0.2,0.1,0.3
	c0,0.1,0,0.2-0.1,0.3c-0.1,0.1-0.2,0.1-0.3,0.1c-0.1,0-0.2,0-0.3-0.1C287,125.9,287,125.8,287,125.7z"/>
<path class="st2" d="M294.3,126.1h-4.8v-0.5l2.6-3c0.3-0.4,0.7-0.8,0.9-1.3c0.2-0.3,0.2-0.6,0.3-0.9c0-0.4-0.1-0.8-0.4-1.2
	c-0.3-0.3-0.7-0.4-1.2-0.4c-0.5,0-0.9,0.2-1.3,0.5c-0.3,0.3-0.5,0.8-0.5,1.3h-0.6c0-0.4,0.1-0.8,0.3-1.2c0.2-0.4,0.5-0.6,0.8-0.8
	c0.4-0.2,0.8-0.3,1.2-0.3c0.6,0,1.2,0.2,1.6,0.6c0.4,0.4,0.6,0.9,0.6,1.5c0,0.4-0.1,0.8-0.3,1.2c-0.3,0.6-0.7,1.1-1.2,1.6l-2.1,2.4
	h4L294.3,126.1z"/>
<path class="st2" d="M296.9,121.9h0.6c0.3,0,0.7,0,1-0.2c0.3-0.1,0.5-0.3,0.6-0.5c0.2-0.2,0.2-0.5,0.2-0.8c0-0.4-0.1-0.8-0.4-1.1
	c-0.3-0.3-0.8-0.4-1.2-0.4c-0.4,0-0.9,0.1-1.2,0.4c-0.3,0.3-0.5,0.7-0.5,1.1h-0.6c0-0.4,0.1-0.8,0.3-1.1c0.2-0.3,0.5-0.6,0.8-0.8
	c0.4-0.2,0.8-0.3,1.2-0.3c0.6,0,1.2,0.2,1.6,0.6c0.4,0.4,0.6,1,0.6,1.6c0,0.4-0.1,0.7-0.4,1c-0.3,0.3-0.6,0.6-1,0.7
	c0.4,0.1,0.8,0.3,1.1,0.7c0.3,0.3,0.4,0.7,0.4,1.2c0,0.6-0.2,1.2-0.6,1.6c-0.5,0.4-1.1,0.6-1.7,0.6c-0.4,0-0.9-0.1-1.3-0.3
	c-0.4-0.2-0.7-0.4-0.9-0.8c-0.2-0.3-0.3-0.7-0.3-1.1h0.6c0,0.5,0.2,0.9,0.5,1.2c0.4,0.3,0.8,0.5,1.3,0.5c0.5,0,0.9-0.1,1.3-0.4
	c0.3-0.3,0.5-0.8,0.5-1.2c0-0.4-0.2-0.9-0.5-1.2c-0.4-0.3-0.9-0.4-1.5-0.4h-0.6L296.9,121.9z"/>
<path class="st2" d="M305.2,118.3v0.6h-0.1c-0.8,0-1.6,0.2-2.2,0.8c-0.6,0.6-0.9,1.4-0.9,2.3c0.2-0.3,0.5-0.5,0.8-0.7
	c0.3-0.2,0.7-0.2,1.1-0.2c0.6,0,1.2,0.2,1.6,0.7c0.4,0.5,0.6,1.2,0.6,1.8c0,0.5-0.1,0.9-0.3,1.4c-0.3,0.8-1.1,1.3-2,1.3
	c-0.7,0-1.3-0.3-1.8-0.8c-0.5-0.6-0.7-1.3-0.7-2.1v-0.6c-0.1-1.1,0.3-2.3,0.9-3.2c0.7-0.8,1.6-1.2,2.7-1.1L305.2,118.3z
	 M303.9,121.6c-0.4,0-0.8,0.1-1.1,0.4c-0.3,0.2-0.6,0.5-0.7,0.9v0.5c0,0.6,0.2,1.2,0.5,1.6c0.3,0.4,0.8,0.6,1.3,0.6
	c0.5,0,0.9-0.2,1.2-0.6c0.3-0.4,0.5-1,0.5-1.5c0-0.5-0.1-1-0.5-1.4C304.8,121.7,304.4,121.5,303.9,121.6L303.9,121.6z"/>
<polyline class="st3" points="245.9,103.8 273,103.8 273,289.6 245.9,289.6 "/>
<circle class="st2" cx="300.1" cy="103.8" r="2.4"/>
<polyline class="st0" points="451.3,33.8 397.1,219.6 309.4,219.6 363.5,33.8 397.1,33.8 "/>
<line class="st3" x1="397.1" y1="33.8" x2="451.3" y2="33.8"/>
<polyline class="st3" points="397.1,33.8 424.2,33.8 424.2,219.6 397.1,219.6 "/>
<circle class="st2" cx="451.3" cy="33.8" r="2.4"/>
<path class="st2" d="M579.6,138.5c0.1,0.9-0.2,1.7-0.6,2.5c-0.4,0.6-1.1,0.9-1.8,0.8c-0.7,0-1.3-0.3-1.8-0.8
	c-0.4-0.7-0.7-1.6-0.6-2.4v-1.4c-0.1-0.9,0.2-1.7,0.6-2.5c0.4-0.6,1.1-0.9,1.8-0.8c0.7,0,1.3,0.3,1.8,0.8c0.4,0.7,0.7,1.5,0.6,2.4
	V138.5z M579,137.1c0-0.7-0.1-1.4-0.4-2c-0.3-0.4-0.8-0.7-1.3-0.7c-0.5,0-1,0.2-1.3,0.7c-0.3,0.6-0.5,1.3-0.4,1.9v1.5
	c0,0.7,0.1,1.4,0.4,2c0.3,0.5,0.8,0.7,1.3,0.7c0.5,0,1-0.2,1.3-0.7c0.3-0.6,0.5-1.3,0.5-2V137.1z"/>
<path class="st2" d="M581,141.3c0-0.1,0-0.2,0.1-0.3c0.1-0.1,0.2-0.1,0.3-0.1c0.1,0,0.3,0,0.3,0.1c0.1,0.1,0.1,0.2,0.1,0.3
	c0,0.1,0,0.2-0.1,0.3c-0.1,0.1-0.2,0.1-0.3,0.1c-0.1,0-0.2,0-0.3-0.1C581,141.5,581,141.4,581,141.3z"/>
<path class="st2" d="M587.3,134v0.5h-0.1c-0.8,0-1.6,0.3-2.2,0.8c-0.6,0.6-0.9,1.4-0.9,2.3c0.2-0.3,0.5-0.5,0.8-0.7
	c0.3-0.2,0.7-0.2,1.1-0.2c0.6,0,1.2,0.2,1.6,0.7c0.4,0.5,0.6,1.2,0.6,1.8c0,0.5-0.1,0.9-0.3,1.4c-0.4,0.8-1.1,1.3-2,1.3
	c-0.7,0-1.3-0.3-1.8-0.8c-0.5-0.6-0.7-1.3-0.7-2.1v-0.6c-0.1-1.1,0.3-2.3,0.9-3.2c0.7-0.8,1.7-1.2,2.7-1.1H587.3z M585.9,137.2
	c-0.4,0-0.8,0.1-1.1,0.4c-0.3,0.2-0.6,0.5-0.7,0.9v0.5c0,0.6,0.2,1.2,0.5,1.6c0.3,0.4,0.8,0.6,1.3,0.6c0.5,0,0.9-0.2,1.2-0.6
	c0.3-0.4,0.5-0.9,0.5-1.5c0-0.5-0.1-1-0.5-1.4C586.9,137.4,586.4,137.2,585.9,137.2z"/>
<path class="st2" d="M592.4,141.7h-0.7v-6.9l-2.1,0.8V135l2.6-1h0.1L592.4,141.7z"/>
<path class="st2" d="M600,136c0,0.4-0.1,0.8-0.3,1.1c-0.2,0.3-0.6,0.6-0.9,0.7c0.4,0.1,0.8,0.4,1.1,0.7c0.3,0.3,0.4,0.7,0.4,1.2
	c0,0.6-0.2,1.2-0.7,1.6c-1.1,0.8-2.5,0.8-3.5,0c-0.5-0.4-0.7-1-0.7-1.6c0-0.4,0.1-0.8,0.4-1.2c0.3-0.4,0.6-0.6,1-0.7
	c-0.4-0.1-0.7-0.4-0.9-0.7c-0.2-0.3-0.3-0.7-0.3-1.1c0-0.6,0.2-1.1,0.6-1.5c0.5-0.4,1-0.6,1.6-0.6c0.6,0,1.2,0.2,1.6,0.6
	C599.8,134.9,600,135.4,600,136z M599.6,139.7c0-0.4-0.2-0.9-0.5-1.2c-0.4-0.3-0.8-0.4-1.3-0.4c-0.5,0-0.9,0.1-1.3,0.5
	c-0.3,0.3-0.5,0.7-0.5,1.2c0,0.4,0.2,0.9,0.5,1.2c0.8,0.6,1.9,0.6,2.6,0C599.5,140.6,599.6,140.1,599.6,139.7z M599.4,136
	c0-0.4-0.2-0.8-0.5-1.1c-0.3-0.3-0.7-0.5-1.2-0.4c-0.4,0-0.8,0.1-1.2,0.4c-0.3,0.3-0.5,0.7-0.4,1.1c0,0.4,0.1,0.8,0.4,1.1
	c0.7,0.5,1.7,0.5,2.3,0C599.2,136.8,599.4,136.4,599.4,136z"/>
<polygon class="st0" points="530.7,221.1 476.5,221.1 510,106.2 564.2,106.2 "/>
<polygon class="st0" points="564.3,292.1 510.1,292.1 543.6,177.2 597.8,177.2 "/>
<line class="st3" x1="564.2" y1="106.2" x2="564.2" y2="177.2"/>
<path class="st2" d="M898.5,185.5h-34.6c-1.8,0-3.2-1.4-3.2-3.2c0-0.3,0-0.6,0.1-0.9l10.4-35.7c0.5-1.7-0.5-3.4-2.1-3.9
	c-0.3-0.1-0.6-0.1-0.9-0.1h-26.9c-1.4,0-2.6,1-3,2.3l-18.8,64.6c-0.5,1.7,0.5,3.5,2.2,3.9c0.3,0.1,0.6,0.1,0.9,0.1h25
	c1.8,0,3.2,1.4,3.2,3.2c0,0.3,0,0.6-0.1,0.9l-11.6,39.8l61.8-65.6c1.2-1.3,1.1-3.3-0.1-4.5C900.2,185.8,899.4,185.5,898.5,185.5z"/>
<path class="st2" d="M818.7,240.8h-8.2c-0.4,0-0.8-0.3-0.8-0.7c0-0.1,0-0.1,0-0.2l2.5-8.4c0.1-0.4-0.1-0.8-0.5-0.9
	c-0.1,0-0.1,0-0.2,0h-6.4c-0.3,0-0.6,0.2-0.7,0.5l-4.4,15.3c-0.1,0.4,0.1,0.8,0.5,0.9c0.1,0,0.1,0,0.2,0h5.9c0.4,0,0.8,0.3,0.8,0.8
	c0,0.1,0,0.1,0,0.2l-2.7,9.4l14.6-15.5c0.3-0.3,0.3-0.8,0-1.1C819.1,240.9,818.9,240.8,818.7,240.8z"/>
<path class="st2" d="M744.2,23.6c0.1,0.9-0.2,1.7-0.6,2.5c-0.8,1-2.2,1.1-3.2,0.3c-0.1-0.1-0.2-0.2-0.3-0.3
	c-0.5-0.7-0.7-1.6-0.6-2.4v-1.4c-0.1-0.9,0.2-1.7,0.6-2.5c0.8-1,2.3-1.1,3.2-0.3c0.1,0.1,0.2,0.2,0.3,0.3c0.4,0.7,0.7,1.5,0.6,2.4
	L744.2,23.6z M743.6,22.2c0-0.7-0.1-1.4-0.4-2c-0.5-0.7-1.5-0.9-2.2-0.4c-0.1,0.1-0.3,0.2-0.4,0.4c-0.3,0.6-0.5,1.3-0.4,1.9v1.5
	c0,0.7,0.1,1.4,0.5,2c0.5,0.7,1.4,0.9,2.1,0.4c0.2-0.1,0.3-0.3,0.4-0.4c0.3-0.6,0.5-1.3,0.4-2V22.2z"/>
<path class="st2" d="M745.6,28.2l-0.4-0.3c0.3-0.4,0.5-0.8,0.5-1.3v-0.8h0.6v0.7C746.3,27.1,746.1,27.8,745.6,28.2z"/>
<path class="st2" d="M752.4,19.5l-3.3,7.3h-0.7l3.3-7.1h-4.4v-0.6h5V19.5z"/>
<path class="st2" d="M757.4,19.1v0.5h-0.1c-0.8,0-1.6,0.3-2.2,0.8c-0.6,0.6-0.9,1.4-0.9,2.3c0.2-0.3,0.5-0.5,0.8-0.7
	c0.3-0.2,0.7-0.2,1.1-0.2c0.6,0,1.2,0.2,1.6,0.7c0.4,0.5,0.6,1.2,0.6,1.8c0,0.5-0.1,0.9-0.3,1.3c-0.4,0.8-1.1,1.3-2,1.3
	c-0.7,0-1.3-0.3-1.8-0.8c-0.5-0.6-0.7-1.3-0.7-2.1v-0.6c-0.1-1.1,0.3-2.3,0.9-3.2c0.7-0.8,1.7-1.2,2.7-1.1H757.4z M756.1,22.3
	c-0.4,0-0.8,0.1-1.1,0.4c-0.3,0.2-0.6,0.5-0.7,0.9v0.5c0,0.6,0.2,1.2,0.5,1.6c0.3,0.4,0.8,0.6,1.3,0.6c0.5,0,0.9-0.2,1.2-0.6
	c0.3-0.4,0.5-0.9,0.5-1.5c0-0.5-0.1-1-0.5-1.4C757,22.5,756.5,22.3,756.1,22.3L756.1,22.3z"/>
<path class="st2" d="M763.5,24.3h1.2v0.5h-1.2v1.9h-0.6v-1.9h-3.6v-0.4l3.5-5.4h0.7L763.5,24.3z M760,24.3h2.8v-4.4l-0.3,0.5
	L760,24.3z"/>
<path class="st4" d="M670.7,222.1L670.7,222.1l33.5-114.9h74.8L748,173C733.9,202.9,703.8,222.1,670.7,222.1z"/>
<polygon class="st0" points="691.4,151.1 637.1,151.1 670.6,36.2 724.8,36.2 "/>
<polygon class="st0" points="670.7,222.1 704.2,107.2 779,107.2 "/>
<polyline class="st3" points="724.8,36.2 779,36.2 779,107.2 "/>
</svg>
