<?xml version="1.0" encoding="utf-8"?>
<!-- Generator: Adobe Illustrator 22.1.0, SVG Export Plug-In . SVG Version: 6.00 Build 0)  -->
<svg version="1.1" id="Camada_1" xmlns="http://www.w3.org/2000/svg" xmlns:xlink="http://www.w3.org/1999/xlink" x="0px" y="0px"
	 viewBox="0 0 4599.8 1080" style="enable-background:new 0 0 4599.8 1080;" xml:space="preserve">
<style type="text/css">
	.st0{fill:none;stroke:#FFFF00;stroke-width:5;stroke-miterlimit:10;}
	.st1{fill:#FFFF00;}
	.st2{fill:none;stroke:#FFFF00;stroke-width:2;stroke-linecap:round;stroke-miterlimit:10;stroke-dasharray:30;}
	.st3{fill:none;stroke:#FFFFFF;stroke-width:60;stroke-miterlimit:10;}
	.st4{fill:#FFFFFF;stroke:#FFFFFF;stroke-width:60;stroke-miterlimit:10;}
</style>
<title>fibonacci3</title>
<line class="st0" x1="533.8" y1="187" x2="533.8" y2="854.6"/>
<line class="st0" x1="929.6" y1="824.5" x2="929.6" y2="885.3"/>
<g>
	<path class="st1" d="M638.3,560h-7v-76.9l-23.2,8.6v-6.6l29.1-10.8h1.2V560z"/>
</g>
<g>
	<path class="st1" d="M1005.6,861.6c0,8-1.5,14.1-4.4,18.3c-2.9,4.2-7.3,6.2-13,6.2c-5.6,0-9.9-2-12.9-6.1c-3-4.1-4.5-10-4.6-17.8
		V852c0-8,1.5-14,4.5-18.2c3-4.1,7.3-6.2,13-6.2c5.6,0,9.9,2,12.9,6c3,4,4.5,9.8,4.6,17.6V861.6z M1000.9,851.4
		c0-6.5-1.1-11.4-3.2-14.8c-2.1-3.3-5.3-5-9.6-5c-4.2,0-7.4,1.6-9.5,4.9c-2.1,3.3-3.2,8.1-3.3,14.4v11.2c0,6.5,1.1,11.4,3.3,14.9
		c2.2,3.4,5.4,5.2,9.6,5.2c4.2,0,7.3-1.7,9.5-5s3.2-8.3,3.3-14.8V851.4z"/>
	<path class="st1" d="M1015.4,896l-2.8-2c2.4-3.2,3.6-6.5,3.7-9.9V878h4.6v4.9C1020.9,888.3,1019,892.7,1015.4,896z"/>
	<path class="st1" d="M1065.2,861.6c0,8-1.5,14.1-4.4,18.3c-2.9,4.2-7.3,6.2-13,6.2c-5.6,0-9.9-2-12.9-6.1c-3-4.1-4.5-10-4.6-17.8
		V852c0-8,1.5-14,4.5-18.2c3-4.1,7.3-6.2,13-6.2c5.6,0,9.9,2,12.9,6c3,4,4.5,9.8,4.6,17.6V861.6z M1060.5,851.4
		c0-6.5-1.1-11.4-3.2-14.8c-2.1-3.3-5.3-5-9.6-5c-4.2,0-7.4,1.6-9.5,4.9c-2.1,3.3-3.2,8.1-3.3,14.4v11.2c0,6.5,1.1,11.4,3.3,14.9
		c2.2,3.4,5.4,5.2,9.6,5.2c4.2,0,7.3-1.7,9.5-5s3.2-8.3,3.3-14.8V851.4z"/>
	<path class="st1" d="M1104.4,859c-1.7,2.4-3.7,4.3-6.2,5.7c-2.5,1.3-5.2,2-8,2c-3.2,0-6.1-0.8-8.6-2.5c-2.5-1.7-4.4-4-5.7-6.9
		c-1.4-2.9-2-6.2-2-9.6c0-3.8,0.7-7.2,2.2-10.2c1.4-3.1,3.5-5.5,6.1-7.2c2.6-1.7,5.6-2.6,9-2.6c5.7,0,10.1,2,13.3,6
		c3.2,4,4.8,9.7,4.8,17v4.2c0,10.3-2.2,18-6.6,23.1s-11.1,7.7-20,7.7h-0.9l0-4.1h1.6c6.8-0.1,12-2,15.5-5.8
		C1102.4,872.2,1104.3,866.5,1104.4,859z M1090.8,862.6c3.1,0,5.9-0.9,8.4-2.8c2.5-1.9,4.3-4.3,5.3-7.2v-2.7
		c0-5.8-1.2-10.2-3.6-13.4c-2.4-3.2-5.7-4.8-9.7-4.8c-3.7,0-6.7,1.5-9.1,4.5c-2.4,3-3.6,6.7-3.6,11.2c0,4.3,1.1,8,3.4,10.9
		C1084.2,861.2,1087.1,862.6,1090.8,862.6z"/>
</g>
<line class="st2" x1="533.8" y1="885.3" x2="929.6" y2="885.3"/>
<line class="st2" x1="533.8" y1="824" x2="929.6" y2="824"/>
<circle class="st3" cx="533.8" cy="520.8" r="333.8"/>
<g>
	<circle class="st3" cx="2715.4" cy="520.8" r="78.8"/>
	<circle class="st3" cx="2970.4" cy="775.8" r="78.8"/>
	<circle class="st3" cx="2970.4" cy="520.8" r="333.8"/>
</g>
<g>
	<circle class="st4" cx="4066" cy="412.5" r="78.8"/>
	<circle class="st4" cx="4321" cy="667.5" r="78.8"/>
	<path class="st3" d="M4321,746.3c-184.4,0-333.8-149.4-333.8-333.8"/>
</g>
<line class="st0" x1="2122.4" y1="442" x2="2122.4" y2="599.6"/>
<g>
	<path class="st1" d="M2198.1,526.3c0,8-1.5,14.1-4.4,18.3c-2.9,4.2-7.3,6.2-13,6.2c-5.6,0-9.9-2-12.9-6.1c-3-4.1-4.5-10-4.6-17.8
		v-10.2c0-8,1.5-14,4.5-18.2c3-4.1,7.3-6.2,13-6.2c5.6,0,9.9,2,12.9,6c3,4,4.5,9.8,4.6,17.6V526.3z M2193.4,516.1
		c0-6.5-1.1-11.4-3.2-14.8c-2.1-3.3-5.3-5-9.6-5c-4.2,0-7.4,1.6-9.5,4.9c-2.1,3.3-3.2,8.1-3.3,14.4v11.2c0,6.5,1.1,11.4,3.3,14.9
		c2.2,3.4,5.4,5.2,9.6,5.2c4.2,0,7.3-1.7,9.5-5s3.2-8.3,3.3-14.8V516.1z"/>
	<path class="st1" d="M2207.9,560.6l-2.8-2c2.4-3.2,3.6-6.5,3.7-9.9v-6.1h4.6v4.9C2213.4,553,2211.5,557.3,2207.9,560.6z"/>
	<path class="st1" d="M2259.1,550h-35.6v-3.6l19.5-22.1c3.2-3.7,5.5-6.8,6.7-9.2s1.9-4.8,1.9-7.1c0-3.6-1.1-6.4-3.2-8.5
		c-2.1-2.1-5-3.1-8.7-3.1c-3.8,0-6.9,1.2-9.3,3.7c-2.4,2.4-3.5,5.6-3.5,9.5h-4.6c0-3.2,0.7-6.1,2.2-8.8c1.4-2.6,3.5-4.7,6.2-6.2
		c2.7-1.5,5.7-2.2,9.1-2.2c5.2,0,9.3,1.4,12.2,4.1s4.4,6.5,4.4,11.2c0,2.7-0.8,5.6-2.5,8.7c-1.7,3.2-4.6,7.1-8.7,11.8l-15.9,17.9
		h29.9V550z"/>
	<path class="st1" d="M2278.2,519h4.8c2.7,0,5-0.5,7-1.4c2-1,3.5-2.3,4.6-3.9c1.1-1.7,1.6-3.6,1.6-5.7c0-3.6-1-6.5-3.1-8.6
		c-2.1-2.1-5-3.1-8.9-3.1c-3.6,0-6.6,1.1-9,3.2c-2.3,2.1-3.5,5-3.5,8.5h-4.7c0-2.9,0.7-5.6,2.2-8.1c1.5-2.4,3.5-4.3,6.2-5.6
		c2.6-1.3,5.5-2,8.8-2c5.2,0,9.2,1.4,12.2,4.2s4.5,6.7,4.5,11.6c0,2.7-0.9,5.3-2.6,7.6c-1.7,2.3-4.1,4-7.1,5.2c3.5,1,6.2,2.7,8,5.1
		c1.8,2.4,2.7,5.3,2.7,8.6c0,4.9-1.6,8.8-4.8,11.8c-3.2,3-7.4,4.5-12.7,4.5c-3.4,0-6.5-0.7-9.3-2c-2.8-1.4-5-3.2-6.6-5.7
		c-1.5-2.4-2.3-5.3-2.3-8.5h4.7c0,3.6,1.3,6.6,3.8,8.8c2.5,2.3,5.8,3.4,9.7,3.4c4,0,7.2-1,9.4-3.1c2.3-2.1,3.4-5.1,3.4-9
		c0-3.8-1.2-6.7-3.7-8.7c-2.4-2-6-3-10.8-3h-4.7V519z"/>
	<path class="st1" d="M2339.7,492.7v4.1h-0.5c-6.8,0-12.1,2-16.1,6c-3.9,4-6.1,9.6-6.5,16.7c1.6-2.2,3.6-3.8,6-5
		c2.4-1.2,5.1-1.8,8.1-1.8c5,0,9,1.7,11.9,5.2c3,3.5,4.4,8,4.4,13.5c0,3.7-0.7,7-2.1,10c-1.4,3-3.4,5.3-5.9,6.9
		c-2.6,1.7-5.5,2.5-8.8,2.5c-5.4,0-9.9-2-13.3-5.9c-3.4-3.9-5.1-9-5.1-15.3v-4.7c0-10.2,2.3-18.1,7-23.7c4.6-5.6,11.2-8.4,19.7-8.5
		H2339.7z M2330,516.7c-3,0-5.7,0.9-8.3,2.6c-2.6,1.8-4.3,4-5.1,6.7v4c0,4.9,1.3,9,3.8,12.1c2.5,3.1,5.8,4.7,9.9,4.7
		c3.6,0,6.6-1.4,8.8-4.3c2.3-2.9,3.4-6.5,3.4-10.9c0-4.5-1.1-8.1-3.4-10.8C2336.8,518.1,2333.8,516.7,2330,516.7z"/>
</g>
<line class="st2" x1="1677.3" y1="442" x2="2122.4" y2="442"/>
<circle class="st3" cx="1677.3" cy="520.8" r="78.8"/>
<circle class="st3" cx="1677.3" cy="520.8" r="333.8"/>
<line class="st0" x1="1677.3" y1="442" x2="1677.3" y2="599.6"/>
<line class="st2" x1="1677.3" y1="599.6" x2="2122.4" y2="599.6"/>
<polyline class="st2" points="2715.4,520.8 2970.4,520.8 2970.4,775.8 "/>
</svg>
