<?xml version="1.0" encoding="utf-8"?>
<!-- Generator: Adobe Illustrator 22.1.0, SVG Export Plug-In . SVG Version: 6.00 Build 0)  -->
<svg version="1.1" id="Camada_1" xmlns="http://www.w3.org/2000/svg" xmlns:xlink="http://www.w3.org/1999/xlink" x="0px" y="0px"
	 viewBox="0 0 1920 1080" style="enable-background:new 0 0 1920 1080;" xml:space="preserve">
<style type="text/css">
	.st0{fill:#222222;}
	.st1{fill:none;stroke:#FFFF00;stroke-linecap:round;stroke-miterlimit:10;stroke-dasharray:12;}
	.st2{fill:#1A1A1A;}
	.st3{fill:#EDEEF0;}
	.st4{fill:#666666;}
	.st5{fill:#5B5B5F;}
	.st6{opacity:0.15;fill:#FFFFFF;enable-background:new    ;}
	.st7{fill:#AAAAAA;}
	.st8{fill:#BBBBBB;}
	.st9{fill:#FEEE00;}
	.st10{fill:#FFFFFF;}
	.st11{fill:none;stroke:#FEEE00;stroke-width:3;stroke-miterlimit:10;}
	.st12{fill:none;stroke:#FEEE00;stroke-width:2;stroke-linecap:round;stroke-miterlimit:10;stroke-dasharray:12;}
	.st13{fill:none;stroke:#FEEE00;stroke-linecap:round;stroke-miterlimit:10;stroke-dasharray:12;}
	.st14{fill:none;stroke:#FFFFFF;stroke-width:3;stroke-linecap:round;stroke-miterlimit:10;stroke-dasharray:12;}
	.st15{opacity:0.24;}
	.st16{fill:#727176;stroke:#FFFFFF;stroke-width:3;stroke-linecap:round;stroke-miterlimit:10;stroke-dasharray:12;}
	.st17{fill:#727176;}
	.st18{fill:none;stroke:#DB9600;stroke-width:2;stroke-linecap:round;stroke-miterlimit:10;}
	.st19{fill:none;stroke:#DB9600;stroke-width:2;stroke-linecap:round;stroke-miterlimit:10;stroke-dasharray:12;}
	.st20{fill:#333333;}
	.st21{fill:#9A999E;}
	.st22{fill:#D8D9DD;}
	.st23{fill:url(#SVGID_1_);}
	.st24{fill:#0046BC;}
	.st25{fill:#C1DBE0;}
	.st26{fill:#F7EC45;}
	.st27{fill:#003684;}
</style>
<title>fibonacci4</title>
<polygon class="st0" points="645.8,172.3 661,187.2 645.8,187.2 "/>
<polygon class="st0" points="239.9,943.3 224.6,928.5 239.9,928.5 "/>
<path class="st0" d="M256.8,181.1h388c12.2,0,22.1,9.9,22.1,22.1v723.4c0,12.2-9.9,22.1-22.1,22.1h-388c-12.2,0-22.1-9.9-22.1-22.1
	V203.2C234.6,191,244.6,181.1,256.8,181.1z"/>
<line class="st1" x1="994.8" y1="222.9" x2="1074.9" y2="222.9"/>
<line class="st1" x1="1006.3" y1="243.1" x2="1090.8" y2="243.1"/>
<line class="st1" x1="1015.1" y1="276.6" x2="1090.8" y2="276.6"/>
<line class="st1" x1="993.1" y1="366.4" x2="1074.9" y2="366.4"/>
<line class="st1" x1="993.1" y1="351" x2="1074.9" y2="351"/>
<path class="st2" d="M245.3,168.7h388c12.2,0,22.1,9.9,22.1,22.1v724.3c0,12.2-9.9,22.1-22.1,22.1h-388c-12.2,0-22.1-9.9-22.1-22.1
	V190.9C223.2,178.6,233.1,168.7,245.3,168.7z"/>
<rect x="242.6" y="218" class="st3" width="392.6" height="669.9"/>
<rect x="242.6" y="283.2" width="392.6" height="189.3"/>
<rect x="242.6" y="217.1" class="st4" width="392.6" height="60.7"/>
<rect x="242.6" y="277.9" class="st5" width="392.6" height="5.3"/>
<path class="st6" d="M419.8,217.1c49.6,6.1,94.7,28,130.7,60.7h84.8v-60.7L419.8,217.1L419.8,217.1z"/>
<path d="M628.2,217.1c3.5,0,6.4,2.9,6.4,6.4v656.3c0,3.5-2.9,6.4-6.4,6.4H248.3c-3.5,0-6.4-2.9-6.4-6.4V223.5c0-3.5,2.9-6.4,6.4-6.4
	H628.2 M628.2,212.1H248.3c-6.3,0-11.4,5.1-11.4,11.4v656.3c0,6.3,5.1,11.4,11.4,11.4h379.9c6.3,0,11.4-5.1,11.4-11.4V223.5
	C639.5,217.2,634.4,212.1,628.2,212.1z"/>
<rect x="242.6" y="473.3" class="st4" width="392.6" height="414.6"/>
<path class="st6" d="M242.4,886.2h392.8V470.9c0,114.7-44,218.5-115,293.7S350.9,886.2,242.4,886.2z"/>
<rect x="749.7" y="823.7" class="st3" width="17.6" height="17.6"/>
<path class="st3" d="M792.8,823.7L792.8,823.7c4.9,0,8.8,3.9,8.8,8.8l0,0c0,4.9-3.9,8.8-8.8,8.8l0,0c-4.9,0-8.8-3.9-8.8-8.8l0,0
	C784,827.6,787.9,823.7,792.8,823.7z"/>
<rect x="242.6" y="631.8" class="st7" width="392.6" height="97.7"/>
<path class="st3" d="M818.3,827.9v9h9C827.3,832,823.3,827.9,818.3,827.9z"/>
<path class="st4" d="M419.1,650.3h40.4c5.6,0,10.2,4.6,10.2,10.2v40.4c0,5.6-4.6,10.2-10.2,10.2h-40.4c-5.6,0-10.2-4.6-10.2-10.2
	v-40.4C409,654.8,413.5,650.3,419.1,650.3z"/>
<path class="st8" d="M321.4,792h235.8c5.6,0,10.2,4.6,10.2,10.2v40.4c0,5.6-4.6,10.2-10.2,10.2H321.4c-5.6,0-10.2-4.6-10.2-10.2
	v-40.4C311.2,796.6,315.8,792,321.4,792z"/>
<path class="st4" d="M288,650.3h40.4c5.6,0,10.2,4.6,10.2,10.2v40.4c0,5.6-4.6,10.2-10.2,10.2H288c-5.6,0-10.2-4.6-10.2-10.2v-40.4
	C277.8,654.8,282.3,650.3,288,650.3z"/>
<path class="st4" d="M549.4,650.3h40.4c5.6,0,10.2,4.6,10.2,10.2v40.4c0,5.6-4.6,10.2-10.2,10.2h-40.4c-5.6,0-10.2-4.6-10.2-10.2
	v-40.4C539.2,654.8,543.8,650.3,549.4,650.3z"/>
<path class="st9" d="M179,262.9h-4v-26.5l-8,2.9v-3.6l11.4-4.3h0.6V262.9z"/>
<path class="st9" d="M195.2,294.4c0.1,1.1-0.2,2.2-0.7,3.1c-1.1,1.2-3,1.3-4.2,0.2c-0.1-0.1-0.2-0.2-0.2-0.2c-0.6-0.9-0.8-1.9-0.8-3
	V293c-0.1-1.1,0.2-2.2,0.7-3.1c0.5-0.7,1.4-1.1,2.3-1c0.9-0.1,1.7,0.3,2.2,1c0.5,0.9,0.8,1.9,0.7,3V294.4z M194,292.8
	c0.1-0.8-0.1-1.5-0.4-2.2c-0.5-0.7-1.6-0.9-2.3-0.4c-0.2,0.1-0.3,0.2-0.4,0.4c-0.3,0.7-0.5,1.4-0.4,2.1v1.9
	c-0.1,0.8,0.1,1.6,0.4,2.3c0.3,0.5,0.8,0.8,1.3,0.7c0.5,0,1-0.2,1.3-0.7c0.3-0.7,0.5-1.4,0.4-2.2L194,292.8L194,292.8z"/>
<path class="st9" d="M196.9,300.3l-0.7-0.5c0.4-0.5,0.6-1.1,0.6-1.8v-1h1.2v1c0,0.5-0.1,0.9-0.3,1.3
	C197.5,299.7,197.2,300,196.9,300.3z"/>
<path class="st9" d="M205.3,294.4c0.1,1.1-0.2,2.2-0.7,3.1c-1.1,1.2-3,1.3-4.2,0.2c-0.1-0.1-0.2-0.2-0.2-0.2c-0.5-0.9-0.8-1.9-0.8-3
	V293c-0.1-1.1,0.2-2.2,0.7-3.1c0.5-0.7,1.4-1.1,2.3-1c0.9-0.1,1.7,0.3,2.2,1c0.5,0.9,0.8,1.9,0.7,3V294.4z M204.1,292.8
	c0.1-0.8-0.1-1.5-0.4-2.2c-0.3-0.5-0.8-0.7-1.4-0.7c-0.5,0-1.1,0.2-1.3,0.7c-0.3,0.7-0.5,1.4-0.4,2.1v1.9c-0.1,0.8,0.1,1.6,0.4,2.3
	c0.3,0.5,0.8,0.8,1.4,0.7c0.5,0,1-0.2,1.3-0.7c0.3-0.7,0.5-1.4,0.4-2.2V292.8z"/>
<path class="st9" d="M211.4,294.3c-0.2,0.3-0.5,0.5-0.9,0.7s-0.8,0.3-1.1,0.3c-0.5,0-1-0.1-1.4-0.4s-0.7-0.7-0.9-1.1
	c-0.5-1.1-0.5-2.3,0-3.3c0.2-0.5,0.6-0.9,1-1.2c0.5-0.3,1-0.4,1.5-0.4c0.9,0,1.7,0.3,2.2,1c0.6,0.8,0.9,1.8,0.8,2.9v0.4
	c0.1,1.4-0.3,2.8-1.1,4c-0.8,0.9-2,1.4-3.3,1.3H208v-1h0.3c1.6,0.2,3-1,3.1-2.5C211.4,294.7,211.4,294.5,211.4,294.3L211.4,294.3z
	 M209.6,294.3c0.4,0,0.8-0.1,1.1-0.4c0.3-0.2,0.6-0.5,0.7-0.9v-0.5c0-0.7-0.1-1.3-0.5-1.9c-0.3-0.5-0.8-0.7-1.3-0.7s-1,0.2-1.3,0.6
	c-0.6,1-0.6,2.2,0,3.2C208.6,294.1,209.1,294.3,209.6,294.3z"/>
<path class="st9" d="M445.8,132.6h-4v-26.5l-8,2.9v-3.6l11.4-4.3h0.6V132.6z"/>
<path class="st10" d="M710.7,663.8v3.4H710c-2.7-0.1-5.4,0.9-7.4,2.8c-1.9,2-3.1,4.7-3.2,7.5c1.7-1.9,4.2-3,6.8-2.8
	c2.5-0.1,4.9,1,6.5,2.9c3.3,4.5,3.2,10.7-0.2,15.2c-1.8,2-4.4,3-7.1,2.9c-2.8,0.1-5.5-1.2-7.3-3.5c-1.9-2.5-2.9-5.7-2.8-8.9v-1.5
	c0-5.8,1.2-10.2,3.7-13.2s6.1-4.6,11-4.7L710.7,663.8z M705.4,677.9c-2.7,0-5.2,1.7-6.2,4.3v1.5c-0.1,2.2,0.5,4.4,1.7,6.2
	c1,1.5,2.6,2.4,4.3,2.4c1.7,0.1,3.2-0.7,4.2-2c2.1-3.2,2.1-7.2,0-10.4C708.6,678.6,707.1,677.9,705.4,677.9L705.4,677.9z"/>
<path class="st10" d="M720,701.4l-2.3-1.5c1.3-1.7,2-3.7,2.1-5.8v-3.6h3.9v3.1c0,1.5-0.4,3-1.1,4.3
	C722.1,699.2,721.1,700.4,720,701.4z"/>
<path class="st10" d="M747.4,672c0,1.5-0.4,2.9-1.2,4.2c-0.8,1.2-2,2.2-3.4,2.8c1.6,0.6,2.9,1.7,3.9,3.1c1,1.3,1.5,2.9,1.4,4.6
	c0.1,2.5-0.9,4.8-2.7,6.5c-4.3,3.2-10.2,3.2-14.4,0c-1.8-1.6-2.8-4-2.7-6.5c0-1.6,0.5-3.2,1.4-4.6c0.9-1.4,2.3-2.5,3.8-3.1
	c-1.3-0.6-2.5-1.6-3.3-2.9c-0.8-1.2-1.2-2.7-1.2-4.1c-0.1-2.4,0.8-4.7,2.5-6.3c3.9-3.1,9.4-3.1,13.3,0
	C746.6,667.3,747.5,669.6,747.4,672z M744.1,686.6c0.1-1.6-0.5-3.1-1.7-4.3c-1.2-1.1-2.7-1.7-4.3-1.7c-3.1-0.2-5.7,2.1-5.9,5.2
	c0,0.2,0,0.5,0,0.7c-0.1,1.6,0.5,3.1,1.6,4.2c2.6,2.1,6.2,2.1,8.8,0C743.6,689.7,744.2,688.2,744.1,686.6L744.1,686.6z M738.1,666.7
	c-1.4-0.1-2.8,0.5-3.8,1.5c-1.9,2.2-1.9,5.6,0,7.8c2.2,2,5.5,2,7.6,0c1.9-2.2,1.9-5.5-0.1-7.8C740.9,667.2,739.6,666.6,738.1,666.7
	L738.1,666.7z"/>
<path class="st10" d="M755,679.5l1.6-15.6h16v3.7h-12.7l-0.9,8.5c1.6-0.9,3.4-1.4,5.2-1.4c2.6-0.1,5.1,0.9,6.8,2.8
	c1.8,2.1,2.7,4.9,2.5,7.6c0.2,2.8-0.8,5.5-2.6,7.6c-1.9,1.9-4.6,2.9-7.3,2.8c-2.5,0.1-4.9-0.7-6.8-2.3c-1.8-1.6-2.9-3.9-3-6.4h3.8
	c0.1,1.6,0.8,3,1.9,4.1c1.1,0.9,2.6,1.4,4.1,1.4c1.7,0.1,3.3-0.6,4.3-1.9c1.1-1.5,1.7-3.4,1.6-5.2c0.1-1.8-0.5-3.6-1.7-5
	c-1.2-1.3-2.8-2-4.5-1.9c-1.4-0.1-2.9,0.3-4.1,1.1l-1,0.9L755,679.5z"/>
<path class="st10" d="M883.5,826h4.3v3.2h-4.3v7.3h-4v-7.3h-14.2v-2.3l14-21.7h4.2V826z M869.7,826h9.7v-15.4l-0.5,0.9L869.7,826z"
	/>
<path class="st10" d="M891.7,842.7l-2.3-1.5c1.3-1.7,2-3.7,2.1-5.8v-3.6h3.9v3.1c0,1.5-0.4,3-1.1,4.3
	C893.7,840.6,892.8,841.7,891.7,842.7z"/>
<path class="st10" d="M920.5,836.5H900v-2.9l10.8-12c1.3-1.4,2.4-2.8,3.3-4.4c0.6-1.1,0.9-2.3,0.9-3.5c0.1-1.5-0.5-2.9-1.5-4
	s-2.5-1.7-4-1.6c-1.7-0.1-3.4,0.5-4.6,1.7c-1.2,1.3-1.7,3-1.6,4.7h-4c-0.1-2.6,0.9-5.2,2.8-7c2-1.8,4.7-2.8,7.4-2.7
	c2.5-0.1,5,0.7,6.9,2.3c1.7,1.6,2.6,3.8,2.5,6.1c0,3.1-2,6.7-5.9,11l-8.4,9.1h15.7L920.5,836.5z"/>
<path class="st10" d="M930.5,818.9h3c1.6,0.1,3.2-0.5,4.4-1.5c1.1-1,1.7-2.4,1.6-3.9c0-3.7-1.8-5.5-5.5-5.5c-1.5-0.1-3,0.5-4.1,1.5
	c-1,1-1.6,2.4-1.5,3.9h-4c0-2.4,0.9-4.6,2.7-6.2c4-3.3,9.8-3.3,13.8-0.1c1.7,1.7,2.7,4.1,2.5,6.5c0,1.4-0.5,2.8-1.3,4
	c-0.9,1.3-2.1,2.3-3.6,2.9c1.6,0.5,3,1.4,4,2.7s1.5,3,1.4,4.6c0.1,2.5-0.9,5-2.8,6.7c-2,1.7-4.5,2.6-7.2,2.5
	c-2.6,0.1-5.2-0.7-7.2-2.4c-1.8-1.6-2.8-3.9-2.8-6.3h4c-0.1,1.5,0.5,3,1.6,4c1.2,1,2.7,1.6,4.3,1.5c1.6,0.1,3.2-0.4,4.4-1.5
	c1.1-1.2,1.6-2.7,1.5-4.3c0.1-1.6-0.5-3.1-1.7-4.2c-1.4-1.1-3.1-1.6-4.8-1.5h-3L930.5,818.9z"/>
<path class="st10" d="M727.3,813.3c0.1,1.5-0.3,2.9-1,4.2c-1.5,1.7-4,1.8-5.6,0.4c-0.1-0.1-0.2-0.2-0.4-0.4c-0.7-1.2-1.1-2.6-1-4
	v-2.1c-0.1-1.4,0.3-2.9,1-4.1c1.5-1.7,4-1.8,5.6-0.4c0.1,0.1,0.2,0.2,0.4,0.4c0.7,1.2,1.1,2.6,1,4V813.3z M725.7,811.1
	c0.1-1-0.1-2-0.6-2.9c-0.4-0.6-1.1-1-1.8-0.9c-0.7-0.1-1.4,0.3-1.8,0.9c-0.5,0.9-0.7,1.9-0.6,2.9v2.5c-0.1,1,0.1,2.1,0.6,3
	c0.4,0.6,1,1,1.8,1c0.7,0,1.4-0.3,1.8-0.9c0.4-0.9,0.7-1.9,0.6-2.9V811.1z"/>
<path class="st10" d="M729.5,821.1l-0.9-0.6c0.5-0.7,0.8-1.5,0.8-2.3v-1.4h1.6v1.3C731,819.2,730.4,820.3,729.5,821.1L729.5,821.1z"
	/>
<path class="st10" d="M741,818.6h-8.2v-1.2l4.3-4.8c0.5-0.5,0.9-1.1,1.3-1.8c0.2-0.4,0.4-0.9,0.4-1.4c0-0.6-0.2-1.2-0.6-1.6
	c-0.4-0.4-1-0.6-1.6-0.6c-0.7,0-1.3,0.2-1.8,0.7s-0.7,1.2-0.7,1.9h-1.6c0-1.1,0.4-2.1,1.1-2.8c0.8-0.7,1.9-1.1,3-1.1
	c1-0.1,2,0.3,2.8,0.9c0.7,0.6,1,1.5,1,2.4c0,1.2-0.8,2.7-2.4,4.4l-3.3,3.6h6.3V818.6z"/>
<path class="st10" d="M745,811.6h1.2c0.6,0,1.3-0.2,1.8-0.6c0.4-0.4,0.7-1,0.6-1.5c0.2-1.1-0.6-2-1.6-2.2c-0.2,0-0.4,0-0.5,0
	c-0.6,0-1.2,0.2-1.7,0.6c-0.4,0.4-0.6,1-0.6,1.6h-1.6c0-0.9,0.4-1.8,1.1-2.5c0.8-0.7,1.7-1,2.8-1c1-0.1,2,0.3,2.8,0.9
	c0.7,0.7,1.1,1.6,1,2.6c0,0.6-0.2,1.1-0.5,1.6c-0.4,0.5-0.9,0.9-1.4,1.2c1.3,0.3,2.2,1.6,2.2,2.9c0,1-0.4,2-1.1,2.7
	c-0.8,0.7-1.8,1-2.9,1c-1,0-2.1-0.3-2.9-1c-0.7-0.6-1.1-1.6-1.1-2.5h1.6c0,0.6,0.2,1.2,0.6,1.6c0.5,0.4,1.1,0.6,1.7,0.6
	c0.6,0,1.3-0.2,1.8-0.6c0.4-0.5,0.7-1.1,0.6-1.7c0-0.6-0.2-1.2-0.7-1.7c-0.5-0.4-1.2-0.6-1.9-0.6H745V811.6z"/>
<path class="st10" d="M758.8,806.1v1.3h-0.3c-1.1,0-2.1,0.4-3,1.1c-0.8,0.8-1.2,1.9-1.3,3c0.7-0.8,1.7-1.2,2.7-1.1
	c1,0,2,0.4,2.6,1.2c1.3,1.8,1.3,4.3-0.1,6.1c-0.7,0.8-1.8,1.2-2.8,1.2c-1.1,0-2.2-0.5-2.9-1.4c-0.8-1-1.2-2.3-1.1-3.6v-0.6
	c-0.1-1.9,0.4-3.7,1.5-5.3c1.1-1.3,2.7-2,4.4-1.9H758.8z M756.8,811.7c-0.5,0-1.1,0.2-1.5,0.5c-0.5,0.3-0.8,0.7-1,1.2v0.6
	c0,0.9,0.2,1.8,0.7,2.5c0.4,0.6,1,0.9,1.7,0.9s1.3-0.3,1.7-0.8c0.8-1.3,0.8-2.9,0-4.2C758,812,757.4,811.7,756.8,811.7z"/>
<path class="st10" d="M893.7,691.6h-2.4v-15.9l-4.8,1.8v-2.2l6.8-2.6h0.4V691.6z"/>
<path class="st10" d="M900.9,695.4l-1.3-0.9c0.8-1,1.2-2.2,1.3-3.5v-2.2h2.3v1.9c0,0.9-0.2,1.8-0.6,2.6
	C902.1,694.1,901.6,694.8,900.9,695.4z"/>
<path class="st10" d="M915.3,672.8v2h-0.4c-1.6-0.1-3.2,0.5-4.4,1.7s-1.8,2.8-1.9,4.5c1-1.1,2.5-1.8,4-1.7c1.5-0.1,2.9,0.6,3.9,1.7
	c2,2.7,2,6.4-0.1,9.1c-1.1,1.2-2.6,1.8-4.2,1.7c-1.7,0-3.3-0.7-4.4-2.1c-1.2-1.5-1.8-3.4-1.7-5.3v-0.9c0-3.5,0.7-6.1,2.2-7.9
	c1.5-1.8,3.7-2.8,6.6-2.8H915.3z M912.1,681.3c-1.6,0-3.1,1-3.7,2.6v0.9c-0.1,1.3,0.3,2.6,1,3.7c0.6,0.9,1.5,1.4,2.6,1.4
	c1,0,1.9-0.4,2.5-1.2c1.2-1.9,1.2-4.3,0-6.2C914,681.7,913.1,681.3,912.1,681.3z"/>
<path class="st10" d="M928.6,691.6h-2.4v-15.9l-4.8,1.8v-2.2l6.8-2.6h0.4V691.6z"/>
<path class="st10" d="M947,677.8c0,0.9-0.2,1.8-0.7,2.5s-1.2,1.3-2,1.7c0.9,0.4,1.7,1,2.3,1.8s0.9,1.8,0.9,2.8
	c0.1,1.5-0.5,2.9-1.7,3.9c-2.6,1.9-6.1,1.9-8.7,0c-1.1-1-1.7-2.4-1.6-3.9c0-1,0.3-1.9,0.8-2.8c0.6-0.8,1.4-1.5,2.3-1.9
	c-0.8-0.4-1.5-1-2-1.7s-0.7-1.6-0.7-2.5c-0.1-1.4,0.5-2.8,1.5-3.8c2.3-1.8,5.7-1.8,8,0C946.5,675,947.1,676.3,947,677.8z M945,686.5
	c0-1-0.3-1.9-1-2.6c-0.7-0.7-1.6-1-2.6-1c-1.8-0.1-3.4,1.3-3.6,3.1c0,0.1,0,0.3,0,0.4c0,0.9,0.3,1.8,1,2.5c1.5,1.2,3.7,1.2,5.3,0
	C944.7,688.4,945.1,687.5,945,686.5z M941.4,674.6c-0.8,0-1.7,0.3-2.3,0.9c-0.6,0.6-0.9,1.5-0.9,2.4s0.3,1.7,0.9,2.3
	c1.3,1.2,3.3,1.2,4.6,0c0.6-0.6,0.9-1.5,0.9-2.3c0-0.9-0.3-1.7-0.9-2.3C943.1,674.9,942.3,674.5,941.4,674.6L941.4,674.6z"/>
<path class="st10" d="M1043.3,684.6h-2.4v-15.9l-4.8,1.8v-2.2l6.8-2.6h0.4V684.6z"/>
<path class="st10" d="M787.4,683.7h-1.1v-7.5L784,677v-1l3.2-1.2h0.2V683.7z"/>
<path class="st10" d="M790.7,685.5l-0.6-0.4c0.4-0.5,0.6-1.1,0.6-1.7v-1h1.1v0.9c0,0.4-0.1,0.8-0.3,1.2S791.1,685.2,790.7,685.5z"/>
<path class="st10" d="M797.5,674.9v1h-0.2c-0.8,0-1.5,0.3-2.1,0.8c-0.6,0.6-0.9,1.3-0.9,2.1c0.5-0.5,1.2-0.8,1.9-0.8
	s1.4,0.3,1.8,0.8c0.9,1.3,0.9,3-0.1,4.3c-1.1,1.1-2.8,1.1-3.9,0c-0.1-0.1-0.1-0.1-0.2-0.2c-0.5-0.7-0.8-1.6-0.8-2.5V680
	c-0.1-1.3,0.3-2.7,1-3.7c0.8-0.9,1.9-1.4,3.1-1.3L797.5,674.9z M796,678.9c-0.4,0-0.8,0.1-1.1,0.3s-0.5,0.5-0.7,0.9v0.4
	c0,0.6,0.1,1.2,0.5,1.8c0.3,0.4,0.7,0.7,1.2,0.7s0.9-0.2,1.2-0.6c0.6-0.9,0.6-2,0-2.9C796.9,679,796.5,678.8,796,678.9L796,678.9z"
	/>
<path class="st10" d="M803.8,683.7h-1.1v-7.5l-2.3,0.8v-1l3.2-1.2h0.2L803.8,683.7z"/>
<path class="st10" d="M812.5,677.2c0,0.4-0.1,0.8-0.3,1.2c-0.3,0.4-0.6,0.6-1,0.8c0.4,0.2,0.8,0.5,1.1,0.9s0.4,0.8,0.4,1.3
	c0,0.7-0.3,1.4-0.8,1.8c-1.2,0.9-2.9,0.9-4.1,0c-0.5-0.5-0.8-1.1-0.8-1.8c0-0.5,0.1-0.9,0.4-1.3c0.3-0.4,0.7-0.7,1.1-0.9
	c-0.4-0.2-0.7-0.5-0.9-0.8s-0.3-0.8-0.3-1.2c0-0.7,0.2-1.3,0.7-1.8s1.2-0.7,1.9-0.7s1.4,0.2,1.9,0.7
	C812.2,675.8,812.5,676.5,812.5,677.2z M811.5,681.3c0-0.5-0.2-0.9-0.5-1.2s-0.8-0.5-1.2-0.5s-0.9,0.1-1.2,0.5
	c-0.3,0.3-0.5,0.8-0.5,1.2s0.1,0.9,0.4,1.2c0.7,0.6,1.8,0.6,2.5,0C811.4,682.2,811.6,681.7,811.5,681.3z M809.9,675.7
	c-0.4,0-0.8,0.1-1.1,0.4c-0.3,0.3-0.4,0.7-0.4,1.1c0,0.4,0.1,0.8,0.4,1.1c0.6,0.5,1.5,0.5,2.2,0c0.5-0.6,0.5-1.6,0-2.2
	C810.7,675.8,810.3,675.7,809.9,675.7z"/>
<path class="st10" d="M819,676.3l-1.2,2.9h-1l1.8-4.4h0.8l1.8,4.4h-1L819,676.3z"/>
<path class="st10" d="M830.2,680.8h1.2v0.9h-1.2v2.1h-1.1v-2.1h-4V681l4-6.1h1.2L830.2,680.8z M826.3,680.8h2.8v-4.3l-0.1,0.3
	L826.3,680.8z"/>
<path class="st10" d="M957.7,824.2h-1.1v-7.5l-2.3,0.8v-1l3.2-1.2h0.2L957.7,824.2z"/>
<path class="st10" d="M960.5,825.9l-0.6-0.4c0.4-0.5,0.6-1,0.6-1.6v-1h1.1v0.9C961.5,824.6,961.1,825.4,960.5,825.9L960.5,825.9z"/>
<path class="st10" d="M966.6,815.3v1h-0.2c-0.8,0-1.5,0.3-2.1,0.8c-0.5,0.6-0.9,1.3-0.9,2.1c0.5-0.5,1.2-0.8,1.9-0.8
	s1.4,0.3,1.8,0.8c0.5,0.6,0.7,1.3,0.7,2.1s-0.2,1.6-0.8,2.2c-1.1,1.1-2.8,1.1-3.9,0c0,0-0.1-0.1-0.1-0.2c-0.6-0.7-0.8-1.6-0.8-2.5
	v-0.4c-0.1-1.3,0.3-2.7,1-3.7c0.8-0.9,1.9-1.4,3.1-1.3L966.6,815.3z M965.2,819.3c-0.4,0-0.8,0.1-1.1,0.3s-0.5,0.5-0.7,0.9v0.4
	c0,0.6,0.1,1.2,0.5,1.8c0.3,0.4,0.7,0.7,1.2,0.7s0.9-0.2,1.2-0.6c0.6-0.9,0.6-2,0-2.9C966.1,819.5,965.6,819.3,965.2,819.3
	L965.2,819.3z"/>
<path class="st10" d="M972.3,824.2h-1.1v-7.5l-2.3,0.8v-1l3.2-1.2h0.2L972.3,824.2z"/>
<path class="st10" d="M980.3,817.6c0,0.4-0.1,0.8-0.3,1.2s-0.6,0.6-0.9,0.8c0.4,0.2,0.8,0.5,1.1,0.9s0.4,0.8,0.4,1.3
	c0,0.7-0.3,1.4-0.8,1.8c-1.2,0.9-2.9,0.9-4.1,0c-0.5-0.5-0.8-1.1-0.8-1.8c0-0.5,0.1-0.9,0.4-1.3c0.3-0.4,0.6-0.7,1.1-0.9
	c-0.4-0.2-0.7-0.5-0.9-0.8c-0.2-0.4-0.3-0.8-0.3-1.2c0-0.7,0.2-1.3,0.7-1.8c1.1-0.9,2.7-0.9,3.8,0
	C980.1,816.3,980.4,817,980.3,817.6z M979.4,821.8c0-0.5-0.2-0.9-0.5-1.2s-0.8-0.5-1.2-0.5c-0.9,0-1.6,0.6-1.7,1.5
	c0,0.1,0,0.1,0,0.2c0,0.4,0.1,0.9,0.5,1.2c0.7,0.6,1.8,0.6,2.5,0C979.3,822.6,979.4,822.2,979.4,821.8L979.4,821.8z M977.7,816.1
	c-0.4,0-0.8,0.1-1.1,0.4c-0.3,0.3-0.4,0.7-0.4,1.1c0,0.4,0.1,0.8,0.4,1.1c0.6,0.6,1.5,0.6,2.2,0c0.6-0.6,0.6-1.6,0-2.2
	C978.5,816.3,978.1,816.1,977.7,816.1L977.7,816.1z"/>
<path class="st10" d="M985.7,816.8l-1.2,2.9h-1l1.8-4.4h0.7l1.8,4.4h-1L985.7,816.8z"/>
<path class="st10" d="M992.5,819.2h0.8c0.5,0,0.9-0.1,1.3-0.4c0.6-0.6,0.6-1.6,0-2.2c-0.3-0.3-0.7-0.4-1.1-0.5
	c-0.4,0-0.9,0.1-1.2,0.4c-0.3,0.3-0.4,0.7-0.4,1.1h-1.1c0-0.7,0.3-1.3,0.8-1.8s1.3-0.7,2-0.7c0.7-0.1,1.4,0.2,2,0.7
	c0.5,0.5,0.8,1.2,0.7,1.8c0,0.4-0.1,0.8-0.4,1.1c-0.2,0.4-0.6,0.6-1,0.8c0.4,0.1,0.8,0.4,1.1,0.8c0.3,0.4,0.4,0.8,0.4,1.3
	c0,0.7-0.3,1.4-0.8,1.9c-0.6,0.5-1.3,0.7-2,0.7s-1.4-0.2-2-0.7c-0.5-0.4-0.8-1.1-0.8-1.8h1.1c0,0.4,0.1,0.8,0.5,1.1
	c0.3,0.3,0.8,0.4,1.2,0.4c0.5,0,0.9-0.1,1.2-0.4c0.3-0.3,0.5-0.8,0.4-1.2c0-0.4-0.1-0.9-0.5-1.2s-0.9-0.5-1.4-0.4h-0.8V819.2z"/>
<path class="st10" d="M734.9,873c0,2.9-0.5,5-1.5,6.4c-2.2,2.5-6.1,2.8-8.6,0.6c-0.2-0.2-0.4-0.4-0.6-0.6c-1.1-1.8-1.7-4-1.5-6.1
	V870c0-2.8,0.5-5,1.5-6.3c2.3-2.6,6.2-2.8,8.8-0.5c0.1,0.1,0.3,0.3,0.4,0.4c1,1.3,1.5,3.4,1.5,6.2L734.9,873L734.9,873z
	 M732.5,869.6c0.1-1.6-0.2-3.1-0.9-4.5c-0.6-1-1.7-1.5-2.8-1.4c-1.1-0.1-2.2,0.5-2.8,1.4c-0.7,1.4-1,2.9-0.9,4.4v3.9
	c-0.1,1.6,0.2,3.2,0.9,4.6c1,1.5,3,1.9,4.6,0.9c0.3-0.2,0.7-0.5,0.9-0.9c0.7-1.4,1-2.9,0.9-4.4L732.5,869.6z"/>
<path class="st10" d="M738.2,885.1l-1.4-1c0.8-1,1.2-2.3,1.3-3.6v-2.2h2.4v1.9c0,0.9-0.2,1.9-0.7,2.7
	C739.5,883.7,738.9,884.5,738.2,885.1z"/>
<path class="st10" d="M753,861.9v2.1h-0.5c-1.7-0.1-3.3,0.6-4.6,1.7c-1.2,1.2-1.9,2.9-2,4.6c1.1-1.2,2.6-1.8,4.2-1.8
	c1.5-0.1,3,0.6,4,1.8c2.1,2.8,2,6.6-0.1,9.4c-1.1,1.2-2.7,1.9-4.4,1.8c-1.8,0-3.4-0.7-4.5-2.1c-1.2-1.6-1.8-3.5-1.7-5.5V873
	c0-3.6,0.8-6.3,2.3-8.2s3.8-2.8,6.8-2.9L753,861.9z M749.8,870.6c-0.8,0-1.6,0.3-2.3,0.8s-1.2,1.1-1.5,1.9v0.9
	c-0.1,1.4,0.3,2.7,1.1,3.9c0.6,0.9,1.6,1.5,2.7,1.5c1,0,2-0.4,2.6-1.2c1.3-2,1.3-4.5,0-6.4C751.8,871,750.8,870.5,749.8,870.6z"/>
<path class="st10" d="M766.8,881.2h-2.5v-16.4l-5,1.8v-2.2l7-2.6h0.4L766.8,881.2z"/>
<path class="st10" d="M785.7,866.9c0,0.9-0.3,1.8-0.8,2.6s-1.2,1.4-2.1,1.8c1,0.4,1.8,1.1,2.4,1.9c0.6,0.8,0.9,1.8,0.9,2.8
	c0.1,1.5-0.6,3-1.7,4c-2.6,2-6.3,2-8.9,0c-1.1-1-1.7-2.5-1.7-4c0-1,0.3-2,0.8-2.8c0.6-0.9,1.4-1.5,2.4-1.9c-0.8-0.4-1.5-1-2-1.8
	s-0.8-1.7-0.7-2.6c-0.1-1.5,0.5-2.9,1.6-3.9c2.4-1.9,5.8-1.9,8.3,0C785.2,864,785.8,865.5,785.7,866.9z M783.7,875.9
	c0-1-0.3-1.9-1-2.7c-0.7-0.7-1.7-1-2.7-1c-1.9-0.1-3.6,1.3-3.7,3.3c0,0.1,0,0.3,0,0.4c0,1,0.3,1.9,1,2.6c1.6,1.3,3.8,1.3,5.4,0
	C783.4,877.8,783.7,876.9,783.7,875.9L783.7,875.9z M780,863.6c-0.9,0-1.7,0.3-2.3,0.9c-1.2,1.4-1.2,3.4,0,4.8
	c1.3,1.2,3.4,1.2,4.7,0c1.2-1.4,1.2-3.4,0-4.8C781.7,863.9,780.9,863.6,780,863.6z"/>
<line class="st11" x1="682.3" y1="473.3" x2="682.3" y2="888"/>
<line class="st11" x1="843.4" y1="631.8" x2="843.4" y2="888"/>
<line class="st11" x1="872.5" y1="631.8" x2="872.5" y2="729.5"/>
<line class="st11" x1="705.2" y1="792" x2="705.2" y2="809.6"/>
<line class="st11" x1="199.9" y1="217.1" x2="199.9" y2="277.9"/>
<line class="st11" x1="211.3" y1="277.9" x2="211.3" y2="283.2"/>
<line class="st11" x1="1018.6" y1="648.5" x2="1018.6" y2="708.4"/>
<path class="st10" d="M1043.3,828.3h-2.4v-15.9l-4.8,1.8V812l6.8-2.6h0.4V828.3z"/>
<line class="st11" x1="1018.6" y1="792" x2="1018.6" y2="851.9"/>
<line class="st11" x1="277.8" y1="145.4" x2="600" y2="145.4"/>
<line class="st11" x1="600" y1="852.3" x2="635.2" y2="852.3"/>
<line class="st11" x1="242.6" y1="852.3" x2="277.8" y2="852.3"/>
<polyline class="st12" points="278.2,277.4 278.2,852.3 600.4,852.3 600.4,277.4 "/>
<line class="st11" x1="599.5" y1="851.9" x2="599.5" y2="888"/>
<line class="st11" x1="705.2" y1="851.9" x2="705.2" y2="888"/>
<line class="st11" x1="278.2" y1="851.9" x2="278.2" y2="888"/>
<line class="st13" x1="631.7" y1="473.3" x2="681.9" y2="473.3"/>
<line class="st13" x1="277.8" y1="729.5" x2="872" y2="729.5"/>
<line class="st13" x1="279.5" y1="887.1" x2="843.8" y2="887.1"/>
<path class="st14" d="M601.4,263.5c80.5,0,142.2,48.8,187.5,110.8"/>
<path class="st14" d="M601.4,231.6c91,0,133.2-0.7,234.1-54.8"/>
<g class="st15">
	<path d="M562.1,234.8h31.7c1.5,0,2.6,1.2,2.6,2.6l0,0c0,1.5-1.2,2.6-2.6,2.6h-31.7c-1.5,0-2.6-1.2-2.6-2.6l0,0
		C559.5,235.9,560.7,234.8,562.1,234.8z"/>
	<path d="M562.1,248.8h31.7c1.5,0,2.6,1.2,2.6,2.6l0,0c0,1.5-1.2,2.6-2.6,2.6h-31.7c-1.5,0-2.6-1.2-2.6-2.6l0,0
		C559.5,250,560.7,248.8,562.1,248.8z"/>
	<path d="M562.1,262.9h31.7c1.5,0,2.6,1.2,2.6,2.6l0,0c0,1.5-1.2,2.6-2.6,2.6h-31.7c-1.5,0-2.6-1.2-2.6-2.6l0,0
		C559.5,264.1,560.7,262.9,562.1,262.9z"/>
</g>
<path class="st10" d="M562.1,231.2h31.7c1.5,0,2.6,1.2,2.6,2.6l0,0c0,1.5-1.2,2.6-2.6,2.6h-31.7c-1.5,0-2.6-1.2-2.6-2.6l0,0
	C559.5,232.4,560.7,231.2,562.1,231.2z"/>
<path class="st10" d="M562.1,245.3h31.7c1.5,0,2.6,1.2,2.6,2.6l0,0c0,1.5-1.2,2.6-2.6,2.6h-31.7c-1.5,0-2.6-1.2-2.6-2.6l0,0
	C559.5,246.5,560.7,245.3,562.1,245.3z"/>
<path class="st10" d="M562.1,259.4h31.7c1.5,0,2.6,1.2,2.6,2.6l0,0c0,1.5-1.2,2.6-2.6,2.6h-31.7c-1.5,0-2.6-1.2-2.6-2.6l0,0
	C559.5,260.6,560.7,259.4,562.1,259.4z"/>
<line class="st11" x1="1056.4" y1="366.8" x2="1056.4" y2="222.4"/>
<line class="st11" x1="1074.9" y1="222.4" x2="1074.9" y2="243.6"/>
<line class="st11" x1="1090.8" y1="243.6" x2="1090.8" y2="277"/>
<path class="st10" d="M1075.1,301.9h-2.4V286l-4.8,1.8v-2.2l6.8-2.6h0.4V301.9z"/>
<path class="st10" d="M1093,299.7c0-0.4-0.2-0.7-0.4-0.9c-0.5-0.3-1-0.5-1.6-0.6s-1.2-0.3-1.8-0.6c-0.4-0.2-0.7-0.5-1-0.8
	c-0.2-0.3-0.3-0.7-0.3-1.1c0-0.7,0.3-1.4,0.9-1.8c0.7-0.5,1.5-0.8,2.3-0.7c0.9,0,1.7,0.2,2.4,0.8c0.6,0.5,0.9,1.2,0.9,1.9h-1.5
	c0-0.4-0.2-0.8-0.5-1c-0.4-0.3-0.8-0.5-1.3-0.4c-0.4,0-0.9,0.1-1.3,0.4c-0.3,0.2-0.5,0.6-0.4,0.9c0,0.3,0.1,0.6,0.4,0.8
	c0.5,0.3,1,0.4,1.5,0.5c0.6,0.1,1.2,0.3,1.8,0.6c0.4,0.2,0.7,0.5,1,0.8c0.2,0.3,0.4,0.8,0.3,1.2c0,0.7-0.3,1.4-0.9,1.9
	c-0.7,0.5-1.5,0.7-2.4,0.7c-0.6,0-1.3-0.1-1.8-0.4c-0.5-0.2-0.9-0.6-1.3-1c-0.3-0.4-0.4-0.9-0.4-1.4h1.5c0,0.5,0.2,0.9,0.6,1.2
	c0.4,0.3,0.9,0.5,1.5,0.4c0.5,0,0.9-0.1,1.3-0.3C1092.8,300.4,1093,300.1,1093,299.7z"/>
<path class="st10" d="M1096,297.6c-0.1-1.1,0.3-2.3,0.9-3.2c1.2-1.4,3.3-1.6,4.6-0.4c0.1,0.1,0.2,0.2,0.3,0.3l0.1-0.9h1.4v11.9h-1.5
	v-4.1c-0.6,0.7-1.5,1-2.4,1c-1,0-1.9-0.4-2.5-1.2c-0.7-0.9-1-2.1-0.9-3.2V297.6z M1097.5,297.7c0,0.8,0.2,1.6,0.6,2.3
	c0.4,0.5,1,0.9,1.7,0.9c0.8,0,1.6-0.4,2-1.2v-4.2c-0.4-0.7-1.2-1.2-2-1.1c-0.7,0-1.3,0.3-1.7,0.9
	C1097.6,296,1097.4,296.9,1097.5,297.7L1097.5,297.7z"/>
<path class="st10" d="M1111,301.1c-0.6,0.7-1.6,1.1-2.5,1c-0.8,0.1-1.6-0.2-2.1-0.8c-0.5-0.7-0.8-1.5-0.7-2.4v-5.6h1.5v5.6
	c0,1.3,0.5,2,1.6,2c0.9,0.1,1.8-0.4,2.3-1.3v-6.3h1.5v8.6h-1.4v-0.8H1111z"/>
<path class="st10" d="M1120,302c-0.1-0.3-0.2-0.6-0.2-0.9c-0.6,0.7-1.5,1.1-2.5,1.1c-0.8,0-1.5-0.2-2.1-0.7
	c-0.5-0.5-0.8-1.1-0.8-1.8c0-0.8,0.3-1.6,1-2.1c0.9-0.5,1.9-0.8,2.9-0.8h1.4v-0.7c0-0.5-0.1-0.9-0.5-1.2c-0.4-0.3-0.9-0.5-1.4-0.5
	s-0.9,0.1-1.3,0.4c-0.3,0.2-0.5,0.6-0.5,1h-1.5c0-0.5,0.2-0.9,0.5-1.3s0.7-0.8,1.2-1s1.1-0.4,1.7-0.4c0.8,0,1.7,0.2,2.3,0.7
	c0.6,0.5,0.9,1.3,0.9,2.1v4c0,0.6,0.1,1.3,0.3,1.9v0.1L1120,302L1120,302z M1117.6,300.9c0.5,0,0.9-0.1,1.3-0.4
	c0.4-0.2,0.7-0.5,0.9-0.9v-1.8h-1.2c-1.8,0-2.7,0.5-2.7,1.6c0,0.4,0.1,0.8,0.5,1.1C1116.7,300.7,1117.1,300.8,1117.6,300.9
	L1117.6,300.9z"/>
<path class="st10" d="M1127.7,294.6c-0.2,0-0.5-0.1-0.7-0.1c-0.9-0.1-1.7,0.4-2,1.2v6.2h-1.5v-8.6h1.4v1c0.4-0.7,1.2-1.2,2.1-1.1
	c0.2,0,0.4,0,0.7,0.1V294.6z"/>
<path class="st10" d="M1132.4,302.1c-1.1,0-2.1-0.4-2.8-1.1c-0.8-0.8-1.2-1.9-1.1-3.1v-0.3c0-0.8,0.2-1.6,0.5-2.3
	c0.3-0.6,0.8-1.2,1.4-1.6s1.2-0.6,1.9-0.6c1-0.1,2,0.4,2.6,1.1c0.7,0.9,1,2,0.9,3.2v0.6h-5.8c0,0.8,0.2,1.5,0.8,2.1
	c0.5,0.5,1.1,0.8,1.8,0.8c0.5,0,0.9-0.1,1.3-0.3c0.4-0.2,0.7-0.5,1-0.9l0.9,0.7C1135.1,301.6,1133.8,302.2,1132.4,302.1z
	 M1132.3,294.4c-0.6,0-1.1,0.2-1.5,0.6c-0.4,0.5-0.7,1.1-0.8,1.8h4.3v-0.1c0-0.6-0.2-1.2-0.6-1.7
	C1133.4,294.6,1132.8,294.4,1132.3,294.4L1132.3,294.4z"/>
<path class="st10" d="M1109.8,262.2c0.1,1.5-0.3,2.9-1,4.2c-1.5,1.6-4,1.8-5.6,0.3c-0.1-0.1-0.2-0.2-0.3-0.3c-0.7-1.2-1.1-2.6-1-4
	v-2.1c-0.1-1.4,0.2-2.9,0.9-4.1c1.5-1.7,4-1.8,5.6-0.4c0.1,0.1,0.2,0.2,0.4,0.4c0.7,1.2,1.1,2.6,1,4V262.2z M1108.2,260
	c0.1-1-0.1-2.1-0.6-3c-0.4-0.6-1.1-1-1.8-0.9c-0.7,0-1.4,0.3-1.8,0.9c-0.4,0.9-0.6,1.9-0.6,2.8v2.5c-0.1,1,0.1,2.1,0.6,3
	c0.6,1,2,1.3,2.9,0.6c0.2-0.1,0.4-0.3,0.6-0.6c0.4-0.9,0.7-1.9,0.6-2.9V260H1108.2z"/>
<path class="st10" d="M1111.9,270l-0.9-0.6c0.5-0.7,0.8-1.5,0.8-2.3v-1.4h1.6v1.3c0,0.6-0.1,1.2-0.4,1.7
	C1112.8,269.2,1112.4,269.7,1111.9,270z"/>
<path class="st10" d="M1123.5,267.5h-8.2v-1.1l4.3-4.8c0.5-0.5,0.9-1.1,1.3-1.8c0.2-0.4,0.4-0.9,0.4-1.4c0-0.6-0.2-1.2-0.6-1.6
	s-1-0.7-1.6-0.6c-0.7,0-1.3,0.2-1.8,0.7s-0.7,1.2-0.7,1.9h-1.6c0-1,0.4-2.1,1.1-2.8c0.8-0.7,1.9-1.1,3-1.1c1-0.1,2,0.3,2.8,0.9
	c0.7,0.6,1,1.5,1,2.4c0,1.2-0.8,2.7-2.4,4.4l-3.3,3.6h6.3L1123.5,267.5z"/>
<path class="st10" d="M1127.5,260.5h1.2c0.6,0,1.3-0.2,1.8-0.6c0.4-0.4,0.7-1,0.6-1.6c0.2-1.1-0.6-2-1.6-2.2c-0.2,0-0.4,0-0.5,0
	c-0.6,0-1.2,0.2-1.7,0.6c-0.4,0.4-0.6,1-0.6,1.6h-1.6c0-0.9,0.4-1.9,1.1-2.5c1.6-1.3,3.9-1.3,5.5,0c0.7,0.7,1.1,1.6,1,2.6
	c0,0.6-0.2,1.1-0.5,1.6c-0.4,0.5-0.9,0.9-1.4,1.1c0.6,0.2,1.2,0.6,1.6,1.1s0.6,1.2,0.6,1.9c0,1-0.4,2-1.1,2.7c-0.8,0.7-1.8,1-2.9,1
	c-1,0-2.1-0.3-2.9-1c-0.7-0.6-1.1-1.6-1.1-2.5h1.6c0,0.6,0.2,1.2,0.6,1.6c0.5,0.4,1.1,0.6,1.7,0.6s1.3-0.2,1.8-0.6
	c0.4-0.5,0.7-1.1,0.6-1.7c0-0.6-0.2-1.2-0.7-1.7c-0.6-0.4-1.2-0.6-1.9-0.6h-1.2V260.5z"/>
<path class="st10" d="M1141.3,255v1.4h-0.3c-1.1,0-2.2,0.3-3,1.1c-0.8,0.8-1.2,1.9-1.3,3c0.7-0.8,1.7-1.2,2.7-1.1c1,0,2,0.4,2.6,1.1
	c1.3,1.8,1.3,4.3-0.1,6.1c-0.7,0.8-1.8,1.2-2.8,1.2c-1.1,0-2.2-0.5-2.9-1.4c-0.8-1-1.2-2.3-1.1-3.5v-0.6c-0.1-1.9,0.4-3.7,1.5-5.3
	c1.1-1.3,2.7-2,4.4-1.9h0.3V255z M1139.2,260.6c-1.1,0-2.1,0.7-2.5,1.7v0.6c0,0.9,0.2,1.8,0.7,2.5c0.4,0.6,1,1,1.7,1
	s1.3-0.3,1.7-0.8c0.8-1.3,0.8-2.9,0-4.2C1140.5,261,1139.9,260.7,1139.2,260.6L1139.2,260.6z"/>
<path class="st10" d="M1090.4,361.3c0.1,1.5-0.3,2.9-1,4.1c-1.5,1.7-4,1.8-5.6,0.4c-0.1-0.1-0.2-0.2-0.4-0.4c-0.7-1.2-1.1-2.6-1-4
	v-2.1c-0.1-1.4,0.3-2.9,1-4.1c0.7-0.9,1.8-1.4,3-1.3c1.2-0.1,2.3,0.4,3,1.3c0.7,1.2,1.1,2.6,1,4V361.3z M1088.8,359.1
	c0.1-1-0.1-2-0.6-2.9c-0.7-1-2.1-1.2-3-0.5c-0.2,0.1-0.4,0.3-0.5,0.5c-0.4,0.9-0.6,1.9-0.6,2.8v2.5c-0.1,1,0.1,2.1,0.6,3
	c0.4,0.6,1,1,1.8,1c0.7,0,1.4-0.3,1.8-0.9c0.4-0.9,0.7-1.9,0.6-2.9L1088.8,359.1z"/>
<path class="st10" d="M1092.6,369.1l-0.9-0.6c0.5-0.7,0.8-1.5,0.8-2.3v-1.4h1.6v1.3C1094,367.2,1093.5,368.3,1092.6,369.1
	L1092.6,369.1z"/>
<path class="st10" d="M1103.8,361.3c0.1,1.5-0.3,2.9-1,4.1c-1.5,1.7-4,1.8-5.6,0.4c-0.1-0.1-0.2-0.2-0.4-0.4c-0.7-1.2-1.1-2.6-1-4
	v-2.1c-0.1-1.4,0.3-2.9,1-4.1c0.7-0.9,1.8-1.4,3-1.3c1.2-0.1,2.3,0.4,3,1.3c0.7,1.2,1.1,2.6,1,4V361.3z M1102.2,359.1
	c0.1-1-0.1-2-0.6-2.9c-0.4-0.6-1.1-1-1.8-0.9c-0.7,0-1.4,0.3-1.8,0.9c-0.4,0.9-0.6,1.9-0.6,2.8v2.5c-0.1,1,0.1,2.1,0.6,3
	c0.4,0.6,1.1,1,1.8,1c0.7,0,1.4-0.3,1.8-0.9c0.4-0.9,0.6-1.9,0.6-2.9V359.1z"/>
<path class="st10" d="M1111.9,361.1c-0.3,0.4-0.7,0.7-1.2,1c-0.5,0.2-1,0.4-1.5,0.4c-0.7,0-1.3-0.2-1.9-0.5c-0.5-0.4-1-0.9-1.2-1.5
	c-0.6-1.4-0.6-3,0-4.4c0.3-0.6,0.8-1.2,1.3-1.5c0.6-0.4,1.3-0.5,2-0.5c1.1,0,2.2,0.5,2.9,1.4c0.8,1.1,1.1,2.4,1.1,3.8v0.5
	c0,2.4-0.5,4.2-1.4,5.3c-1.1,1.2-2.7,1.8-4.4,1.7h-0.3v-1.4h0.3c2.1,0.2,4-1.3,4.2-3.4C1111.8,361.7,1111.8,361.4,1111.9,361.1
	L1111.9,361.1z M1109.5,361.1c0.5,0,1-0.2,1.5-0.5c0.4-0.3,0.8-0.7,1-1.2v-0.6c0-0.9-0.2-1.8-0.7-2.5c-0.6-1-1.9-1.3-2.9-0.7
	c-0.2,0.1-0.4,0.3-0.5,0.5c-0.4,0.6-0.7,1.4-0.6,2.1c0,0.8,0.2,1.5,0.6,2.1C1108.2,360.8,1108.8,361.1,1109.5,361.1L1109.5,361.1z"
	/>
<path class="st10" d="M1090.4,234.3c0.1,1.5-0.3,2.9-1,4.1c-1.5,1.7-4,1.8-5.6,0.4c-0.1-0.1-0.2-0.2-0.4-0.4c-0.7-1.2-1.1-2.6-1-4
	v-2.1c-0.1-1.4,0.3-2.9,1-4.1c0.7-0.9,1.8-1.4,3-1.3c1.2-0.1,2.3,0.4,3,1.3c0.7,1.2,1.1,2.6,1,4V234.3z M1088.8,232.2
	c0.1-1-0.1-2-0.6-2.9c-0.7-1-2.1-1.2-3-0.5c-0.2,0.1-0.4,0.3-0.5,0.5c-0.4,0.9-0.6,1.9-0.6,2.8v2.6c-0.1,1,0.1,2.1,0.6,3
	c0.4,0.6,1,1,1.8,1c0.7,0,1.4-0.3,1.8-0.9c0.4-0.9,0.7-1.9,0.6-2.9L1088.8,232.2z"/>
<path class="st10" d="M1092.6,242.2l-0.9-0.6c0.5-0.7,0.8-1.5,0.8-2.3v-1.4h1.6v1.2c0,0.6-0.2,1.2-0.4,1.7
	C1093.4,241.3,1093,241.8,1092.6,242.2z"/>
<path class="st10" d="M1101.1,239.7h-1.6v-10.6l-3.2,1.2v-1.4l4.6-1.7h0.3L1101.1,239.7z"/>
<path class="st10" d="M1112.5,235.5h1.7v1.3h-1.7v2.9h-1.6v-2.9h-5.7v-0.9l5.6-8.7h1.7V235.5z M1107,235.5h3.9v-6.1l-0.2,0.4
	L1107,235.5z"/>
<path class="st10" d="M1121.9,227.1v1.4h-0.3c-1.1,0-2.2,0.3-3,1.1s-1.2,1.9-1.3,3c0.7-0.8,1.7-1.2,2.7-1.1c1,0,2,0.4,2.6,1.1
	c1.3,1.8,1.3,4.3-0.1,6.1c-0.7,0.8-1.8,1.2-2.8,1.2c-1.1,0-2.2-0.5-2.9-1.4c-0.8-1-1.2-2.3-1.1-3.6v-0.6c-0.1-1.9,0.4-3.7,1.5-5.3
	c1.1-1.3,2.7-2,4.4-1.9H1121.9z M1119.8,232.8c-0.5,0-1.1,0.2-1.5,0.5c-0.5,0.3-0.8,0.7-1,1.2v0.6c0,0.9,0.2,1.8,0.7,2.5
	c0.4,0.6,1,0.9,1.7,0.9s1.3-0.3,1.7-0.8c0.4-0.6,0.7-1.3,0.6-2.1c0-0.7-0.2-1.5-0.6-2.1C1121.1,233.1,1120.5,232.8,1119.8,232.8
	L1119.8,232.8z"/>
<circle class="st16" cx="887.9" cy="293.7" r="128.1"/>
<g class="st15">
	<path d="M828,237.4h120.6c5.8,0,10.6,4.7,10.6,10.6l0,0c0,5.8-4.7,10.6-10.6,10.6H828c-5.8,0-10.6-4.7-10.6-10.6l0,0
		C817.4,242.1,822.2,237.4,828,237.4z"/>
	<path d="M828,291.1h120.6c5.8,0,10.6,4.7,10.6,10.6l0,0c0,5.8-4.7,10.6-10.6,10.6H828c-5.8,0-10.6-4.7-10.6-10.6l0,0
		C817.4,295.8,822.2,291.1,828,291.1z"/>
	<path d="M828,345.7h120.6c5.8,0,10.6,4.7,10.6,10.6l0,0c0,5.8-4.7,10.6-10.6,10.6H828c-5.8,0-10.6-4.7-10.6-10.6l0,0
		C817.4,350.4,822.2,345.7,828,345.7z"/>
</g>
<path class="st10" d="M828,222.4h120.6c5.8,0,10.6,4.7,10.6,10.6l0,0c0,5.8-4.7,10.6-10.6,10.6H828c-5.8,0-10.6-4.7-10.6-10.6l0,0
	C817.4,227.1,822.2,222.4,828,222.4z"/>
<path class="st10" d="M828,276.1h120.6c5.8,0,10.6,4.7,10.6,10.6l0,0c0,5.8-4.7,10.6-10.6,10.6H828c-5.8,0-10.6-4.7-10.6-10.6l0,0
	C817.4,280.8,822.2,276.1,828,276.1z"/>
<path class="st10" d="M828,330.7h120.6c5.8,0,10.6,4.7,10.6,10.6l0,0c0,5.8-4.7,10.6-10.6,10.6H828c-5.8,0-10.6-4.7-10.6-10.6l0,0
	C817.4,335.4,822.2,330.7,828,330.7z"/>
<line class="st11" x1="1074.9" y1="351" x2="1074.9" y2="366.8"/>
<polygon class="st17" points="433.4,827.7 421.1,815.4 414.4,822.1 433.5,841.1 464.2,810.4 457.5,803.6 "/>
<rect x="243" y="472" class="st18" width="392.6" height="415.5"/>
<rect x="392.7" y="215.8" class="st18" width="243" height="257.1"/>
<rect x="243" y="215.8" class="st18" width="149.7" height="158.5"/>
<rect x="243" y="374.3" class="st18" width="92.4" height="97.7"/>
<rect x="335.5" y="411.3" class="st18" width="57.2" height="60.7"/>
<path class="st19" d="M242.1,887.3L242.1,887.3V472h392.8C634.9,701.4,459,887.3,242.1,887.3z"/>
<path class="st19" d="M635.4,472H392.7V215.3l0,0C526.7,215.3,635.4,330.2,635.4,472L635.4,472z"/>
<path class="st19" d="M242.5,374.3L242.5,374.3c0-87.6,67.2-158.7,150.1-158.7l0,0"/>
<path class="st19" d="M335.5,472.3L335.5,472.3c-51.2,0-92.7-43.9-92.7-98.1h92.7V472.3z"/>
<path class="st19" d="M392.8,412.1c0,33.5-25.7,60.6-57.3,60.6l0,0v-60.6H392.8z"/>
<path class="st10" d="M295.6,545.5h9.3v1.3H294V528h1.6V545.5z"/>
<path class="st10" d="M306.7,539.7c0-1.3,0.2-2.5,0.8-3.6c1-2.1,3.1-3.5,5.4-3.4c1.7,0,3.4,0.7,4.5,2c1.2,1.4,1.8,3.3,1.7,5.2v0.3
	c0,1.3-0.2,2.5-0.8,3.6c-0.5,1-1.2,1.9-2.2,2.5s-2.1,0.9-3.2,0.9c-1.7,0-3.4-0.7-4.5-2c-1.2-1.4-1.8-3.3-1.7-5.2L306.7,539.7
	L306.7,539.7z M308.3,540.1c-0.1,1.5,0.4,2.9,1.3,4.1c1.5,1.9,4.3,2.1,6.2,0.6c0.2-0.2,0.4-0.4,0.6-0.6c0.9-1.2,1.4-2.7,1.3-4.2
	v-0.3c0-1-0.2-2-0.6-2.9c-0.3-0.8-0.9-1.5-1.7-2.1c-0.7-0.5-1.6-0.7-2.5-0.7c-1.3,0-2.6,0.6-3.4,1.6c-0.9,1.2-1.4,2.7-1.3,4.2
	L308.3,540.1z"/>
<path class="st10" d="M328.8,534.2c-0.3-0.1-0.7-0.1-1-0.1c-0.9,0-1.7,0.3-2.4,0.8c-0.7,0.6-1.2,1.4-1.4,2.3v9.6h-1.5v-14h1.5v2.2
	c0.7-1.6,2.2-2.5,3.9-2.5c0.3,0,0.7,0,1,0.2L328.8,534.2z"/>
<path class="st10" d="M336.4,547.1c-1.1,0-2.2-0.3-3.2-0.9c-1-0.6-1.7-1.4-2.2-2.4c-0.5-1.1-0.8-2.3-0.8-3.5v-0.5
	c0-1.3,0.2-2.5,0.8-3.6c0.5-1,1.2-1.9,2.2-2.5c0.9-0.6,1.9-0.9,3-0.9c1.5-0.1,3,0.6,4,1.7c1.1,1.3,1.6,3,1.5,4.7v0.9h-10v0.3
	c-0.1,1.5,0.4,2.9,1.4,4c0.8,1,2.1,1.6,3.4,1.6c0.8,0,1.5-0.1,2.2-0.5c0.7-0.3,1.3-0.8,1.7-1.4l1,0.7
	C340.2,546.3,338.3,547.2,336.4,547.1z M336.1,534c-1.1,0-2.2,0.5-2.9,1.3c-0.8,1-1.3,2.2-1.5,3.4h8.4v-0.2c0-1.2-0.4-2.4-1.1-3.3
	C338.3,534.4,337.2,534,336.1,534z"/>
<path class="st10" d="M346.1,532.9v2.3c0.5-0.8,1.1-1.5,1.9-1.9s1.7-0.6,2.6-0.6c2.2,0,3.6,0.9,4.2,2.7c0.5-0.8,1.2-1.5,2-2
	s1.8-0.7,2.8-0.7c3,0,4.5,1.6,4.6,4.9v9.3h-1.5v-9.2c0.1-1-0.2-2-0.8-2.8c-0.7-0.7-1.6-1-2.6-0.9c-1,0-2,0.4-2.8,1.1
	c-0.7,0.7-1.2,1.6-1.3,2.6v9.2h-1.5v-9.3c0.1-1-0.2-1.9-0.8-2.7c-0.7-0.6-1.6-1-2.6-0.9c-0.9,0-1.8,0.3-2.5,0.8
	c-0.8,0.6-1.3,1.5-1.5,2.5v9.6h-1.5v-14L346.1,532.9z"/>
<path class="st10" d="M374.4,528.9c0-0.3,0.1-0.5,0.3-0.7c0.4-0.4,1.1-0.4,1.5,0c0.2,0.2,0.3,0.5,0.3,0.7c0,0.3-0.1,0.5-0.3,0.7
	c-0.4,0.4-1.1,0.4-1.5,0C374.5,529.4,374.4,529.1,374.4,528.9z M376.2,546.9h-1.5v-14h1.5V546.9z"/>
<path class="st10" d="M391.6,540c0.1,1.8-0.4,3.7-1.5,5.2c-0.9,1.2-2.3,2-3.9,1.9c-1.7,0.1-3.3-0.6-4.4-2v7.1h-1.5v-19.3h1.4l0.1,2
	c1-1.5,2.6-2.3,4.4-2.2c1.5-0.1,3,0.6,3.9,1.9c1,1.6,1.5,3.4,1.4,5.3L391.6,540z M390.1,539.7c0.1-1.5-0.3-3-1.1-4.2
	c-0.7-1-1.8-1.6-3-1.5c-1.8-0.1-3.4,1-4,2.7v6.7c0.3,0.8,0.9,1.4,1.6,1.8c0.7,0.4,1.6,0.7,2.4,0.6c1.2,0,2.3-0.6,3-1.5
	C389.8,542.9,390.2,541.3,390.1,539.7L390.1,539.7z"/>
<path class="st10" d="M403.4,543.3c0-0.7-0.3-1.4-0.9-1.8c-0.8-0.6-1.8-0.9-2.8-1.1c-1-0.2-2-0.5-2.9-0.9c-0.6-0.3-1.1-0.7-1.5-1.3
	c-0.3-0.5-0.5-1.2-0.5-1.8c0-1.1,0.5-2.1,1.4-2.7c1-0.7,2.3-1.1,3.5-1.1c1.3-0.1,2.7,0.3,3.8,1.2c0.9,0.7,1.4,1.8,1.4,3h-1.5
	c0-0.8-0.4-1.5-1-2c-1.5-1-3.5-1.1-5-0.1c-0.6,0.4-0.9,1.1-0.9,1.8c0,0.6,0.3,1.2,0.8,1.6c0.9,0.5,1.8,0.8,2.8,1s2,0.5,3,1
	c0.6,0.3,1.1,0.7,1.5,1.3c0.3,0.6,0.5,1.2,0.5,1.8c0,1.1-0.5,2.2-1.4,2.8c-1.1,0.7-2.4,1.1-3.7,1.1c-1.4,0.1-2.8-0.3-4-1.2
	c-1-0.7-1.5-1.8-1.5-3h1.5c0,0.8,0.5,1.6,1.1,2.1c0.8,0.5,1.8,0.8,2.8,0.8c0.9,0,1.8-0.2,2.6-0.7C403,544.7,403.4,544,403.4,543.3z"
	/>
<path class="st10" d="M417.4,545.1c-1,1.4-2.7,2.2-4.5,2c-1.3,0.1-2.5-0.4-3.4-1.3c-0.8-1.1-1.3-2.5-1.2-3.8v-9h1.5v8.9
	c0,2.7,1.1,4,3.2,4s3.6-0.9,4.2-2.8V533h1.5v14h-1.5L417.4,545.1z"/>
<path class="st10" d="M424.3,532.9v2.3c0.5-0.8,1.1-1.4,1.9-1.9c0.8-0.4,1.7-0.6,2.6-0.6c2.2,0,3.6,0.9,4.2,2.7c0.5-0.8,1.2-1.5,2-2
	s1.8-0.7,2.8-0.7c3,0,4.5,1.6,4.6,4.9v9.3h-1.5v-9.2c0.1-1-0.2-2-0.8-2.8c-0.7-0.7-1.6-1-2.6-0.9c-1,0-2,0.4-2.8,1.1
	c-0.7,0.7-1.2,1.6-1.3,2.6v9.2h-1.5v-9.3c0.1-1-0.2-1.9-0.9-2.7c-0.7-0.6-1.6-1-2.6-0.9c-0.9,0-1.8,0.3-2.5,0.8
	c-0.8,0.6-1.3,1.5-1.5,2.5v9.6h-1.5v-14L424.3,532.9z"/>
<path class="st10" d="M452.1,539.7c-0.1-1.8,0.4-3.7,1.5-5.2c0.9-1.3,2.4-2,3.9-1.9c1.7-0.1,3.4,0.8,4.3,2.2V527h1.5v19.8h-1.4
	l-0.1-1.9c-1,1.4-2.6,2.2-4.4,2.1c-1.5,0-3-0.7-3.9-1.9c-1.1-1.5-1.6-3.4-1.5-5.3L452.1,539.7z M453.7,540c-0.1,1.5,0.3,2.9,1.1,4.2
	c0.7,1,1.8,1.6,3,1.5c1.7,0.1,3.4-0.9,4-2.5v-6.5c-0.6-1.7-2.2-2.8-4-2.7c-1.2,0-2.3,0.5-3,1.5C454,536.9,453.6,538.4,453.7,540
	L453.7,540z"/>
<path class="st10" d="M466.6,539.7c0-1.3,0.2-2.5,0.8-3.6c1-2.1,3.1-3.5,5.4-3.4c1.7,0,3.4,0.7,4.5,2c1.2,1.4,1.8,3.3,1.7,5.2v0.3
	c0,1.3-0.2,2.5-0.8,3.6c-0.5,1-1.2,1.9-2.2,2.5s-2.1,0.9-3.2,0.9c-1.7,0-3.4-0.7-4.5-2c-1.2-1.4-1.8-3.3-1.7-5.2L466.6,539.7
	L466.6,539.7z M468.1,540.1c-0.1,1.5,0.4,2.9,1.3,4.1c1.5,1.9,4.3,2.1,6.2,0.6c0.2-0.2,0.4-0.4,0.6-0.6c0.9-1.2,1.4-2.7,1.3-4.2
	v-0.3c0-1-0.2-2-0.6-2.9c-0.3-0.8-0.9-1.5-1.7-2.1c-0.7-0.5-1.6-0.7-2.5-0.7c-1.3,0-2.6,0.6-3.4,1.6c-0.9,1.2-1.4,2.7-1.3,4.2
	L468.1,540.1z"/>
<path class="st10" d="M483.9,546.8h-1.5V527h1.5V546.8z"/>
<path class="st10" d="M487.3,539.7c0-1.3,0.2-2.5,0.8-3.6c1-2.1,3.1-3.5,5.4-3.4c1.7,0,3.4,0.7,4.5,2c1.2,1.4,1.8,3.3,1.7,5.2v0.3
	c0,1.3-0.2,2.5-0.8,3.6c-0.5,1-1.2,1.9-2.2,2.5s-2.1,0.9-3.2,0.9c-1.7,0-3.4-0.7-4.5-2c-1.2-1.4-1.8-3.3-1.7-5.2L487.3,539.7
	L487.3,539.7z M488.8,540.1c-0.1,1.5,0.4,2.9,1.3,4.1c1.5,1.9,4.3,2.1,6.2,0.6c0.2-0.2,0.4-0.4,0.6-0.6c0.9-1.2,1.4-2.7,1.3-4.2
	v-0.3c0-1-0.2-2-0.6-2.9c-0.3-0.8-0.9-1.5-1.7-2.1c-0.7-0.5-1.6-0.7-2.5-0.7c-1.3,0-2.6,0.6-3.4,1.6c-0.9,1.2-1.4,2.7-1.3,4.2
	L488.8,540.1z"/>
<path class="st10" d="M509.4,534.2c-0.3-0.1-0.7-0.1-1-0.1c-0.9,0-1.7,0.3-2.4,0.8c-0.7,0.6-1.2,1.4-1.4,2.3v9.6H503v-14h1.5v2.2
	c0.7-1.6,2.2-2.5,3.9-2.5c0.3,0,0.7,0,1,0.2V534.2z"/>
<path class="st10" d="M302,575c0-0.7-0.3-1.4-0.9-1.8c-0.8-0.6-1.8-0.9-2.8-1.1c-1-0.2-2-0.5-2.9-0.9c-0.6-0.3-1.1-0.7-1.5-1.3
	c-0.3-0.5-0.5-1.2-0.5-1.8c0-1.1,0.5-2.1,1.4-2.7c1-0.8,2.3-1.1,3.5-1.1c1.3-0.1,2.7,0.3,3.8,1.2c0.9,0.7,1.4,1.8,1.4,3H302
	c0-0.8-0.4-1.5-1-2c-1.5-1-3.4-1.1-5-0.1c-0.6,0.4-0.9,1.1-0.9,1.8c0,0.6,0.3,1.2,0.8,1.6c0.9,0.5,1.8,0.8,2.8,1s2,0.5,3,1
	c0.6,0.3,1.1,0.7,1.5,1.3c0.9,1.6,0.5,3.6-0.9,4.7c-1.1,0.8-2.4,1.1-3.7,1.1c-1.4,0.1-2.8-0.3-4-1.2c-1-0.7-1.5-1.8-1.5-3h1.5
	c0,0.8,0.4,1.6,1.1,2.1c0.8,0.5,1.8,0.8,2.8,0.8c0.9,0,1.8-0.2,2.6-0.7C301.6,576.4,302,575.7,302,575z"/>
<path class="st10" d="M306.9,560.6c0-0.3,0.1-0.5,0.3-0.7c0.2-0.2,0.5-0.3,0.8-0.3s0.6,0.1,0.8,0.3c0.2,0.2,0.3,0.5,0.3,0.7
	c0,0.6-0.4,1-1,1c0,0,0,0-0.1,0c-0.3,0-0.6-0.1-0.8-0.3C307,561.1,306.9,560.8,306.9,560.6z M308.8,578.6h-1.5v-14h1.5V578.6z"/>
<path class="st10" d="M315.4,561v3.6h2.9v1.3h-2.9v9.3c0,0.6,0.1,1.2,0.4,1.7c0.3,0.4,0.9,0.6,1.4,0.6c0.4,0,0.8-0.1,1.3-0.1
	l0.1,1.3c-0.5,0.2-1.1,0.2-1.6,0.2c-0.9,0.1-1.7-0.3-2.3-0.9c-0.5-0.8-0.8-1.8-0.7-2.7V566h-2.6v-1.3h2.6V561H315.4z"/>
<path class="st10" d="M336.7,578.5c-0.2-0.6-0.3-1.3-0.3-2c-0.5,0.7-1.3,1.3-2.1,1.6c-0.8,0.4-1.7,0.6-2.7,0.6
	c-1.2,0-2.4-0.3-3.3-1.1c-0.8-0.7-1.3-1.8-1.2-2.8c0-1.3,0.6-2.5,1.7-3.2c1.4-0.9,3.1-1.3,4.7-1.2h2.8v-1.6c0-0.9-0.3-1.7-0.9-2.3
	c-0.8-0.6-1.7-0.9-2.7-0.9s-1.9,0.3-2.7,0.8c-0.7,0.5-1.1,1.2-1.1,2h-1.5c0-1.2,0.6-2.2,1.5-2.9c1.1-0.8,2.4-1.3,3.8-1.2
	c1.3-0.1,2.6,0.3,3.7,1.2c0.9,0.8,1.4,2,1.4,3.3v6.6c0,1,0.1,2,0.4,3v0.2L336.7,578.5z M331.8,577.4c1,0,1.9-0.2,2.8-0.8
	c0.8-0.5,1.4-1.2,1.8-2v-3.1h-2.8c-1.3-0.1-2.5,0.2-3.6,0.8c-0.8,0.5-1.3,1.3-1.3,2.3c0,0.7,0.3,1.5,0.9,2
	C330.2,577.2,331,577.5,331.8,577.4z"/>
<path class="st10" d="M343.4,564.6v2.3c0.5-0.8,1.1-1.5,1.9-1.9s1.7-0.6,2.6-0.6c2.2,0,3.6,0.9,4.2,2.7c0.5-0.8,1.2-1.5,2-2
	s1.8-0.7,2.8-0.7c3,0,4.5,1.6,4.6,4.9v9.3H360v-9.2c0.1-1-0.2-2-0.8-2.8c-0.7-0.7-1.6-1-2.6-0.9c-1,0-2,0.4-2.8,1.1
	c-0.7,0.7-1.2,1.6-1.3,2.6v9.2H351v-9.3c0.1-1-0.2-1.9-0.9-2.7c-0.7-0.6-1.6-1-2.5-0.9c-0.9,0-1.8,0.3-2.5,0.8
	c-0.8,0.6-1.3,1.5-1.5,2.5v9.6H342v-14L343.4,564.6L343.4,564.6z"/>
<path class="st10" d="M370.8,578.8c-1.1,0-2.2-0.3-3.2-0.9c-1-0.6-1.7-1.4-2.2-2.4c-0.5-1.1-0.8-2.3-0.8-3.5v-0.5
	c0-1.3,0.2-2.5,0.8-3.6c0.5-1,1.2-1.9,2.2-2.5c0.9-0.6,1.9-0.9,3-0.9c1.5-0.1,3,0.6,4,1.7c1.1,1.3,1.6,3,1.5,4.7v0.9h-9.9v0.3
	c-0.1,1.5,0.4,2.9,1.4,4c0.8,1,2.1,1.6,3.4,1.6c0.8,0,1.5-0.1,2.2-0.5c0.7-0.3,1.3-0.8,1.7-1.4l1,0.7
	C374.7,578,372.8,578.9,370.8,578.8z M370.5,565.6c-1.1,0-2.2,0.4-2.9,1.3c-0.8,1-1.4,2.2-1.5,3.4h8.4v-0.2c0-1.2-0.4-2.3-1.1-3.3
	C372.7,566.1,371.6,565.6,370.5,565.6L370.5,565.6z"/>
<path class="st10" d="M381.5,561v3.6h2.9v1.3h-2.9v9.3c0,0.6,0.1,1.2,0.4,1.7c0.3,0.4,0.9,0.6,1.4,0.6c0.4,0,0.8-0.1,1.3-0.1
	l0.1,1.3c-0.5,0.2-1.1,0.2-1.6,0.2c-0.9,0.1-1.7-0.3-2.3-0.9c-0.5-0.8-0.8-1.8-0.7-2.7V566h-2.6v-1.3h2.6V561H381.5z"/>
<path class="st10" d="M387.4,577.6c0-0.3,0.1-0.6,0.3-0.8c0.2-0.2,0.5-0.3,0.8-0.3s0.6,0.1,0.8,0.3c0.2,0.2,0.3,0.5,0.3,0.8
	s-0.1,0.5-0.3,0.7c-0.2,0.2-0.5,0.3-0.8,0.3s-0.6-0.1-0.8-0.3C387.5,578.2,387.4,577.9,387.4,577.6z"/>
<line class="st13" x1="277.8" y1="650.3" x2="1018.2" y2="650.3"/>
<line class="st13" x1="277.8" y1="711" x2="1018.2" y2="711"/>
<line class="st13" x1="549.8" y1="792" x2="1018.2" y2="792"/>
<line class="st13" x1="549.8" y1="808.7" x2="704.8" y2="808.7"/>
<line class="st13" x1="549.8" y1="851.9" x2="1018.2" y2="851.9"/>
<line class="st13" x1="277.8" y1="631.8" x2="872" y2="631.8"/>
<circle class="st0" cx="438.5" cy="191.8" r="8.8"/>
<circle class="st20" cx="438.5" cy="191.8" r="5.5"/>
<circle class="st2" cx="438.5" cy="191.8" r="3.4"/>
<circle cx="392.5" cy="191.8" r="3.4"/>
<polygon class="st21" points="1676.4,172.3 1691.7,187.2 1676.4,187.2 "/>
<polygon class="st21" points="1270.6,943.3 1255.3,928.5 1270.6,928.5 "/>
<path class="st21" d="M1677.2,948.7h-393.3c-10.8,0-31.8-12.8-31.8-30.9l12.3-717.2c0-10.8,8.7-19.5,19.5-19.5l380.9-12.3
	c26.8,0,31.8,18.5,31.8,31.8v728.7C1696.7,940,1687.9,948.7,1677.2,948.7z"/>
<path class="st22" d="M1274.2,168.7h388c12.2,0,22.1,9.9,22.1,22.1v724.3c0,12.2-9.9,22.1-22.1,22.1h-388
	c-12.2,0-22.1-9.9-22.1-22.1V190.9C1252.1,178.6,1262,168.7,1274.2,168.7z"/>
<rect x="1272.3" y="218" class="st3" width="392.6" height="669.9"/>
<linearGradient id="SVGID_1_" gradientUnits="userSpaceOnUse" x1="1306.6029" y1="514.1808" x2="1630.5972" y2="242.3192">
	<stop  offset="0" style="stop-color:#FFFF00"/>
	<stop  offset="1" style="stop-color:#FF7B00"/>
</linearGradient>
<rect x="1272.3" y="283.2" class="st23" width="392.6" height="190.1"/>
<path class="st10" d="M1460.9,276.4c-4.7,23.1-34.8,8.6-46.5,16.3c-9.9,6.5-11.7,22.2-17.9,26.3c6.2-4.1,9.9-17,19.8-23.5
	C1427.9,287.7,1456.2,299.5,1460.9,276.4z"/>
<rect x="1272.3" y="217.1" class="st24" width="392.6" height="60.7"/>
<rect x="1272.3" y="473.3" class="st24" width="392.6" height="414.6"/>
<path class="st6" d="M1272.2,886.2H1665V470.9c0,114.7-44,218.5-115,293.7S1380.7,886.2,1272.2,886.2z"/>
<path class="st6" d="M1449.5,217.1c49.6,6.1,94.7,28,130.7,60.7h84.8v-60.7L1449.5,217.1L1449.5,217.1z"/>
<g class="st15">
	<path d="M1591,234.8h31.7c1.5,0,2.6,1.2,2.6,2.6l0,0c0,1.5-1.2,2.6-2.6,2.6H1591c-1.5,0-2.6-1.2-2.6-2.6l0,0
		C1588.4,235.9,1589.6,234.8,1591,234.8z"/>
	<path d="M1591,248.8h31.7c1.5,0,2.6,1.2,2.6,2.6l0,0c0,1.5-1.2,2.6-2.6,2.6H1591c-1.5,0-2.6-1.2-2.6-2.6l0,0
		C1588.4,250,1589.6,248.8,1591,248.8z"/>
	<path d="M1591,262.9h31.7c1.5,0,2.6,1.2,2.6,2.6l0,0c0,1.5-1.2,2.6-2.6,2.6H1591c-1.5,0-2.6-1.2-2.6-2.6l0,0
		C1588.4,264.1,1589.6,262.9,1591,262.9z"/>
</g>
<path class="st10" d="M1591,231.2h31.7c1.5,0,2.6,1.2,2.6,2.6l0,0c0,1.5-1.2,2.6-2.6,2.6H1591c-1.5,0-2.6-1.2-2.6-2.6l0,0
	C1588.4,232.4,1589.6,231.2,1591,231.2z"/>
<path class="st10" d="M1591,245.3h31.7c1.5,0,2.6,1.2,2.6,2.6l0,0c0,1.5-1.2,2.6-2.6,2.6H1591c-1.5,0-2.6-1.2-2.6-2.6l0,0
	C1588.4,246.5,1589.6,245.3,1591,245.3z"/>
<path class="st10" d="M1591,259.4h31.7c1.5,0,2.6,1.2,2.6,2.6l0,0c0,1.5-1.2,2.6-2.6,2.6H1591c-1.5,0-2.6-1.2-2.6-2.6l0,0
	C1588.4,260.6,1589.6,259.4,1591,259.4z"/>
<path class="st10" d="M1325,545.5h9.3v1.3h-10.9V528h1.6V545.5z"/>
<path class="st10" d="M1336.1,539.7c0-1.3,0.2-2.5,0.8-3.6c1-2.1,3.1-3.5,5.4-3.4c1.7,0,3.4,0.7,4.5,2c1.2,1.4,1.8,3.3,1.7,5.2v0.3
	c0,1.3-0.2,2.5-0.8,3.6c-0.5,1-1.2,1.9-2.2,2.5s-2.1,0.9-3.2,0.9c-1.7,0-3.4-0.7-4.5-2c-1.2-1.4-1.8-3.3-1.7-5.2L1336.1,539.7
	L1336.1,539.7z M1337.6,540.1c-0.1,1.5,0.4,2.9,1.3,4.1c1.5,1.9,4.3,2.1,6.2,0.6c0.2-0.2,0.4-0.4,0.6-0.6c0.9-1.2,1.4-2.7,1.3-4.2
	v-0.3c0-1-0.2-2-0.6-2.9c-0.3-0.8-0.9-1.5-1.7-2.1c-0.7-0.5-1.6-0.7-2.4-0.7c-1.3,0-2.6,0.6-3.4,1.6c-0.9,1.2-1.4,2.7-1.3,4.2V540.1
	z"/>
<path class="st10" d="M1358.1,534.2c-0.3-0.1-0.7-0.1-1-0.1c-0.9,0-1.8,0.3-2.4,0.8c-0.7,0.6-1.2,1.4-1.4,2.3v9.6h-1.5v-14h1.5v2.2
	c0.7-1.6,2.2-2.5,3.9-2.5c0.3,0,0.7,0,1,0.2L1358.1,534.2z"/>
<path class="st10" d="M1365.7,547.1c-1.1,0-2.2-0.3-3.2-0.9c-1-0.6-1.7-1.4-2.2-2.4c-0.5-1.1-0.8-2.3-0.8-3.5v-0.5
	c0-1.3,0.2-2.5,0.8-3.6c0.5-1,1.2-1.9,2.2-2.5c0.9-0.6,1.9-0.9,3-0.9c1.5-0.1,3,0.6,4,1.7c1.1,1.3,1.6,3,1.5,4.7v0.9h-10v0.3
	c-0.1,1.5,0.4,2.9,1.4,4c0.8,1,2.1,1.6,3.4,1.6c0.8,0,1.5-0.1,2.2-0.5c0.7-0.3,1.3-0.8,1.7-1.4l1,0.7
	C1369.5,546.3,1367.7,547.2,1365.7,547.1z M1365.4,534c-1.1,0-2.2,0.4-2.9,1.3c-0.8,1-1.4,2.2-1.4,3.4h8.4v-0.2
	c0-1.2-0.4-2.3-1.2-3.3C1367.6,534.4,1366.5,534,1365.4,534L1365.4,534z"/>
<path class="st10" d="M1375.4,532.9v2.3c0.5-0.8,1.1-1.5,1.9-1.9s1.7-0.6,2.6-0.6c2.2,0,3.6,0.9,4.2,2.7c0.5-0.8,1.2-1.5,2-2
	s1.8-0.7,2.8-0.7c3,0,4.5,1.6,4.6,4.9v9.3h-1.6v-9.2c0.1-1-0.2-2-0.8-2.8c-0.7-0.7-1.6-1-2.6-0.9c-1,0-2,0.4-2.8,1.1
	c-0.7,0.7-1.2,1.6-1.3,2.6v9.2h-1.6v-9.3c0.1-1-0.2-1.9-0.8-2.7c-0.7-0.6-1.6-1-2.6-0.9c-0.9,0-1.8,0.3-2.5,0.8
	c-0.8,0.6-1.3,1.5-1.6,2.5v9.6h-1.6v-14L1375.4,532.9z"/>
<path class="st10" d="M1403.7,528.9c0-0.3,0.1-0.5,0.3-0.7c0.4-0.4,1.1-0.4,1.6,0c0.2,0.2,0.3,0.5,0.3,0.7c0,0.3-0.1,0.5-0.3,0.7
	c-0.4,0.4-1.1,0.4-1.6,0C1403.8,529.4,1403.7,529.1,1403.7,528.9z M1405.5,546.9h-1.5v-14h1.5V546.9z"/>
<path class="st10" d="M1420.9,540c0.1,1.8-0.4,3.7-1.4,5.2c-0.9,1.2-2.3,2-3.9,1.9c-1.7,0.1-3.3-0.6-4.4-2v7.1h-1.5v-19.3h1.4l0.1,2
	c1-1.5,2.6-2.3,4.4-2.2c1.5-0.1,3,0.6,3.9,1.9C1420.5,536.2,1421,538,1420.9,540L1420.9,540z M1419.4,539.7c0.1-1.5-0.3-3-1.1-4.2
	c-0.7-1-1.8-1.6-3.1-1.5c-1.8-0.1-3.4,1-4,2.7v6.7c0.3,0.8,0.9,1.4,1.6,1.8c0.7,0.4,1.6,0.7,2.4,0.6c1.2,0,2.3-0.6,3-1.5
	C1419.1,542.9,1419.5,541.3,1419.4,539.7L1419.4,539.7z"/>
<path class="st10" d="M1432.7,543.3c0-0.7-0.3-1.4-0.9-1.8c-0.8-0.6-1.8-0.9-2.8-1.1c-1-0.2-2-0.5-2.9-0.9c-0.6-0.3-1.1-0.7-1.5-1.3
	c-0.3-0.5-0.5-1.2-0.5-1.8c0-1.1,0.5-2.1,1.4-2.7c1-0.7,2.3-1.1,3.5-1.1c1.3-0.1,2.7,0.3,3.7,1.2c0.9,0.7,1.5,1.8,1.4,3h-1.6
	c0-0.8-0.4-1.5-1-2c-0.8-0.6-1.7-0.8-2.6-0.8s-1.7,0.2-2.4,0.7c-0.6,0.4-0.9,1.1-0.9,1.8c0,0.6,0.3,1.2,0.8,1.6
	c0.9,0.5,1.8,0.8,2.8,1s2,0.5,3,1c0.6,0.3,1.1,0.7,1.5,1.3c0.9,1.6,0.5,3.6-0.9,4.7c-1.1,0.7-2.4,1.1-3.7,1.1
	c-1.4,0.1-2.8-0.4-3.9-1.2c-1-0.7-1.5-1.8-1.5-3h1.6c0,0.8,0.5,1.6,1.1,2.1c0.8,0.5,1.8,0.8,2.8,0.8c0.9,0,1.8-0.2,2.6-0.7
	C1432.3,544.7,1432.7,544,1432.7,543.3z"/>
<path class="st10" d="M1446.7,545.1c-1,1.4-2.7,2.2-4.4,2c-1.3,0.1-2.5-0.4-3.4-1.3c-0.9-1.1-1.3-2.5-1.2-3.8v-9h1.5v8.9
	c0,2.7,1.1,4,3.2,4s3.6-0.9,4.2-2.8V533h1.6v14h-1.5L1446.7,545.1z"/>
<path class="st10" d="M1453.7,532.9v2.3c0.5-0.8,1.1-1.5,1.9-1.9s1.7-0.6,2.6-0.6c2.2,0,3.6,0.9,4.2,2.7c0.5-0.8,1.2-1.5,2-2
	s1.8-0.7,2.8-0.7c3,0,4.5,1.6,4.6,4.9v9.3h-1.6v-9.2c0.1-1-0.2-2-0.8-2.8c-0.7-0.7-1.6-1-2.6-0.9c-1,0-2,0.4-2.8,1.1
	c-0.7,0.7-1.2,1.6-1.3,2.6v9.2h-1.6v-9.3c0.1-1-0.2-1.9-0.8-2.7c-0.7-0.6-1.6-1-2.6-0.9c-0.9,0-1.8,0.3-2.5,0.8
	c-0.8,0.6-1.3,1.5-1.6,2.5v9.6h-1.6v-14L1453.7,532.9z"/>
<path class="st10" d="M1481.4,539.7c-0.1-1.8,0.4-3.7,1.4-5.2c0.9-1.3,2.4-2,3.9-1.9c1.7-0.1,3.4,0.8,4.3,2.2V527h1.5v19.8h-1.4
	l-0.1-1.9c-1,1.4-2.6,2.2-4.4,2.1c-1.5,0-3-0.7-3.9-1.9c-1.1-1.5-1.6-3.4-1.5-5.3L1481.4,539.7z M1483,540c-0.1,1.5,0.3,2.9,1.1,4.2
	c0.7,1,1.8,1.6,3,1.5c1.7,0.1,3.4-0.9,4.1-2.5v-6.5c-0.6-1.7-2.2-2.8-4-2.7c-1.2,0-2.3,0.5-3,1.5
	C1483.3,536.9,1482.9,538.4,1483,540L1483,540z"/>
<path class="st10" d="M1495.9,539.7c0-1.3,0.2-2.5,0.8-3.6c1-2.1,3.1-3.5,5.4-3.4c1.7,0,3.4,0.7,4.5,2c1.2,1.4,1.8,3.3,1.7,5.2v0.3
	c0,1.3-0.2,2.5-0.8,3.6c-0.5,1-1.2,1.9-2.2,2.5s-2.1,0.9-3.2,0.9c-1.7,0-3.4-0.7-4.5-2c-1.2-1.4-1.8-3.3-1.7-5.2L1495.9,539.7
	L1495.9,539.7z M1497.4,540.1c-0.1,1.5,0.4,2.9,1.3,4.1c1.5,1.9,4.3,2.1,6.2,0.6c0.2-0.2,0.4-0.4,0.6-0.6c0.9-1.2,1.4-2.7,1.3-4.2
	v-0.3c0-1-0.2-2-0.6-2.9c-0.3-0.8-0.9-1.5-1.7-2.1c-0.7-0.5-1.6-0.7-2.4-0.7c-1.3,0-2.6,0.6-3.4,1.6c-0.9,1.2-1.4,2.7-1.3,4.2V540.1
	z"/>
<path class="st10" d="M1513.3,546.8h-1.6V527h1.6V546.8z"/>
<path class="st10" d="M1516.6,539.7c0-1.3,0.2-2.5,0.8-3.6c1-2.1,3.1-3.5,5.4-3.4c1.7,0,3.4,0.7,4.5,2c1.2,1.4,1.8,3.3,1.7,5.2v0.3
	c0,1.3-0.2,2.5-0.8,3.6c-0.5,1-1.2,1.9-2.2,2.5s-2.1,0.9-3.2,0.9c-1.7,0-3.4-0.7-4.5-2c-1.2-1.4-1.8-3.3-1.7-5.2L1516.6,539.7
	L1516.6,539.7z M1518.2,540.1c-0.1,1.5,0.4,2.9,1.3,4.1c1.5,1.9,4.3,2.1,6.2,0.6c0.2-0.2,0.4-0.4,0.6-0.6c0.9-1.2,1.4-2.7,1.3-4.2
	v-0.3c0-1-0.2-2-0.6-2.9c-0.3-0.8-0.9-1.5-1.7-2.1c-0.7-0.5-1.6-0.7-2.4-0.7c-1.3,0-2.6,0.6-3.4,1.6c-0.9,1.2-1.4,2.7-1.3,4.2V540.1
	z"/>
<path class="st10" d="M1538.7,534.2c-0.3-0.1-0.7-0.1-1-0.1c-0.9,0-1.8,0.3-2.4,0.8c-0.7,0.6-1.2,1.4-1.4,2.3v9.6h-1.5v-14h1.5v2.2
	c0.7-1.6,2.2-2.5,3.9-2.5c0.3,0,0.7,0,1,0.2L1538.7,534.2z"/>
<path class="st10" d="M1331.3,575c0-0.7-0.3-1.4-0.9-1.8c-0.8-0.6-1.8-0.9-2.8-1.1c-1-0.2-2-0.5-2.9-0.9c-0.6-0.3-1.1-0.7-1.5-1.3
	c-0.3-0.5-0.5-1.1-0.5-1.8c0-1.1,0.5-2.1,1.4-2.7c1-0.8,2.3-1.1,3.5-1.1c1.3-0.1,2.7,0.3,3.7,1.2c0.9,0.7,1.4,1.8,1.4,3h-1.5
	c0-0.8-0.4-1.5-1-2c-0.7-0.6-1.7-0.8-2.6-0.8s-1.7,0.2-2.4,0.7c-0.6,0.4-0.9,1.1-0.9,1.8c0,0.6,0.3,1.2,0.8,1.6
	c0.9,0.5,1.8,0.8,2.8,1s2,0.5,3,1c0.6,0.3,1.1,0.7,1.5,1.3c0.9,1.6,0.5,3.6-0.9,4.7c-1.1,0.8-2.4,1.1-3.7,1.1
	c-1.4,0.1-2.8-0.3-4-1.2c-1-0.7-1.5-1.8-1.5-3h1.6c0,0.8,0.4,1.6,1.1,2.1c0.8,0.5,1.8,0.8,2.8,0.8c0.9,0,1.8-0.2,2.6-0.7
	C1330.9,576.4,1331.3,575.7,1331.3,575z"/>
<path class="st10" d="M1336.3,560.6c0-0.3,0.1-0.5,0.3-0.7c0.4-0.4,1.1-0.4,1.6,0c0.2,0.2,0.3,0.5,0.3,0.7c-0.1,0.6-0.6,1.1-1.2,1
	c-0.2,0-0.5-0.1-0.7-0.3C1336.4,561.1,1336.3,560.8,1336.3,560.6z M1338.1,578.6h-1.6v-14h1.6V578.6z"/>
<path class="st10" d="M1344.7,561v3.6h2.9v1.3h-2.9v9.3c0,0.6,0.1,1.2,0.4,1.7c0.3,0.4,0.9,0.6,1.4,0.6c0.4,0,0.8-0.1,1.3-0.1
	l0.1,1.3c-0.5,0.2-1.1,0.2-1.7,0.2c-0.9,0.1-1.7-0.3-2.3-0.9c-0.5-0.8-0.8-1.8-0.7-2.7V566h-2.6v-1.3h2.6V561H1344.7z"/>
<path class="st10" d="M1366,578.5c-0.2-0.6-0.3-1.3-0.3-2c-0.5,0.7-1.3,1.3-2.1,1.6c-0.8,0.4-1.7,0.6-2.7,0.6
	c-1.2,0-2.4-0.3-3.3-1.1c-0.8-0.7-1.3-1.8-1.2-2.8c0-1.3,0.6-2.5,1.7-3.2c1.4-0.9,3.1-1.3,4.7-1.2h2.8v-1.6c0.1-0.9-0.3-1.7-0.9-2.3
	c-0.8-0.6-1.7-0.9-2.7-0.9s-1.9,0.3-2.7,0.8c-0.7,0.5-1.1,1.2-1.1,2h-1.6c0-1.2,0.6-2.2,1.6-2.9c1.1-0.8,2.4-1.3,3.8-1.2
	c1.3-0.1,2.6,0.3,3.7,1.2c0.9,0.8,1.4,2,1.4,3.3v6.6c0,1,0.1,2,0.4,3v0.2L1366,578.5z M1361.2,577.4c1,0,1.9-0.2,2.8-0.8
	c0.8-0.5,1.4-1.2,1.8-2v-3.1h-2.8c-1.3-0.1-2.5,0.2-3.6,0.8c-0.8,0.5-1.3,1.3-1.3,2.3c0,0.7,0.3,1.5,0.9,2
	C1359.5,577.2,1360.3,577.5,1361.2,577.4z"/>
<path class="st10" d="M1372.7,564.6v2.3c0.5-0.8,1.1-1.5,1.9-1.9s1.7-0.6,2.6-0.6c2.2,0,3.6,0.9,4.2,2.7c0.5-0.8,1.2-1.5,2-2
	s1.8-0.7,2.8-0.7c3,0,4.5,1.6,4.6,4.9v9.3h-1.6v-9.2c0.1-1-0.2-2-0.8-2.8c-0.7-0.7-1.6-1-2.6-0.9c-1,0-2,0.4-2.8,1.1
	c-0.7,0.7-1.2,1.6-1.3,2.6v9.2h-1.6v-9.3c0.1-1-0.2-1.9-0.8-2.7c-0.7-0.6-1.6-1-2.6-0.9c-0.9,0-1.8,0.3-2.5,0.8
	c-0.8,0.7-1.3,1.5-1.6,2.5v9.6h-1.5v-14L1372.7,564.6L1372.7,564.6z"/>
<path class="st10" d="M1400.1,578.8c-2.3,0-4.4-1.3-5.4-3.3c-0.5-1.1-0.8-2.3-0.8-3.5v-0.5c0-1.3,0.2-2.5,0.8-3.6
	c0.5-1,1.2-1.9,2.2-2.5c0.9-0.6,1.9-0.9,3-0.9c1.5-0.1,3,0.6,4,1.7c1.1,1.3,1.6,3,1.5,4.7v0.9h-10v0.3c-0.1,1.5,0.4,2.9,1.4,4
	c0.8,1,2.1,1.6,3.4,1.6c0.8,0,1.5-0.1,2.2-0.5c0.7-0.3,1.3-0.8,1.7-1.4l1,0.7C1403.9,578,1402.1,578.9,1400.1,578.8z M1399.9,565.6
	c-1.1,0-2.2,0.4-2.9,1.3c-0.8,1-1.3,2.2-1.4,3.4h8.4v-0.2c0-1.2-0.4-2.3-1.1-3.3C1402,566.1,1400.9,565.6,1399.9,565.6L1399.9,565.6
	z"/>
<path class="st10" d="M1410.8,561v3.6h2.9v1.3h-2.9v9.3c0,0.6,0.1,1.2,0.4,1.7c0.3,0.4,0.9,0.6,1.4,0.6c0.4,0,0.8-0.1,1.3-0.1
	l0.1,1.3c-0.5,0.2-1.1,0.2-1.7,0.2c-0.9,0.1-1.7-0.3-2.3-0.9c-0.5-0.8-0.8-1.8-0.7-2.7V566h-2.6v-1.3h2.6V561H1410.8z"/>
<path class="st10" d="M1416.7,577.6c0-0.3,0.1-0.6,0.3-0.8c0.5-0.4,1.2-0.4,1.6,0c0.2,0.2,0.3,0.5,0.3,0.8s-0.1,0.5-0.3,0.7
	c-0.5,0.4-1.1,0.4-1.6,0C1416.8,578.2,1416.7,577.9,1416.7,577.6z"/>
<rect x="1272.3" y="631.8" class="st25" width="392.6" height="97.7"/>
<path class="st24" d="M1448,650.3h40.4c5.6,0,10.2,4.6,10.2,10.2v40.4c0,5.6-4.6,10.2-10.2,10.2H1448c-5.6,0-10.2-4.6-10.2-10.2
	v-40.4C1437.8,654.8,1442.4,650.3,1448,650.3z"/>
<path class="st26" d="M1350.3,792h235.8c5.6,0,10.2,4.6,10.2,10.2v40.4c0,5.6-4.6,10.2-10.2,10.2h-235.8c-5.6,0-10.2-4.6-10.2-10.2
	v-40.4C1340.1,796.6,1344.7,792,1350.3,792z"/>
<path class="st24" d="M1316.9,650.3h40.4c5.6,0,10.2,4.6,10.2,10.2v40.4c0,5.6-4.6,10.2-10.2,10.2h-40.4c-5.6,0-10.2-4.6-10.2-10.2
	v-40.4C1306.7,654.8,1311.2,650.3,1316.9,650.3z"/>
<path class="st24" d="M1579.2,650.3h40.4c5.6,0,10.2,4.6,10.2,10.2v40.4c0,5.6-4.6,10.2-10.2,10.2h-40.4c-5.6,0-10.2-4.6-10.2-10.2
	v-40.4C1569,654.8,1573.6,650.3,1579.2,650.3z"/>
<path class="st10" d="M1272.3,400.3V283.2l0,0h117.1l0,0l0,0C1389.4,347.8,1337,400.3,1272.3,400.3L1272.3,400.3L1272.3,400.3z"/>
<path class="st10" d="M1606.6,449.2c-78.3,62.2-136.2-67-195.3-73.8c-49.8-5.7-98.4,40.1-129.9,36.5c31.5,3.6,78.4-28,128.3-22.3
	C1468.8,396.4,1528.3,511.4,1606.6,449.2z"/>
<path class="st10" d="M1557.4,360.9c-40.3,46.9-90.5-24.8-127.2-22.1c-30.9,2.3-55.1,35.8-74.6,37.3c19.5-1.5,44.4-26.1,75.3-28.5
	C1467.6,344.9,1517.1,407.8,1557.4,360.9z"/>
<path class="st10" d="M1498.8,301.9c-14.8,35.2-57.9,2.7-79,11.3c-17.7,7.3-25.6,31.5-36.8,36.1c11.2-4.6,21.1-23.8,38.8-31.1
	C1442.9,309.6,1484,337.1,1498.8,301.9z"/>
<polygon class="st24" points="1462.3,827.7 1450,815.4 1443.3,822.1 1462.3,841.1 1493.1,810.4 1486.4,803.6 "/>
<circle class="st0" cx="1471.9" cy="191.8" r="8.8"/>
<circle class="st20" cx="1471.9" cy="191.8" r="5.5"/>
<circle class="st2" cx="1471.9" cy="191.8" r="3.4"/>
<circle cx="1425.9" cy="191.8" r="3.4"/>
<path d="M1658.6,217.1c3.5,0,6.4,2.9,6.4,6.4v656.3c0,3.5-2.9,6.4-6.4,6.4h-379.9c-3.5,0-6.4-2.9-6.4-6.4V223.5
	c0-3.5,2.9-6.4,6.4-6.4H1658.6 M1658.6,212.1h-379.9c-6.3,0-11.4,5.1-11.4,11.4v656.3c0,6.3,5.1,11.4,11.4,11.4h379.9
	c6.3,0,11.4-5.1,11.4-11.4l0,0V223.5C1670,217.2,1664.9,212.1,1658.6,212.1L1658.6,212.1z"/>
<rect x="1272.3" y="277.9" class="st27" width="392.6" height="5.3"/>
</svg>
