<svg xmlns="http://www.w3.org/2000/svg" viewBox="0 0 139.98 139.98"><defs><style>.cls-1{fill:#fff;}</style></defs><title>Ativo 4</title><g id="Camada_2" data-name="Camada 2"><g id="Camada_1-2" data-name="Camada 1"><path class="cls-1" d="M137,3V137H3V3H137m3-3H0V140H140V0Z"/><path class="cls-1" d="M100.56,59.69a.5.5,0,0,0,0-.12,1.42,1.42,0,0,0-.05-.22c0-.05,0-.09,0-.13a1.59,1.59,0,0,0-.07-.2l-.06-.13a1.51,1.51,0,0,0-.09-.18l-.07-.12-.12-.16-.09-.12-.13-.14-.11-.11-.15-.12-.12-.1,0,0L71,38.87a2.68,2.68,0,0,0-3,0L39.61,57.81l0,0-.12.1-.15.12-.11.11a.86.86,0,0,0-.13.14.94.94,0,0,0-.09.12l-.12.16-.07.12a5.51,5.51,0,0,0-.15.31,1.59,1.59,0,0,0-.07.2.5.5,0,0,0,0,.13,1.42,1.42,0,0,0-.05.22.5.5,0,0,0,0,.12,2,2,0,0,0,0,.34V79a2,2,0,0,0,0,.35.5.5,0,0,0,0,.12,1.74,1.74,0,0,0,.05.22.5.5,0,0,0,0,.13,1.59,1.59,0,0,0,.07.2,1.39,1.39,0,0,0,.06.13.56.56,0,0,0,.09.17s0,.09.07.13l.12.16a.94.94,0,0,0,.09.12l.13.14.11.1.15.13.12.09,0,0L68,100.14a2.73,2.73,0,0,0,3,0L99.4,81.2s0,0,0,0l.12-.09.15-.13.11-.1.13-.14.09-.12.12-.16s0-.08.07-.13a.91.91,0,0,0,.09-.17l.06-.13a1.59,1.59,0,0,0,.07-.2s0-.08,0-.13a1.74,1.74,0,0,0,.05-.22.5.5,0,0,0,0-.12,2,2,0,0,0,0-.35V60A1.94,1.94,0,0,0,100.56,59.69ZM72.18,46.09,93.1,60l-9.34,6.25L72.18,58.54Zm-5.35,0V58.54L55.25,66.29,45.9,60ZM43.77,65l6.68,4.47L43.77,74ZM66.83,92.92,45.9,79l9.35-6.25,11.58,7.74Zm2.67-17.1L60.06,69.5l9.44-6.32L79,69.5Zm2.68,17.1V80.46l11.58-7.74L93.1,79ZM95.24,74,88.56,69.5,95.24,65Z"/></g></g></svg>