<svg xmlns="http://www.w3.org/2000/svg" viewBox="0 0 140.29 140.29"><defs><style>.cls-1{fill:#fff;}</style></defs><title>Ativo 2</title><g id="Camada_2" data-name="Camada 2"><g id="Camada_1-2" data-name="Camada 1"><path class="cls-1" d="M0,0V140.29H140.29V0ZM137.29,137.29H3V3H137.29Z"/><path class="cls-1" d="M36.81,91.17a1.16,1.16,0,0,0,0,.18,1.05,1.05,0,0,0,0,.19c0,.06.05.12.08.19l.08.15a1.27,1.27,0,0,0,.13.19l.05.07,0,0a1.8,1.8,0,0,0,.2.19l.12.1a1.09,1.09,0,0,0,.23.14l.13.07.29.1.1,0a2,2,0,0,0,.42.05h63.59a2,2,0,0,0,.42-.05l.09,0a1.18,1.18,0,0,0,.3-.1l.13-.07a1.09,1.09,0,0,0,.23-.14l.12-.1a1.8,1.8,0,0,0,.2-.19s0,0,0,0l0-.07a1.22,1.22,0,0,0,.12-.19l.09-.15c0-.07,0-.13.08-.19a1.05,1.05,0,0,0,0-.19,1.16,1.16,0,0,0,0-.18,1.49,1.49,0,0,0,0-.21s0-.06,0-.09V51.57s0-.06,0-.09a1.5,1.5,0,0,0,0-.22,1.16,1.16,0,0,0,0-.18.7.7,0,0,0-.06-.19,1.34,1.34,0,0,0-.07-.18l-.09-.17a1.77,1.77,0,0,0-.12-.17l0-.08-.06-.06-.15-.15-.15-.12-.16-.1a1,1,0,0,0-.17-.1l-.18-.07-.19-.06-.18,0a1.52,1.52,0,0,0-.21,0H38.69l-.21,0-.19,0-.18.06-.18.07-.17.09-.17.11-.14.12-.15.15-.06.06-.05.07a2.14,2.14,0,0,0-.13.19l-.08.16-.08.18a1.8,1.8,0,0,0,0,.19,1.16,1.16,0,0,0,0,.18,1.49,1.49,0,0,0,0,.21s0,.06,0,.1v39.3s0,.06,0,.09A1.49,1.49,0,0,0,36.81,91.17ZM69.3,79.31a2,2,0,0,0,1.27.46,2.05,2.05,0,0,0,1.28-.46l6.67-5.5L96.8,88.87H44.35L62.63,73.81Zm12.37-8.09,18.7-15.41V86.63Zm-4.4-1.56h0l-6.69,5.51-6.68-5.5,0,0L44.35,53.57H96.8ZM59.48,71.22,40.78,86.63V55.8Z"/></g></g></svg>