<svg xmlns="http://www.w3.org/2000/svg" viewBox="0 0 139.98 139.98"><defs><style>.cls-1,.cls-2{fill:#fff;}.cls-2{fill-rule:evenodd;}</style></defs><title>Ativo 6</title><g id="Camada_2" data-name="Camada 2"><g id="Camada_1-2" data-name="Camada 1"><path class="cls-1" d="M137,3V137H3V3H137m3-3H0V140H140V0Z"/><path class="cls-2" d="M70,38.59a31.3,31.3,0,0,0-9.89,61c1.56.29,2.13-.67,2.13-1.5s0-2.72,0-5.33c-8.7,1.89-10.54-4.19-10.54-4.19C50.23,84.94,48.17,84,48.17,84c-2.84-1.94.22-1.9.22-1.9,3.14.22,4.79,3.22,4.79,3.22,2.8,4.78,7.33,3.4,9.11,2.6a6.73,6.73,0,0,1,2-4.18C57.33,82.93,50,80.24,50,68.25a12.11,12.11,0,0,1,3.22-8.4,11.28,11.28,0,0,1,.31-8.28s2.63-.84,8.61,3.21a29.49,29.49,0,0,1,15.67,0c6-4.05,8.6-3.21,8.6-3.21a11.22,11.22,0,0,1,.31,8.28A12.06,12.06,0,0,1,90,68.25c0,12-7.32,14.67-14.29,15.44,1.12,1,2.12,2.88,2.12,5.8,0,4.18,0,7.56,0,8.59,0,.83.57,1.81,2.15,1.5a31.3,31.3,0,0,0-9.91-61Z"/></g></g></svg>