<svg xmlns="http://www.w3.org/2000/svg" viewBox="0 0 140.29 140.29"><defs><style>.cls-1{fill:#fff;}.cls-2{fill:none;stroke:#fff;stroke-miterlimit:10;stroke-width:4px;}</style></defs><title>Ativo 5</title><g id="Camada_2" data-name="Camada 2"><g id="Camada_1-2" data-name="Camada 1"><path class="cls-1" d="M137.29,3V137.29H3V3H137.29m3-3H0V140.29H140.29V0Z"/><circle class="cls-2" cx="70.46" cy="70.32" r="27.48"/><path class="cls-2" d="M70.46,59.83c8.77,0,16.56-2.54,21.6-6.49a27.47,27.47,0,0,0-43.19,0C53.9,57.29,61.7,59.83,70.46,59.83Z"/><path class="cls-2" d="M70.46,81c-8.76,0-16.56,2.54-21.59,6.49a27.47,27.47,0,0,0,43.19,0C87,83.53,79.23,81,70.46,81Z"/><ellipse class="cls-2" cx="70.46" cy="70.32" rx="11.12" ry="27.48"/><path class="cls-1" d="M31.59,113.34H24.73v5.14h8v2.32H21.83V104.09H32.67v2.34H24.73v4.62h6.86Z"/><path class="cls-1" d="M48.37,120.8H45.46L38,109V120.8H35.11V104.09H38L45.49,116v-11.9h2.88Z"/><path class="cls-1" d="M96.69,30.14v6.19H93.78V19.63h6.39a6.48,6.48,0,0,1,4.45,1.45,4.91,4.91,0,0,1,1.65,3.86,4.74,4.74,0,0,1-1.62,3.83,6.77,6.77,0,0,1-4.51,1.37Zm0-2.35h3.48a3.48,3.48,0,0,0,2.37-.72,2.7,2.7,0,0,0,.81-2.11,2.89,2.89,0,0,0-.82-2.16,3.18,3.18,0,0,0-2.28-.83H96.69Z"/><path class="cls-1" d="M120.87,22h-5.21V36.33h-2.88V22h-5.16V19.63h13.25Z"/></g></g></svg>