<?xml version="1.0" encoding="utf-8"?>
<!-- Generator: Adobe Illustrator 22.1.0, SVG Export Plug-In . SVG Version: 6.00 Build 0)  -->
<svg version="1.1" id="Camada_1" xmlns="http://www.w3.org/2000/svg" xmlns:xlink="http://www.w3.org/1999/xlink" x="0px" y="0px"
	 viewBox="0 0 140 140" style="enable-background:new 0 0 140 140;" xml:space="preserve">
<style type="text/css">
	.st0{fill:#FFFFFF;}
</style>
<title>Ativo 4</title>
<g id="Camada_1-2_1_">
	<path class="st0" d="M137,3v134H3V3H137 M140,0H0v140h140V0z"/>
</g>
<g>
	<path id="LinkedIn" class="st0" d="M100.6,76.2v22.9H87.3V77.7c0-5.4-1.9-9-6.7-9c-3.7,0-5.9,2.5-6.8,4.9c-0.4,0.9-0.4,2-0.4,3.2
		v22.3H60c0,0,0.2-36.2,0-40h13.3v5.7c0,0-0.1,0.1-0.1,0.1h0.1v-0.1c1.8-2.7,4.9-6.6,12-6.6C94,58.2,100.6,63.9,100.6,76.2z
		 M46.1,39.9c-4.5,0-7.5,3-7.5,6.9c0,3.8,2.9,6.9,7.3,6.9H46c4.6,0,7.5-3.1,7.5-6.9C53.4,42.8,50.6,39.9,46.1,39.9z M39.3,99.1h13.3
		v-40H39.3V99.1z"/>
</g>
</svg>
