<svg xmlns="http://www.w3.org/2000/svg" viewBox="0 0 140.29 140.29"><defs><style>.cls-1{fill:#fff;}</style></defs><title>Ativo 3</title><g id="Camada_2" data-name="Camada 2"><g id="Camada_1-2" data-name="Camada 1"><path class="cls-1" d="M137.29,3V137.29H3V3H137.29m3-3H0V140.29H140.29V0Z"/><g id="Camada_1-2-2" data-name="Camada 1-2"><path class="cls-1" d="M56.1,92.23l.95.56a25.91,25.91,0,0,0,13.21,3.62h0a25.95,25.95,0,1,0-22-12.17l.62,1-2.62,9.61Zm-17.32,10L43.21,86a31.23,31.23,0,1,1,27.06,15.64h0a31.07,31.07,0,0,1-14.94-3.8Z"/><path class="cls-1" d="M39,70.45a31.08,31.08,0,0,0,4.17,15.6l-4.43,16.18,16.55-4.34a31.25,31.25,0,0,0,14.92,3.8h0A31.24,31.24,0,1,0,39,70.43h0m9.86,14.8-.62-1a26,26,0,1,1,22,12.17h0A25.84,25.84,0,0,1,57.05,92.8l-.95-.57-9.83,2.6Z"/><path class="cls-1" d="M62.47,57.39c-.59-1.32-1.2-1.32-1.76-1.32h-1.5a2.84,2.84,0,0,0-2.07,1,8.75,8.75,0,0,0-2.74,6.51c0,3.84,2.8,7.55,3.19,8.07S63,80.26,70.92,83.36c6.62,2.6,7.94,2.08,9.36,2s4.64-1.88,5.3-3.71A6.27,6.27,0,0,0,86,77.92c-.21-.33-.72-.52-1.49-.91s-4.65-2.31-5.38-2.57-1.24-.39-1.75.39a39,39,0,0,1-2.47,3.06c-.48.51-.92.59-1.7.2A21.29,21.29,0,0,1,67,74.21a23.1,23.1,0,0,1-4.34-5.4c-.46-.78-.05-1.2.34-1.59s.78-.91,1.17-1.37a5.34,5.34,0,0,0,.78-1.32,1.45,1.45,0,0,0-.06-1.37c-.2-.39-1.71-4.25-2.41-5.79"/></g></g></g></svg>