<svg id="Camada_1" data-name="Camada 1" xmlns="http://www.w3.org/2000/svg" viewBox="0 0 84.9 98.54"><title>mobile_return</title><path d="M41.89,11.63V3.3a1.84,1.84,0,0,0-2.81-1.56L9.25,20.17a1.85,1.85,0,0,0,0,3.14L39.08,41.74a1.84,1.84,0,0,0,2.81-1.57V31.84A1.85,1.85,0,0,1,43.73,30H74.91a1.85,1.85,0,0,1,1.85,1.84V81.63a1.84,1.84,0,0,1-1.85,1.84h-58A1.85,1.85,0,0,0,15,85.32V98.16A1.84,1.84,0,0,0,16.86,100H91.44a1.84,1.84,0,0,0,1.84-1.84V15.32a1.84,1.84,0,0,0-1.84-1.84H43.73A1.85,1.85,0,0,1,41.89,11.63Z" transform="translate(-8.38 -1.46)"/></svg>